%TF.GenerationSoftware,KiCad,Pcbnew,(5.1.12)-1*%
%TF.CreationDate,2022-07-23T17:19:18+09:00*%
%TF.ProjectId,FullBridge_demo_kit,46756c6c-4272-4696-9467-655f64656d6f,rev?*%
%TF.SameCoordinates,Original*%
%TF.FileFunction,Copper,L2,Bot*%
%TF.FilePolarity,Positive*%
%FSLAX46Y46*%
G04 Gerber Fmt 4.6, Leading zero omitted, Abs format (unit mm)*
G04 Created by KiCad (PCBNEW (5.1.12)-1) date 2022-07-23 17:19:18*
%MOMM*%
%LPD*%
G01*
G04 APERTURE LIST*
%TA.AperFunction,ComponentPad*%
%ADD10R,3.960000X1.980000*%
%TD*%
%TA.AperFunction,ComponentPad*%
%ADD11O,3.960000X1.980000*%
%TD*%
%TA.AperFunction,ComponentPad*%
%ADD12C,1.600000*%
%TD*%
%TA.AperFunction,ComponentPad*%
%ADD13R,1.600000X1.600000*%
%TD*%
%TA.AperFunction,ComponentPad*%
%ADD14R,1.800000X1.800000*%
%TD*%
%TA.AperFunction,ComponentPad*%
%ADD15O,1.800000X1.800000*%
%TD*%
%TA.AperFunction,ComponentPad*%
%ADD16C,1.800000*%
%TD*%
%TA.AperFunction,ComponentPad*%
%ADD17O,1.600000X1.600000*%
%TD*%
%TA.AperFunction,ComponentPad*%
%ADD18R,2.000000X1.905000*%
%TD*%
%TA.AperFunction,ComponentPad*%
%ADD19O,2.000000X1.905000*%
%TD*%
%TA.AperFunction,ComponentPad*%
%ADD20R,1.700000X1.700000*%
%TD*%
%TA.AperFunction,ComponentPad*%
%ADD21O,1.700000X1.700000*%
%TD*%
%TA.AperFunction,ComponentPad*%
%ADD22C,2.000000*%
%TD*%
%TA.AperFunction,Conductor*%
%ADD23C,0.254000*%
%TD*%
%TA.AperFunction,Conductor*%
%ADD24C,0.100000*%
%TD*%
G04 APERTURE END LIST*
D10*
%TO.P,J1,1*%
%TO.N,+12V*%
X120650000Y-90170000D03*
D11*
%TO.P,J1,2*%
%TO.N,GND*%
X120650000Y-95170000D03*
%TD*%
D12*
%TO.P,C1,2*%
%TO.N,GND*%
X120700000Y-108400000D03*
D13*
%TO.P,C1,1*%
%TO.N,Net-(C1-Pad1)*%
X118700000Y-108400000D03*
%TD*%
D12*
%TO.P,C2,1*%
%TO.N,Net-(C1-Pad1)*%
X124206000Y-115062000D03*
%TO.P,C2,2*%
%TO.N,GND*%
X124206000Y-110062000D03*
%TD*%
%TO.P,C3,2*%
%TO.N,GND*%
X132588000Y-113204000D03*
%TO.P,C3,1*%
%TO.N,+5V*%
X132588000Y-108204000D03*
%TD*%
D13*
%TO.P,C4,1*%
%TO.N,+5V*%
X136652000Y-105156000D03*
D12*
%TO.P,C4,2*%
%TO.N,GND*%
X136652000Y-107156000D03*
%TD*%
D14*
%TO.P,D1,1*%
%TO.N,Net-(C1-Pad1)*%
X118600000Y-101500000D03*
D15*
%TO.P,D1,2*%
%TO.N,+12V*%
X126220000Y-101500000D03*
%TD*%
D16*
%TO.P,D2,2*%
%TO.N,Net-(D2-Pad2)*%
X168910000Y-98425000D03*
D14*
%TO.P,D2,1*%
%TO.N,Net-(D2-Pad1)*%
X171450000Y-98425000D03*
%TD*%
%TO.P,D3,1*%
%TO.N,Net-(D3-Pad1)*%
X154940000Y-106680000D03*
D16*
%TO.P,D3,2*%
%TO.N,Net-(D3-Pad2)*%
X157480000Y-106680000D03*
%TD*%
D12*
%TO.P,R1,1*%
%TO.N,+5V*%
X136652000Y-98298000D03*
D17*
%TO.P,R1,2*%
%TO.N,Net-(R1-Pad2)*%
X136652000Y-88138000D03*
%TD*%
D18*
%TO.P,U1,1*%
%TO.N,Net-(C1-Pad1)*%
X129286000Y-113284000D03*
D19*
%TO.P,U1,2*%
%TO.N,GND*%
X129286000Y-110744000D03*
%TO.P,U1,3*%
%TO.N,+5V*%
X129286000Y-108204000D03*
%TD*%
D20*
%TO.P,J2,1*%
%TO.N,Net-(D3-Pad1)*%
X161925000Y-102870000D03*
D21*
%TO.P,J2,2*%
%TO.N,Net-(D2-Pad1)*%
X164465000Y-102870000D03*
%TD*%
D17*
%TO.P,R2,2*%
%TO.N,Net-(D2-Pad2)*%
X162560000Y-98425000D03*
D12*
%TO.P,R2,1*%
%TO.N,Net-(D3-Pad1)*%
X154940000Y-98425000D03*
%TD*%
%TO.P,R3,1*%
%TO.N,Net-(D2-Pad1)*%
X171450000Y-106680000D03*
D17*
%TO.P,R3,2*%
%TO.N,Net-(D3-Pad2)*%
X163830000Y-106680000D03*
%TD*%
D22*
%TO.P,SW1,2*%
%TO.N,Net-(R1-Pad2)*%
X154686000Y-87956000D03*
%TO.P,SW1,1*%
%TO.N,Net-(D3-Pad1)*%
X154686000Y-92456000D03*
%TO.P,SW1,2*%
%TO.N,Net-(R1-Pad2)*%
X148186000Y-87956000D03*
%TO.P,SW1,1*%
%TO.N,Net-(D3-Pad1)*%
X148186000Y-92456000D03*
%TD*%
%TO.P,SW2,2*%
%TO.N,Net-(D3-Pad1)*%
X154686000Y-113102000D03*
%TO.P,SW2,1*%
%TO.N,GND*%
X154686000Y-117602000D03*
%TO.P,SW2,2*%
%TO.N,Net-(D3-Pad1)*%
X148186000Y-113102000D03*
%TO.P,SW2,1*%
%TO.N,GND*%
X148186000Y-117602000D03*
%TD*%
%TO.P,SW3,1*%
%TO.N,Net-(D2-Pad1)*%
X171300000Y-92456000D03*
%TO.P,SW3,2*%
%TO.N,Net-(R1-Pad2)*%
X171300000Y-87956000D03*
%TO.P,SW3,1*%
%TO.N,Net-(D2-Pad1)*%
X177800000Y-92456000D03*
%TO.P,SW3,2*%
%TO.N,Net-(R1-Pad2)*%
X177800000Y-87956000D03*
%TD*%
%TO.P,SW4,1*%
%TO.N,GND*%
X171300000Y-117602000D03*
%TO.P,SW4,2*%
%TO.N,Net-(D2-Pad1)*%
X171300000Y-113102000D03*
%TO.P,SW4,1*%
%TO.N,GND*%
X177800000Y-117602000D03*
%TO.P,SW4,2*%
%TO.N,Net-(D2-Pad1)*%
X177800000Y-113102000D03*
%TD*%
D23*
%TO.N,GND*%
X187740001Y-124440000D02*
X117060000Y-124440000D01*
X117060000Y-121876521D01*
X117130979Y-121876521D01*
X117130979Y-122323479D01*
X117218176Y-122761849D01*
X117389220Y-123174785D01*
X117637536Y-123546417D01*
X117953583Y-123862464D01*
X118325215Y-124110780D01*
X118738151Y-124281824D01*
X119176521Y-124369021D01*
X119623479Y-124369021D01*
X120061849Y-124281824D01*
X120474785Y-124110780D01*
X120846417Y-123862464D01*
X121162464Y-123546417D01*
X121410780Y-123174785D01*
X121581824Y-122761849D01*
X121669021Y-122323479D01*
X121669021Y-121876521D01*
X183130979Y-121876521D01*
X183130979Y-122323479D01*
X183218176Y-122761849D01*
X183389220Y-123174785D01*
X183637536Y-123546417D01*
X183953583Y-123862464D01*
X184325215Y-124110780D01*
X184738151Y-124281824D01*
X185176521Y-124369021D01*
X185623479Y-124369021D01*
X186061849Y-124281824D01*
X186474785Y-124110780D01*
X186846417Y-123862464D01*
X187162464Y-123546417D01*
X187410780Y-123174785D01*
X187581824Y-122761849D01*
X187669021Y-122323479D01*
X187669021Y-121876521D01*
X187581824Y-121438151D01*
X187410780Y-121025215D01*
X187162464Y-120653583D01*
X186846417Y-120337536D01*
X186474785Y-120089220D01*
X186061849Y-119918176D01*
X185623479Y-119830979D01*
X185176521Y-119830979D01*
X184738151Y-119918176D01*
X184325215Y-120089220D01*
X183953583Y-120337536D01*
X183637536Y-120653583D01*
X183389220Y-121025215D01*
X183218176Y-121438151D01*
X183130979Y-121876521D01*
X121669021Y-121876521D01*
X121581824Y-121438151D01*
X121410780Y-121025215D01*
X121162464Y-120653583D01*
X120846417Y-120337536D01*
X120474785Y-120089220D01*
X120061849Y-119918176D01*
X119623479Y-119830979D01*
X119176521Y-119830979D01*
X118738151Y-119918176D01*
X118325215Y-120089220D01*
X117953583Y-120337536D01*
X117637536Y-120653583D01*
X117389220Y-121025215D01*
X117218176Y-121438151D01*
X117130979Y-121876521D01*
X117060000Y-121876521D01*
X117060000Y-118737413D01*
X147230192Y-118737413D01*
X147325956Y-119001814D01*
X147615571Y-119142704D01*
X147927108Y-119224384D01*
X148248595Y-119243718D01*
X148567675Y-119199961D01*
X148872088Y-119094795D01*
X149046044Y-119001814D01*
X149141808Y-118737413D01*
X153730192Y-118737413D01*
X153825956Y-119001814D01*
X154115571Y-119142704D01*
X154427108Y-119224384D01*
X154748595Y-119243718D01*
X155067675Y-119199961D01*
X155372088Y-119094795D01*
X155546044Y-119001814D01*
X155641808Y-118737413D01*
X170344192Y-118737413D01*
X170439956Y-119001814D01*
X170729571Y-119142704D01*
X171041108Y-119224384D01*
X171362595Y-119243718D01*
X171681675Y-119199961D01*
X171986088Y-119094795D01*
X172160044Y-119001814D01*
X172255808Y-118737413D01*
X176844192Y-118737413D01*
X176939956Y-119001814D01*
X177229571Y-119142704D01*
X177541108Y-119224384D01*
X177862595Y-119243718D01*
X178181675Y-119199961D01*
X178486088Y-119094795D01*
X178660044Y-119001814D01*
X178755808Y-118737413D01*
X177800000Y-117781605D01*
X176844192Y-118737413D01*
X172255808Y-118737413D01*
X171300000Y-117781605D01*
X170344192Y-118737413D01*
X155641808Y-118737413D01*
X154686000Y-117781605D01*
X153730192Y-118737413D01*
X149141808Y-118737413D01*
X148186000Y-117781605D01*
X147230192Y-118737413D01*
X117060000Y-118737413D01*
X117060000Y-117664595D01*
X146544282Y-117664595D01*
X146588039Y-117983675D01*
X146693205Y-118288088D01*
X146786186Y-118462044D01*
X147050587Y-118557808D01*
X148006395Y-117602000D01*
X148365605Y-117602000D01*
X149321413Y-118557808D01*
X149585814Y-118462044D01*
X149726704Y-118172429D01*
X149808384Y-117860892D01*
X149820189Y-117664595D01*
X153044282Y-117664595D01*
X153088039Y-117983675D01*
X153193205Y-118288088D01*
X153286186Y-118462044D01*
X153550587Y-118557808D01*
X154506395Y-117602000D01*
X154865605Y-117602000D01*
X155821413Y-118557808D01*
X156085814Y-118462044D01*
X156226704Y-118172429D01*
X156308384Y-117860892D01*
X156320189Y-117664595D01*
X169658282Y-117664595D01*
X169702039Y-117983675D01*
X169807205Y-118288088D01*
X169900186Y-118462044D01*
X170164587Y-118557808D01*
X171120395Y-117602000D01*
X171479605Y-117602000D01*
X172435413Y-118557808D01*
X172699814Y-118462044D01*
X172840704Y-118172429D01*
X172922384Y-117860892D01*
X172934189Y-117664595D01*
X176158282Y-117664595D01*
X176202039Y-117983675D01*
X176307205Y-118288088D01*
X176400186Y-118462044D01*
X176664587Y-118557808D01*
X177620395Y-117602000D01*
X177979605Y-117602000D01*
X178935413Y-118557808D01*
X179199814Y-118462044D01*
X179340704Y-118172429D01*
X179422384Y-117860892D01*
X179441718Y-117539405D01*
X179397961Y-117220325D01*
X179292795Y-116915912D01*
X179199814Y-116741956D01*
X178935413Y-116646192D01*
X177979605Y-117602000D01*
X177620395Y-117602000D01*
X176664587Y-116646192D01*
X176400186Y-116741956D01*
X176259296Y-117031571D01*
X176177616Y-117343108D01*
X176158282Y-117664595D01*
X172934189Y-117664595D01*
X172941718Y-117539405D01*
X172897961Y-117220325D01*
X172792795Y-116915912D01*
X172699814Y-116741956D01*
X172435413Y-116646192D01*
X171479605Y-117602000D01*
X171120395Y-117602000D01*
X170164587Y-116646192D01*
X169900186Y-116741956D01*
X169759296Y-117031571D01*
X169677616Y-117343108D01*
X169658282Y-117664595D01*
X156320189Y-117664595D01*
X156327718Y-117539405D01*
X156283961Y-117220325D01*
X156178795Y-116915912D01*
X156085814Y-116741956D01*
X155821413Y-116646192D01*
X154865605Y-117602000D01*
X154506395Y-117602000D01*
X153550587Y-116646192D01*
X153286186Y-116741956D01*
X153145296Y-117031571D01*
X153063616Y-117343108D01*
X153044282Y-117664595D01*
X149820189Y-117664595D01*
X149827718Y-117539405D01*
X149783961Y-117220325D01*
X149678795Y-116915912D01*
X149585814Y-116741956D01*
X149321413Y-116646192D01*
X148365605Y-117602000D01*
X148006395Y-117602000D01*
X147050587Y-116646192D01*
X146786186Y-116741956D01*
X146645296Y-117031571D01*
X146563616Y-117343108D01*
X146544282Y-117664595D01*
X117060000Y-117664595D01*
X117060000Y-114920665D01*
X122771000Y-114920665D01*
X122771000Y-115203335D01*
X122826147Y-115480574D01*
X122934320Y-115741727D01*
X123091363Y-115976759D01*
X123291241Y-116176637D01*
X123526273Y-116333680D01*
X123787426Y-116441853D01*
X124064665Y-116497000D01*
X124347335Y-116497000D01*
X124500229Y-116466587D01*
X147230192Y-116466587D01*
X148186000Y-117422395D01*
X149141808Y-116466587D01*
X153730192Y-116466587D01*
X154686000Y-117422395D01*
X155641808Y-116466587D01*
X170344192Y-116466587D01*
X171300000Y-117422395D01*
X172255808Y-116466587D01*
X176844192Y-116466587D01*
X177800000Y-117422395D01*
X178755808Y-116466587D01*
X178660044Y-116202186D01*
X178370429Y-116061296D01*
X178058892Y-115979616D01*
X177737405Y-115960282D01*
X177418325Y-116004039D01*
X177113912Y-116109205D01*
X176939956Y-116202186D01*
X176844192Y-116466587D01*
X172255808Y-116466587D01*
X172160044Y-116202186D01*
X171870429Y-116061296D01*
X171558892Y-115979616D01*
X171237405Y-115960282D01*
X170918325Y-116004039D01*
X170613912Y-116109205D01*
X170439956Y-116202186D01*
X170344192Y-116466587D01*
X155641808Y-116466587D01*
X155546044Y-116202186D01*
X155256429Y-116061296D01*
X154944892Y-115979616D01*
X154623405Y-115960282D01*
X154304325Y-116004039D01*
X153999912Y-116109205D01*
X153825956Y-116202186D01*
X153730192Y-116466587D01*
X149141808Y-116466587D01*
X149046044Y-116202186D01*
X148756429Y-116061296D01*
X148444892Y-115979616D01*
X148123405Y-115960282D01*
X147804325Y-116004039D01*
X147499912Y-116109205D01*
X147325956Y-116202186D01*
X147230192Y-116466587D01*
X124500229Y-116466587D01*
X124624574Y-116441853D01*
X124885727Y-116333680D01*
X125120759Y-116176637D01*
X125320637Y-115976759D01*
X125477680Y-115741727D01*
X125585853Y-115480574D01*
X125641000Y-115203335D01*
X125641000Y-114920665D01*
X125585853Y-114643426D01*
X125477680Y-114382273D01*
X125320637Y-114147241D01*
X125120759Y-113947363D01*
X124885727Y-113790320D01*
X124624574Y-113682147D01*
X124347335Y-113627000D01*
X124064665Y-113627000D01*
X123787426Y-113682147D01*
X123526273Y-113790320D01*
X123291241Y-113947363D01*
X123091363Y-114147241D01*
X122934320Y-114382273D01*
X122826147Y-114643426D01*
X122771000Y-114920665D01*
X117060000Y-114920665D01*
X117060000Y-112331500D01*
X127647928Y-112331500D01*
X127647928Y-114236500D01*
X127660188Y-114360982D01*
X127696498Y-114480680D01*
X127755463Y-114590994D01*
X127834815Y-114687685D01*
X127931506Y-114767037D01*
X128041820Y-114826002D01*
X128161518Y-114862312D01*
X128286000Y-114874572D01*
X130286000Y-114874572D01*
X130410482Y-114862312D01*
X130530180Y-114826002D01*
X130640494Y-114767037D01*
X130737185Y-114687685D01*
X130816537Y-114590994D01*
X130875502Y-114480680D01*
X130911812Y-114360982D01*
X130924072Y-114236500D01*
X130924072Y-114196702D01*
X131774903Y-114196702D01*
X131846486Y-114440671D01*
X132101996Y-114561571D01*
X132376184Y-114630300D01*
X132658512Y-114644217D01*
X132938130Y-114602787D01*
X133204292Y-114507603D01*
X133329514Y-114440671D01*
X133401097Y-114196702D01*
X132588000Y-113383605D01*
X131774903Y-114196702D01*
X130924072Y-114196702D01*
X130924072Y-113274512D01*
X131147783Y-113274512D01*
X131189213Y-113554130D01*
X131284397Y-113820292D01*
X131351329Y-113945514D01*
X131595298Y-114017097D01*
X132408395Y-113204000D01*
X132767605Y-113204000D01*
X133580702Y-114017097D01*
X133824671Y-113945514D01*
X133945571Y-113690004D01*
X134014300Y-113415816D01*
X134028217Y-113133488D01*
X133999692Y-112940967D01*
X146551000Y-112940967D01*
X146551000Y-113263033D01*
X146613832Y-113578912D01*
X146737082Y-113876463D01*
X146916013Y-114144252D01*
X147143748Y-114371987D01*
X147411537Y-114550918D01*
X147709088Y-114674168D01*
X148024967Y-114737000D01*
X148347033Y-114737000D01*
X148662912Y-114674168D01*
X148960463Y-114550918D01*
X149228252Y-114371987D01*
X149455987Y-114144252D01*
X149634918Y-113876463D01*
X149758168Y-113578912D01*
X149821000Y-113263033D01*
X149821000Y-112940967D01*
X153051000Y-112940967D01*
X153051000Y-113263033D01*
X153113832Y-113578912D01*
X153237082Y-113876463D01*
X153416013Y-114144252D01*
X153643748Y-114371987D01*
X153911537Y-114550918D01*
X154209088Y-114674168D01*
X154524967Y-114737000D01*
X154847033Y-114737000D01*
X155162912Y-114674168D01*
X155460463Y-114550918D01*
X155728252Y-114371987D01*
X155955987Y-114144252D01*
X156134918Y-113876463D01*
X156258168Y-113578912D01*
X156321000Y-113263033D01*
X156321000Y-112940967D01*
X169665000Y-112940967D01*
X169665000Y-113263033D01*
X169727832Y-113578912D01*
X169851082Y-113876463D01*
X170030013Y-114144252D01*
X170257748Y-114371987D01*
X170525537Y-114550918D01*
X170823088Y-114674168D01*
X171138967Y-114737000D01*
X171461033Y-114737000D01*
X171776912Y-114674168D01*
X172074463Y-114550918D01*
X172342252Y-114371987D01*
X172569987Y-114144252D01*
X172748918Y-113876463D01*
X172872168Y-113578912D01*
X172935000Y-113263033D01*
X172935000Y-112940967D01*
X176165000Y-112940967D01*
X176165000Y-113263033D01*
X176227832Y-113578912D01*
X176351082Y-113876463D01*
X176530013Y-114144252D01*
X176757748Y-114371987D01*
X177025537Y-114550918D01*
X177323088Y-114674168D01*
X177638967Y-114737000D01*
X177961033Y-114737000D01*
X178276912Y-114674168D01*
X178574463Y-114550918D01*
X178842252Y-114371987D01*
X179069987Y-114144252D01*
X179248918Y-113876463D01*
X179372168Y-113578912D01*
X179435000Y-113263033D01*
X179435000Y-112940967D01*
X179372168Y-112625088D01*
X179248918Y-112327537D01*
X179069987Y-112059748D01*
X178842252Y-111832013D01*
X178574463Y-111653082D01*
X178276912Y-111529832D01*
X177961033Y-111467000D01*
X177638967Y-111467000D01*
X177323088Y-111529832D01*
X177025537Y-111653082D01*
X176757748Y-111832013D01*
X176530013Y-112059748D01*
X176351082Y-112327537D01*
X176227832Y-112625088D01*
X176165000Y-112940967D01*
X172935000Y-112940967D01*
X172872168Y-112625088D01*
X172748918Y-112327537D01*
X172569987Y-112059748D01*
X172342252Y-111832013D01*
X172074463Y-111653082D01*
X171776912Y-111529832D01*
X171461033Y-111467000D01*
X171138967Y-111467000D01*
X170823088Y-111529832D01*
X170525537Y-111653082D01*
X170257748Y-111832013D01*
X170030013Y-112059748D01*
X169851082Y-112327537D01*
X169727832Y-112625088D01*
X169665000Y-112940967D01*
X156321000Y-112940967D01*
X156258168Y-112625088D01*
X156134918Y-112327537D01*
X155955987Y-112059748D01*
X155728252Y-111832013D01*
X155460463Y-111653082D01*
X155162912Y-111529832D01*
X154847033Y-111467000D01*
X154524967Y-111467000D01*
X154209088Y-111529832D01*
X153911537Y-111653082D01*
X153643748Y-111832013D01*
X153416013Y-112059748D01*
X153237082Y-112327537D01*
X153113832Y-112625088D01*
X153051000Y-112940967D01*
X149821000Y-112940967D01*
X149758168Y-112625088D01*
X149634918Y-112327537D01*
X149455987Y-112059748D01*
X149228252Y-111832013D01*
X148960463Y-111653082D01*
X148662912Y-111529832D01*
X148347033Y-111467000D01*
X148024967Y-111467000D01*
X147709088Y-111529832D01*
X147411537Y-111653082D01*
X147143748Y-111832013D01*
X146916013Y-112059748D01*
X146737082Y-112327537D01*
X146613832Y-112625088D01*
X146551000Y-112940967D01*
X133999692Y-112940967D01*
X133986787Y-112853870D01*
X133891603Y-112587708D01*
X133824671Y-112462486D01*
X133580702Y-112390903D01*
X132767605Y-113204000D01*
X132408395Y-113204000D01*
X131595298Y-112390903D01*
X131351329Y-112462486D01*
X131230429Y-112717996D01*
X131161700Y-112992184D01*
X131147783Y-113274512D01*
X130924072Y-113274512D01*
X130924072Y-112331500D01*
X130912234Y-112211298D01*
X131774903Y-112211298D01*
X132588000Y-113024395D01*
X133401097Y-112211298D01*
X133329514Y-111967329D01*
X133074004Y-111846429D01*
X132799816Y-111777700D01*
X132517488Y-111763783D01*
X132237870Y-111805213D01*
X131971708Y-111900397D01*
X131846486Y-111967329D01*
X131774903Y-112211298D01*
X130912234Y-112211298D01*
X130911812Y-112207018D01*
X130875502Y-112087320D01*
X130816537Y-111977006D01*
X130737185Y-111880315D01*
X130640494Y-111800963D01*
X130548781Y-111751941D01*
X130661969Y-111610923D01*
X130805571Y-111335094D01*
X130876563Y-111116980D01*
X130756594Y-110871000D01*
X129413000Y-110871000D01*
X129413000Y-110891000D01*
X129159000Y-110891000D01*
X129159000Y-110871000D01*
X127815406Y-110871000D01*
X127695437Y-111116980D01*
X127766429Y-111335094D01*
X127910031Y-111610923D01*
X128023219Y-111751941D01*
X127931506Y-111800963D01*
X127834815Y-111880315D01*
X127755463Y-111977006D01*
X127696498Y-112087320D01*
X127660188Y-112207018D01*
X127647928Y-112331500D01*
X117060000Y-112331500D01*
X117060000Y-111054702D01*
X123392903Y-111054702D01*
X123464486Y-111298671D01*
X123719996Y-111419571D01*
X123994184Y-111488300D01*
X124276512Y-111502217D01*
X124556130Y-111460787D01*
X124822292Y-111365603D01*
X124947514Y-111298671D01*
X125019097Y-111054702D01*
X124206000Y-110241605D01*
X123392903Y-111054702D01*
X117060000Y-111054702D01*
X117060000Y-110132512D01*
X122765783Y-110132512D01*
X122807213Y-110412130D01*
X122902397Y-110678292D01*
X122969329Y-110803514D01*
X123213298Y-110875097D01*
X124026395Y-110062000D01*
X124385605Y-110062000D01*
X125198702Y-110875097D01*
X125442671Y-110803514D01*
X125563571Y-110548004D01*
X125632300Y-110273816D01*
X125646217Y-109991488D01*
X125604787Y-109711870D01*
X125509603Y-109445708D01*
X125442671Y-109320486D01*
X125198702Y-109248903D01*
X124385605Y-110062000D01*
X124026395Y-110062000D01*
X123213298Y-109248903D01*
X122969329Y-109320486D01*
X122848429Y-109575996D01*
X122779700Y-109850184D01*
X122765783Y-110132512D01*
X117060000Y-110132512D01*
X117060000Y-107600000D01*
X117261928Y-107600000D01*
X117261928Y-109200000D01*
X117274188Y-109324482D01*
X117310498Y-109444180D01*
X117369463Y-109554494D01*
X117448815Y-109651185D01*
X117545506Y-109730537D01*
X117655820Y-109789502D01*
X117775518Y-109825812D01*
X117900000Y-109838072D01*
X119500000Y-109838072D01*
X119624482Y-109825812D01*
X119744180Y-109789502D01*
X119854494Y-109730537D01*
X119951185Y-109651185D01*
X119961807Y-109638242D01*
X120213996Y-109757571D01*
X120488184Y-109826300D01*
X120770512Y-109840217D01*
X121050130Y-109798787D01*
X121316292Y-109703603D01*
X121441514Y-109636671D01*
X121513097Y-109392702D01*
X120700000Y-108579605D01*
X120685858Y-108593748D01*
X120506253Y-108414143D01*
X120520395Y-108400000D01*
X120879605Y-108400000D01*
X121692702Y-109213097D01*
X121936671Y-109141514D01*
X121970841Y-109069298D01*
X123392903Y-109069298D01*
X124206000Y-109882395D01*
X125019097Y-109069298D01*
X124947514Y-108825329D01*
X124692004Y-108704429D01*
X124417816Y-108635700D01*
X124135488Y-108621783D01*
X123855870Y-108663213D01*
X123589708Y-108758397D01*
X123464486Y-108825329D01*
X123392903Y-109069298D01*
X121970841Y-109069298D01*
X122057571Y-108886004D01*
X122126300Y-108611816D01*
X122140217Y-108329488D01*
X122121624Y-108204000D01*
X127643319Y-108204000D01*
X127673970Y-108515204D01*
X127764745Y-108814449D01*
X127912155Y-109090235D01*
X128110537Y-109331963D01*
X128289899Y-109479163D01*
X128104685Y-109634563D01*
X127910031Y-109877077D01*
X127766429Y-110152906D01*
X127695437Y-110371020D01*
X127815406Y-110617000D01*
X129159000Y-110617000D01*
X129159000Y-110597000D01*
X129413000Y-110597000D01*
X129413000Y-110617000D01*
X130756594Y-110617000D01*
X130876563Y-110371020D01*
X130805571Y-110152906D01*
X130661969Y-109877077D01*
X130467315Y-109634563D01*
X130282101Y-109479163D01*
X130461463Y-109331963D01*
X130659845Y-109090235D01*
X130807255Y-108814449D01*
X130898030Y-108515204D01*
X130928681Y-108204000D01*
X130914761Y-108062665D01*
X131153000Y-108062665D01*
X131153000Y-108345335D01*
X131208147Y-108622574D01*
X131316320Y-108883727D01*
X131473363Y-109118759D01*
X131673241Y-109318637D01*
X131908273Y-109475680D01*
X132169426Y-109583853D01*
X132446665Y-109639000D01*
X132729335Y-109639000D01*
X133006574Y-109583853D01*
X133267727Y-109475680D01*
X133502759Y-109318637D01*
X133702637Y-109118759D01*
X133859680Y-108883727D01*
X133967853Y-108622574D01*
X134023000Y-108345335D01*
X134023000Y-108148702D01*
X135838903Y-108148702D01*
X135910486Y-108392671D01*
X136165996Y-108513571D01*
X136440184Y-108582300D01*
X136722512Y-108596217D01*
X137002130Y-108554787D01*
X137268292Y-108459603D01*
X137393514Y-108392671D01*
X137465097Y-108148702D01*
X136652000Y-107335605D01*
X135838903Y-108148702D01*
X134023000Y-108148702D01*
X134023000Y-108062665D01*
X133967853Y-107785426D01*
X133859680Y-107524273D01*
X133702637Y-107289241D01*
X133639908Y-107226512D01*
X135211783Y-107226512D01*
X135253213Y-107506130D01*
X135348397Y-107772292D01*
X135415329Y-107897514D01*
X135659298Y-107969097D01*
X136472395Y-107156000D01*
X136458253Y-107141858D01*
X136637858Y-106962253D01*
X136652000Y-106976395D01*
X136666143Y-106962253D01*
X136845748Y-107141858D01*
X136831605Y-107156000D01*
X137644702Y-107969097D01*
X137888671Y-107897514D01*
X138009571Y-107642004D01*
X138078300Y-107367816D01*
X138092217Y-107085488D01*
X138050787Y-106805870D01*
X137955603Y-106539708D01*
X137890384Y-106417691D01*
X137903185Y-106407185D01*
X137982537Y-106310494D01*
X138041502Y-106200180D01*
X138077812Y-106080482D01*
X138090072Y-105956000D01*
X138090072Y-105780000D01*
X153401928Y-105780000D01*
X153401928Y-107580000D01*
X153414188Y-107704482D01*
X153450498Y-107824180D01*
X153509463Y-107934494D01*
X153588815Y-108031185D01*
X153685506Y-108110537D01*
X153795820Y-108169502D01*
X153915518Y-108205812D01*
X154040000Y-108218072D01*
X155840000Y-108218072D01*
X155964482Y-108205812D01*
X156084180Y-108169502D01*
X156194494Y-108110537D01*
X156291185Y-108031185D01*
X156370537Y-107934494D01*
X156429502Y-107824180D01*
X156435056Y-107805873D01*
X156501495Y-107872312D01*
X156752905Y-108040299D01*
X157032257Y-108156011D01*
X157328816Y-108215000D01*
X157631184Y-108215000D01*
X157927743Y-108156011D01*
X158207095Y-108040299D01*
X158458505Y-107872312D01*
X158672312Y-107658505D01*
X158840299Y-107407095D01*
X158956011Y-107127743D01*
X159015000Y-106831184D01*
X159015000Y-106538665D01*
X162395000Y-106538665D01*
X162395000Y-106821335D01*
X162450147Y-107098574D01*
X162558320Y-107359727D01*
X162715363Y-107594759D01*
X162915241Y-107794637D01*
X163150273Y-107951680D01*
X163411426Y-108059853D01*
X163688665Y-108115000D01*
X163971335Y-108115000D01*
X164248574Y-108059853D01*
X164509727Y-107951680D01*
X164744759Y-107794637D01*
X164944637Y-107594759D01*
X165101680Y-107359727D01*
X165209853Y-107098574D01*
X165265000Y-106821335D01*
X165265000Y-106538665D01*
X170015000Y-106538665D01*
X170015000Y-106821335D01*
X170070147Y-107098574D01*
X170178320Y-107359727D01*
X170335363Y-107594759D01*
X170535241Y-107794637D01*
X170770273Y-107951680D01*
X171031426Y-108059853D01*
X171308665Y-108115000D01*
X171591335Y-108115000D01*
X171868574Y-108059853D01*
X172129727Y-107951680D01*
X172364759Y-107794637D01*
X172564637Y-107594759D01*
X172721680Y-107359727D01*
X172829853Y-107098574D01*
X172885000Y-106821335D01*
X172885000Y-106538665D01*
X172829853Y-106261426D01*
X172721680Y-106000273D01*
X172564637Y-105765241D01*
X172364759Y-105565363D01*
X172129727Y-105408320D01*
X171868574Y-105300147D01*
X171591335Y-105245000D01*
X171308665Y-105245000D01*
X171031426Y-105300147D01*
X170770273Y-105408320D01*
X170535241Y-105565363D01*
X170335363Y-105765241D01*
X170178320Y-106000273D01*
X170070147Y-106261426D01*
X170015000Y-106538665D01*
X165265000Y-106538665D01*
X165209853Y-106261426D01*
X165101680Y-106000273D01*
X164944637Y-105765241D01*
X164744759Y-105565363D01*
X164509727Y-105408320D01*
X164248574Y-105300147D01*
X163971335Y-105245000D01*
X163688665Y-105245000D01*
X163411426Y-105300147D01*
X163150273Y-105408320D01*
X162915241Y-105565363D01*
X162715363Y-105765241D01*
X162558320Y-106000273D01*
X162450147Y-106261426D01*
X162395000Y-106538665D01*
X159015000Y-106538665D01*
X159015000Y-106528816D01*
X158956011Y-106232257D01*
X158840299Y-105952905D01*
X158672312Y-105701495D01*
X158458505Y-105487688D01*
X158207095Y-105319701D01*
X157927743Y-105203989D01*
X157631184Y-105145000D01*
X157328816Y-105145000D01*
X157032257Y-105203989D01*
X156752905Y-105319701D01*
X156501495Y-105487688D01*
X156435056Y-105554127D01*
X156429502Y-105535820D01*
X156370537Y-105425506D01*
X156291185Y-105328815D01*
X156194494Y-105249463D01*
X156084180Y-105190498D01*
X155964482Y-105154188D01*
X155840000Y-105141928D01*
X154040000Y-105141928D01*
X153915518Y-105154188D01*
X153795820Y-105190498D01*
X153685506Y-105249463D01*
X153588815Y-105328815D01*
X153509463Y-105425506D01*
X153450498Y-105535820D01*
X153414188Y-105655518D01*
X153401928Y-105780000D01*
X138090072Y-105780000D01*
X138090072Y-104356000D01*
X138077812Y-104231518D01*
X138041502Y-104111820D01*
X137982537Y-104001506D01*
X137903185Y-103904815D01*
X137806494Y-103825463D01*
X137696180Y-103766498D01*
X137576482Y-103730188D01*
X137452000Y-103717928D01*
X135852000Y-103717928D01*
X135727518Y-103730188D01*
X135607820Y-103766498D01*
X135497506Y-103825463D01*
X135400815Y-103904815D01*
X135321463Y-104001506D01*
X135262498Y-104111820D01*
X135226188Y-104231518D01*
X135213928Y-104356000D01*
X135213928Y-105956000D01*
X135226188Y-106080482D01*
X135262498Y-106200180D01*
X135321463Y-106310494D01*
X135400815Y-106407185D01*
X135413758Y-106417807D01*
X135294429Y-106669996D01*
X135225700Y-106944184D01*
X135211783Y-107226512D01*
X133639908Y-107226512D01*
X133502759Y-107089363D01*
X133267727Y-106932320D01*
X133006574Y-106824147D01*
X132729335Y-106769000D01*
X132446665Y-106769000D01*
X132169426Y-106824147D01*
X131908273Y-106932320D01*
X131673241Y-107089363D01*
X131473363Y-107289241D01*
X131316320Y-107524273D01*
X131208147Y-107785426D01*
X131153000Y-108062665D01*
X130914761Y-108062665D01*
X130898030Y-107892796D01*
X130807255Y-107593551D01*
X130659845Y-107317765D01*
X130461463Y-107076037D01*
X130219735Y-106877655D01*
X129943949Y-106730245D01*
X129644704Y-106639470D01*
X129411486Y-106616500D01*
X129160514Y-106616500D01*
X128927296Y-106639470D01*
X128628051Y-106730245D01*
X128352265Y-106877655D01*
X128110537Y-107076037D01*
X127912155Y-107317765D01*
X127764745Y-107593551D01*
X127673970Y-107892796D01*
X127643319Y-108204000D01*
X122121624Y-108204000D01*
X122098787Y-108049870D01*
X122003603Y-107783708D01*
X121936671Y-107658486D01*
X121692702Y-107586903D01*
X120879605Y-108400000D01*
X120520395Y-108400000D01*
X120506253Y-108385858D01*
X120685858Y-108206253D01*
X120700000Y-108220395D01*
X121513097Y-107407298D01*
X121441514Y-107163329D01*
X121186004Y-107042429D01*
X120911816Y-106973700D01*
X120629488Y-106959783D01*
X120349870Y-107001213D01*
X120083708Y-107096397D01*
X119961691Y-107161616D01*
X119951185Y-107148815D01*
X119854494Y-107069463D01*
X119744180Y-107010498D01*
X119624482Y-106974188D01*
X119500000Y-106961928D01*
X117900000Y-106961928D01*
X117775518Y-106974188D01*
X117655820Y-107010498D01*
X117545506Y-107069463D01*
X117448815Y-107148815D01*
X117369463Y-107245506D01*
X117310498Y-107355820D01*
X117274188Y-107475518D01*
X117261928Y-107600000D01*
X117060000Y-107600000D01*
X117060000Y-100600000D01*
X117061928Y-100600000D01*
X117061928Y-102400000D01*
X117074188Y-102524482D01*
X117110498Y-102644180D01*
X117169463Y-102754494D01*
X117248815Y-102851185D01*
X117345506Y-102930537D01*
X117455820Y-102989502D01*
X117575518Y-103025812D01*
X117700000Y-103038072D01*
X119500000Y-103038072D01*
X119624482Y-103025812D01*
X119744180Y-102989502D01*
X119854494Y-102930537D01*
X119951185Y-102851185D01*
X120030537Y-102754494D01*
X120089502Y-102644180D01*
X120125812Y-102524482D01*
X120138072Y-102400000D01*
X120138072Y-101348816D01*
X124685000Y-101348816D01*
X124685000Y-101651184D01*
X124743989Y-101947743D01*
X124859701Y-102227095D01*
X125027688Y-102478505D01*
X125241495Y-102692312D01*
X125492905Y-102860299D01*
X125772257Y-102976011D01*
X126068816Y-103035000D01*
X126371184Y-103035000D01*
X126667743Y-102976011D01*
X126947095Y-102860299D01*
X127198505Y-102692312D01*
X127412312Y-102478505D01*
X127580299Y-102227095D01*
X127666081Y-102020000D01*
X160436928Y-102020000D01*
X160436928Y-103720000D01*
X160449188Y-103844482D01*
X160485498Y-103964180D01*
X160544463Y-104074494D01*
X160623815Y-104171185D01*
X160720506Y-104250537D01*
X160830820Y-104309502D01*
X160950518Y-104345812D01*
X161075000Y-104358072D01*
X162775000Y-104358072D01*
X162899482Y-104345812D01*
X163019180Y-104309502D01*
X163129494Y-104250537D01*
X163226185Y-104171185D01*
X163305537Y-104074494D01*
X163364502Y-103964180D01*
X163386513Y-103891620D01*
X163518368Y-104023475D01*
X163761589Y-104185990D01*
X164031842Y-104297932D01*
X164318740Y-104355000D01*
X164611260Y-104355000D01*
X164898158Y-104297932D01*
X165168411Y-104185990D01*
X165411632Y-104023475D01*
X165618475Y-103816632D01*
X165780990Y-103573411D01*
X165892932Y-103303158D01*
X165950000Y-103016260D01*
X165950000Y-102723740D01*
X165892932Y-102436842D01*
X165780990Y-102166589D01*
X165618475Y-101923368D01*
X165411632Y-101716525D01*
X165168411Y-101554010D01*
X164898158Y-101442068D01*
X164611260Y-101385000D01*
X164318740Y-101385000D01*
X164031842Y-101442068D01*
X163761589Y-101554010D01*
X163518368Y-101716525D01*
X163386513Y-101848380D01*
X163364502Y-101775820D01*
X163305537Y-101665506D01*
X163226185Y-101568815D01*
X163129494Y-101489463D01*
X163019180Y-101430498D01*
X162899482Y-101394188D01*
X162775000Y-101381928D01*
X161075000Y-101381928D01*
X160950518Y-101394188D01*
X160830820Y-101430498D01*
X160720506Y-101489463D01*
X160623815Y-101568815D01*
X160544463Y-101665506D01*
X160485498Y-101775820D01*
X160449188Y-101895518D01*
X160436928Y-102020000D01*
X127666081Y-102020000D01*
X127696011Y-101947743D01*
X127755000Y-101651184D01*
X127755000Y-101348816D01*
X127696011Y-101052257D01*
X127580299Y-100772905D01*
X127412312Y-100521495D01*
X127198505Y-100307688D01*
X126947095Y-100139701D01*
X126667743Y-100023989D01*
X126371184Y-99965000D01*
X126068816Y-99965000D01*
X125772257Y-100023989D01*
X125492905Y-100139701D01*
X125241495Y-100307688D01*
X125027688Y-100521495D01*
X124859701Y-100772905D01*
X124743989Y-101052257D01*
X124685000Y-101348816D01*
X120138072Y-101348816D01*
X120138072Y-100600000D01*
X120125812Y-100475518D01*
X120089502Y-100355820D01*
X120030537Y-100245506D01*
X119951185Y-100148815D01*
X119854494Y-100069463D01*
X119744180Y-100010498D01*
X119624482Y-99974188D01*
X119500000Y-99961928D01*
X117700000Y-99961928D01*
X117575518Y-99974188D01*
X117455820Y-100010498D01*
X117345506Y-100069463D01*
X117248815Y-100148815D01*
X117169463Y-100245506D01*
X117110498Y-100355820D01*
X117074188Y-100475518D01*
X117061928Y-100600000D01*
X117060000Y-100600000D01*
X117060000Y-98156665D01*
X135217000Y-98156665D01*
X135217000Y-98439335D01*
X135272147Y-98716574D01*
X135380320Y-98977727D01*
X135537363Y-99212759D01*
X135737241Y-99412637D01*
X135972273Y-99569680D01*
X136233426Y-99677853D01*
X136510665Y-99733000D01*
X136793335Y-99733000D01*
X137070574Y-99677853D01*
X137331727Y-99569680D01*
X137566759Y-99412637D01*
X137766637Y-99212759D01*
X137923680Y-98977727D01*
X138031853Y-98716574D01*
X138087000Y-98439335D01*
X138087000Y-98283665D01*
X153505000Y-98283665D01*
X153505000Y-98566335D01*
X153560147Y-98843574D01*
X153668320Y-99104727D01*
X153825363Y-99339759D01*
X154025241Y-99539637D01*
X154260273Y-99696680D01*
X154521426Y-99804853D01*
X154798665Y-99860000D01*
X155081335Y-99860000D01*
X155358574Y-99804853D01*
X155619727Y-99696680D01*
X155854759Y-99539637D01*
X156054637Y-99339759D01*
X156211680Y-99104727D01*
X156319853Y-98843574D01*
X156375000Y-98566335D01*
X156375000Y-98283665D01*
X161125000Y-98283665D01*
X161125000Y-98566335D01*
X161180147Y-98843574D01*
X161288320Y-99104727D01*
X161445363Y-99339759D01*
X161645241Y-99539637D01*
X161880273Y-99696680D01*
X162141426Y-99804853D01*
X162418665Y-99860000D01*
X162701335Y-99860000D01*
X162978574Y-99804853D01*
X163239727Y-99696680D01*
X163474759Y-99539637D01*
X163674637Y-99339759D01*
X163831680Y-99104727D01*
X163939853Y-98843574D01*
X163995000Y-98566335D01*
X163995000Y-98283665D01*
X163993041Y-98273816D01*
X167375000Y-98273816D01*
X167375000Y-98576184D01*
X167433989Y-98872743D01*
X167549701Y-99152095D01*
X167717688Y-99403505D01*
X167931495Y-99617312D01*
X168182905Y-99785299D01*
X168462257Y-99901011D01*
X168758816Y-99960000D01*
X169061184Y-99960000D01*
X169357743Y-99901011D01*
X169637095Y-99785299D01*
X169888505Y-99617312D01*
X169954944Y-99550873D01*
X169960498Y-99569180D01*
X170019463Y-99679494D01*
X170098815Y-99776185D01*
X170195506Y-99855537D01*
X170305820Y-99914502D01*
X170425518Y-99950812D01*
X170550000Y-99963072D01*
X172350000Y-99963072D01*
X172474482Y-99950812D01*
X172594180Y-99914502D01*
X172704494Y-99855537D01*
X172801185Y-99776185D01*
X172880537Y-99679494D01*
X172939502Y-99569180D01*
X172975812Y-99449482D01*
X172988072Y-99325000D01*
X172988072Y-97525000D01*
X172975812Y-97400518D01*
X172939502Y-97280820D01*
X172880537Y-97170506D01*
X172801185Y-97073815D01*
X172704494Y-96994463D01*
X172594180Y-96935498D01*
X172474482Y-96899188D01*
X172350000Y-96886928D01*
X170550000Y-96886928D01*
X170425518Y-96899188D01*
X170305820Y-96935498D01*
X170195506Y-96994463D01*
X170098815Y-97073815D01*
X170019463Y-97170506D01*
X169960498Y-97280820D01*
X169954944Y-97299127D01*
X169888505Y-97232688D01*
X169637095Y-97064701D01*
X169357743Y-96948989D01*
X169061184Y-96890000D01*
X168758816Y-96890000D01*
X168462257Y-96948989D01*
X168182905Y-97064701D01*
X167931495Y-97232688D01*
X167717688Y-97446495D01*
X167549701Y-97697905D01*
X167433989Y-97977257D01*
X167375000Y-98273816D01*
X163993041Y-98273816D01*
X163939853Y-98006426D01*
X163831680Y-97745273D01*
X163674637Y-97510241D01*
X163474759Y-97310363D01*
X163239727Y-97153320D01*
X162978574Y-97045147D01*
X162701335Y-96990000D01*
X162418665Y-96990000D01*
X162141426Y-97045147D01*
X161880273Y-97153320D01*
X161645241Y-97310363D01*
X161445363Y-97510241D01*
X161288320Y-97745273D01*
X161180147Y-98006426D01*
X161125000Y-98283665D01*
X156375000Y-98283665D01*
X156319853Y-98006426D01*
X156211680Y-97745273D01*
X156054637Y-97510241D01*
X155854759Y-97310363D01*
X155619727Y-97153320D01*
X155358574Y-97045147D01*
X155081335Y-96990000D01*
X154798665Y-96990000D01*
X154521426Y-97045147D01*
X154260273Y-97153320D01*
X154025241Y-97310363D01*
X153825363Y-97510241D01*
X153668320Y-97745273D01*
X153560147Y-98006426D01*
X153505000Y-98283665D01*
X138087000Y-98283665D01*
X138087000Y-98156665D01*
X138031853Y-97879426D01*
X137923680Y-97618273D01*
X137766637Y-97383241D01*
X137566759Y-97183363D01*
X137331727Y-97026320D01*
X137070574Y-96918147D01*
X136793335Y-96863000D01*
X136510665Y-96863000D01*
X136233426Y-96918147D01*
X135972273Y-97026320D01*
X135737241Y-97183363D01*
X135537363Y-97383241D01*
X135380320Y-97618273D01*
X135272147Y-97879426D01*
X135217000Y-98156665D01*
X117060000Y-98156665D01*
X117060000Y-95548865D01*
X118079782Y-95548865D01*
X118110095Y-95674528D01*
X118238304Y-95967205D01*
X118421148Y-96229246D01*
X118651601Y-96450581D01*
X118920806Y-96622704D01*
X119218418Y-96739000D01*
X119533000Y-96795000D01*
X120523000Y-96795000D01*
X120523000Y-95297000D01*
X120777000Y-95297000D01*
X120777000Y-96795000D01*
X121767000Y-96795000D01*
X122081582Y-96739000D01*
X122379194Y-96622704D01*
X122648399Y-96450581D01*
X122878852Y-96229246D01*
X123061696Y-95967205D01*
X123189905Y-95674528D01*
X123220218Y-95548865D01*
X123100740Y-95297000D01*
X120777000Y-95297000D01*
X120523000Y-95297000D01*
X118199260Y-95297000D01*
X118079782Y-95548865D01*
X117060000Y-95548865D01*
X117060000Y-94791135D01*
X118079782Y-94791135D01*
X118199260Y-95043000D01*
X120523000Y-95043000D01*
X120523000Y-93545000D01*
X120777000Y-93545000D01*
X120777000Y-95043000D01*
X123100740Y-95043000D01*
X123220218Y-94791135D01*
X123189905Y-94665472D01*
X123061696Y-94372795D01*
X122878852Y-94110754D01*
X122648399Y-93889419D01*
X122379194Y-93717296D01*
X122081582Y-93601000D01*
X121767000Y-93545000D01*
X120777000Y-93545000D01*
X120523000Y-93545000D01*
X119533000Y-93545000D01*
X119218418Y-93601000D01*
X118920806Y-93717296D01*
X118651601Y-93889419D01*
X118421148Y-94110754D01*
X118238304Y-94372795D01*
X118110095Y-94665472D01*
X118079782Y-94791135D01*
X117060000Y-94791135D01*
X117060000Y-92294967D01*
X146551000Y-92294967D01*
X146551000Y-92617033D01*
X146613832Y-92932912D01*
X146737082Y-93230463D01*
X146916013Y-93498252D01*
X147143748Y-93725987D01*
X147411537Y-93904918D01*
X147709088Y-94028168D01*
X148024967Y-94091000D01*
X148347033Y-94091000D01*
X148662912Y-94028168D01*
X148960463Y-93904918D01*
X149228252Y-93725987D01*
X149455987Y-93498252D01*
X149634918Y-93230463D01*
X149758168Y-92932912D01*
X149821000Y-92617033D01*
X149821000Y-92294967D01*
X153051000Y-92294967D01*
X153051000Y-92617033D01*
X153113832Y-92932912D01*
X153237082Y-93230463D01*
X153416013Y-93498252D01*
X153643748Y-93725987D01*
X153911537Y-93904918D01*
X154209088Y-94028168D01*
X154524967Y-94091000D01*
X154847033Y-94091000D01*
X155162912Y-94028168D01*
X155460463Y-93904918D01*
X155728252Y-93725987D01*
X155955987Y-93498252D01*
X156134918Y-93230463D01*
X156258168Y-92932912D01*
X156321000Y-92617033D01*
X156321000Y-92294967D01*
X169665000Y-92294967D01*
X169665000Y-92617033D01*
X169727832Y-92932912D01*
X169851082Y-93230463D01*
X170030013Y-93498252D01*
X170257748Y-93725987D01*
X170525537Y-93904918D01*
X170823088Y-94028168D01*
X171138967Y-94091000D01*
X171461033Y-94091000D01*
X171776912Y-94028168D01*
X172074463Y-93904918D01*
X172342252Y-93725987D01*
X172569987Y-93498252D01*
X172748918Y-93230463D01*
X172872168Y-92932912D01*
X172935000Y-92617033D01*
X172935000Y-92294967D01*
X176165000Y-92294967D01*
X176165000Y-92617033D01*
X176227832Y-92932912D01*
X176351082Y-93230463D01*
X176530013Y-93498252D01*
X176757748Y-93725987D01*
X177025537Y-93904918D01*
X177323088Y-94028168D01*
X177638967Y-94091000D01*
X177961033Y-94091000D01*
X178276912Y-94028168D01*
X178574463Y-93904918D01*
X178842252Y-93725987D01*
X179069987Y-93498252D01*
X179248918Y-93230463D01*
X179372168Y-92932912D01*
X179435000Y-92617033D01*
X179435000Y-92294967D01*
X179372168Y-91979088D01*
X179248918Y-91681537D01*
X179069987Y-91413748D01*
X178842252Y-91186013D01*
X178574463Y-91007082D01*
X178276912Y-90883832D01*
X177961033Y-90821000D01*
X177638967Y-90821000D01*
X177323088Y-90883832D01*
X177025537Y-91007082D01*
X176757748Y-91186013D01*
X176530013Y-91413748D01*
X176351082Y-91681537D01*
X176227832Y-91979088D01*
X176165000Y-92294967D01*
X172935000Y-92294967D01*
X172872168Y-91979088D01*
X172748918Y-91681537D01*
X172569987Y-91413748D01*
X172342252Y-91186013D01*
X172074463Y-91007082D01*
X171776912Y-90883832D01*
X171461033Y-90821000D01*
X171138967Y-90821000D01*
X170823088Y-90883832D01*
X170525537Y-91007082D01*
X170257748Y-91186013D01*
X170030013Y-91413748D01*
X169851082Y-91681537D01*
X169727832Y-91979088D01*
X169665000Y-92294967D01*
X156321000Y-92294967D01*
X156258168Y-91979088D01*
X156134918Y-91681537D01*
X155955987Y-91413748D01*
X155728252Y-91186013D01*
X155460463Y-91007082D01*
X155162912Y-90883832D01*
X154847033Y-90821000D01*
X154524967Y-90821000D01*
X154209088Y-90883832D01*
X153911537Y-91007082D01*
X153643748Y-91186013D01*
X153416013Y-91413748D01*
X153237082Y-91681537D01*
X153113832Y-91979088D01*
X153051000Y-92294967D01*
X149821000Y-92294967D01*
X149758168Y-91979088D01*
X149634918Y-91681537D01*
X149455987Y-91413748D01*
X149228252Y-91186013D01*
X148960463Y-91007082D01*
X148662912Y-90883832D01*
X148347033Y-90821000D01*
X148024967Y-90821000D01*
X147709088Y-90883832D01*
X147411537Y-91007082D01*
X147143748Y-91186013D01*
X146916013Y-91413748D01*
X146737082Y-91681537D01*
X146613832Y-91979088D01*
X146551000Y-92294967D01*
X117060000Y-92294967D01*
X117060000Y-89180000D01*
X118031928Y-89180000D01*
X118031928Y-91160000D01*
X118044188Y-91284482D01*
X118080498Y-91404180D01*
X118139463Y-91514494D01*
X118218815Y-91611185D01*
X118315506Y-91690537D01*
X118425820Y-91749502D01*
X118545518Y-91785812D01*
X118670000Y-91798072D01*
X122630000Y-91798072D01*
X122754482Y-91785812D01*
X122874180Y-91749502D01*
X122984494Y-91690537D01*
X123081185Y-91611185D01*
X123160537Y-91514494D01*
X123219502Y-91404180D01*
X123255812Y-91284482D01*
X123268072Y-91160000D01*
X123268072Y-89180000D01*
X123255812Y-89055518D01*
X123219502Y-88935820D01*
X123160537Y-88825506D01*
X123081185Y-88728815D01*
X122984494Y-88649463D01*
X122874180Y-88590498D01*
X122754482Y-88554188D01*
X122630000Y-88541928D01*
X118670000Y-88541928D01*
X118545518Y-88554188D01*
X118425820Y-88590498D01*
X118315506Y-88649463D01*
X118218815Y-88728815D01*
X118139463Y-88825506D01*
X118080498Y-88935820D01*
X118044188Y-89055518D01*
X118031928Y-89180000D01*
X117060000Y-89180000D01*
X117060000Y-87996665D01*
X135217000Y-87996665D01*
X135217000Y-88279335D01*
X135272147Y-88556574D01*
X135380320Y-88817727D01*
X135537363Y-89052759D01*
X135737241Y-89252637D01*
X135972273Y-89409680D01*
X136233426Y-89517853D01*
X136510665Y-89573000D01*
X136793335Y-89573000D01*
X137070574Y-89517853D01*
X137331727Y-89409680D01*
X137566759Y-89252637D01*
X137766637Y-89052759D01*
X137923680Y-88817727D01*
X138031853Y-88556574D01*
X138087000Y-88279335D01*
X138087000Y-87996665D01*
X138046880Y-87794967D01*
X146551000Y-87794967D01*
X146551000Y-88117033D01*
X146613832Y-88432912D01*
X146737082Y-88730463D01*
X146916013Y-88998252D01*
X147143748Y-89225987D01*
X147411537Y-89404918D01*
X147709088Y-89528168D01*
X148024967Y-89591000D01*
X148347033Y-89591000D01*
X148662912Y-89528168D01*
X148960463Y-89404918D01*
X149228252Y-89225987D01*
X149455987Y-88998252D01*
X149634918Y-88730463D01*
X149758168Y-88432912D01*
X149821000Y-88117033D01*
X149821000Y-87794967D01*
X153051000Y-87794967D01*
X153051000Y-88117033D01*
X153113832Y-88432912D01*
X153237082Y-88730463D01*
X153416013Y-88998252D01*
X153643748Y-89225987D01*
X153911537Y-89404918D01*
X154209088Y-89528168D01*
X154524967Y-89591000D01*
X154847033Y-89591000D01*
X155162912Y-89528168D01*
X155460463Y-89404918D01*
X155728252Y-89225987D01*
X155955987Y-88998252D01*
X156134918Y-88730463D01*
X156258168Y-88432912D01*
X156321000Y-88117033D01*
X156321000Y-87794967D01*
X169665000Y-87794967D01*
X169665000Y-88117033D01*
X169727832Y-88432912D01*
X169851082Y-88730463D01*
X170030013Y-88998252D01*
X170257748Y-89225987D01*
X170525537Y-89404918D01*
X170823088Y-89528168D01*
X171138967Y-89591000D01*
X171461033Y-89591000D01*
X171776912Y-89528168D01*
X172074463Y-89404918D01*
X172342252Y-89225987D01*
X172569987Y-88998252D01*
X172748918Y-88730463D01*
X172872168Y-88432912D01*
X172935000Y-88117033D01*
X172935000Y-87794967D01*
X176165000Y-87794967D01*
X176165000Y-88117033D01*
X176227832Y-88432912D01*
X176351082Y-88730463D01*
X176530013Y-88998252D01*
X176757748Y-89225987D01*
X177025537Y-89404918D01*
X177323088Y-89528168D01*
X177638967Y-89591000D01*
X177961033Y-89591000D01*
X178276912Y-89528168D01*
X178574463Y-89404918D01*
X178842252Y-89225987D01*
X179069987Y-88998252D01*
X179248918Y-88730463D01*
X179372168Y-88432912D01*
X179435000Y-88117033D01*
X179435000Y-87794967D01*
X179372168Y-87479088D01*
X179248918Y-87181537D01*
X179069987Y-86913748D01*
X178842252Y-86686013D01*
X178574463Y-86507082D01*
X178276912Y-86383832D01*
X177961033Y-86321000D01*
X177638967Y-86321000D01*
X177323088Y-86383832D01*
X177025537Y-86507082D01*
X176757748Y-86686013D01*
X176530013Y-86913748D01*
X176351082Y-87181537D01*
X176227832Y-87479088D01*
X176165000Y-87794967D01*
X172935000Y-87794967D01*
X172872168Y-87479088D01*
X172748918Y-87181537D01*
X172569987Y-86913748D01*
X172342252Y-86686013D01*
X172074463Y-86507082D01*
X171776912Y-86383832D01*
X171461033Y-86321000D01*
X171138967Y-86321000D01*
X170823088Y-86383832D01*
X170525537Y-86507082D01*
X170257748Y-86686013D01*
X170030013Y-86913748D01*
X169851082Y-87181537D01*
X169727832Y-87479088D01*
X169665000Y-87794967D01*
X156321000Y-87794967D01*
X156258168Y-87479088D01*
X156134918Y-87181537D01*
X155955987Y-86913748D01*
X155728252Y-86686013D01*
X155460463Y-86507082D01*
X155162912Y-86383832D01*
X154847033Y-86321000D01*
X154524967Y-86321000D01*
X154209088Y-86383832D01*
X153911537Y-86507082D01*
X153643748Y-86686013D01*
X153416013Y-86913748D01*
X153237082Y-87181537D01*
X153113832Y-87479088D01*
X153051000Y-87794967D01*
X149821000Y-87794967D01*
X149758168Y-87479088D01*
X149634918Y-87181537D01*
X149455987Y-86913748D01*
X149228252Y-86686013D01*
X148960463Y-86507082D01*
X148662912Y-86383832D01*
X148347033Y-86321000D01*
X148024967Y-86321000D01*
X147709088Y-86383832D01*
X147411537Y-86507082D01*
X147143748Y-86686013D01*
X146916013Y-86913748D01*
X146737082Y-87181537D01*
X146613832Y-87479088D01*
X146551000Y-87794967D01*
X138046880Y-87794967D01*
X138031853Y-87719426D01*
X137923680Y-87458273D01*
X137766637Y-87223241D01*
X137566759Y-87023363D01*
X137331727Y-86866320D01*
X137070574Y-86758147D01*
X136793335Y-86703000D01*
X136510665Y-86703000D01*
X136233426Y-86758147D01*
X135972273Y-86866320D01*
X135737241Y-87023363D01*
X135537363Y-87223241D01*
X135380320Y-87458273D01*
X135272147Y-87719426D01*
X135217000Y-87996665D01*
X117060000Y-87996665D01*
X117060000Y-80876521D01*
X117130979Y-80876521D01*
X117130979Y-81323479D01*
X117218176Y-81761849D01*
X117389220Y-82174785D01*
X117637536Y-82546417D01*
X117953583Y-82862464D01*
X118325215Y-83110780D01*
X118738151Y-83281824D01*
X119176521Y-83369021D01*
X119623479Y-83369021D01*
X120061849Y-83281824D01*
X120474785Y-83110780D01*
X120846417Y-82862464D01*
X121162464Y-82546417D01*
X121410780Y-82174785D01*
X121581824Y-81761849D01*
X121669021Y-81323479D01*
X121669021Y-80876521D01*
X183130979Y-80876521D01*
X183130979Y-81323479D01*
X183218176Y-81761849D01*
X183389220Y-82174785D01*
X183637536Y-82546417D01*
X183953583Y-82862464D01*
X184325215Y-83110780D01*
X184738151Y-83281824D01*
X185176521Y-83369021D01*
X185623479Y-83369021D01*
X186061849Y-83281824D01*
X186474785Y-83110780D01*
X186846417Y-82862464D01*
X187162464Y-82546417D01*
X187410780Y-82174785D01*
X187581824Y-81761849D01*
X187669021Y-81323479D01*
X187669021Y-80876521D01*
X187581824Y-80438151D01*
X187410780Y-80025215D01*
X187162464Y-79653583D01*
X186846417Y-79337536D01*
X186474785Y-79089220D01*
X186061849Y-78918176D01*
X185623479Y-78830979D01*
X185176521Y-78830979D01*
X184738151Y-78918176D01*
X184325215Y-79089220D01*
X183953583Y-79337536D01*
X183637536Y-79653583D01*
X183389220Y-80025215D01*
X183218176Y-80438151D01*
X183130979Y-80876521D01*
X121669021Y-80876521D01*
X121581824Y-80438151D01*
X121410780Y-80025215D01*
X121162464Y-79653583D01*
X120846417Y-79337536D01*
X120474785Y-79089220D01*
X120061849Y-78918176D01*
X119623479Y-78830979D01*
X119176521Y-78830979D01*
X118738151Y-78918176D01*
X118325215Y-79089220D01*
X117953583Y-79337536D01*
X117637536Y-79653583D01*
X117389220Y-80025215D01*
X117218176Y-80438151D01*
X117130979Y-80876521D01*
X117060000Y-80876521D01*
X117060000Y-78760000D01*
X187740000Y-78760000D01*
X187740001Y-124440000D01*
%TA.AperFunction,Conductor*%
D24*
G36*
X187740001Y-124440000D02*
G01*
X117060000Y-124440000D01*
X117060000Y-121876521D01*
X117130979Y-121876521D01*
X117130979Y-122323479D01*
X117218176Y-122761849D01*
X117389220Y-123174785D01*
X117637536Y-123546417D01*
X117953583Y-123862464D01*
X118325215Y-124110780D01*
X118738151Y-124281824D01*
X119176521Y-124369021D01*
X119623479Y-124369021D01*
X120061849Y-124281824D01*
X120474785Y-124110780D01*
X120846417Y-123862464D01*
X121162464Y-123546417D01*
X121410780Y-123174785D01*
X121581824Y-122761849D01*
X121669021Y-122323479D01*
X121669021Y-121876521D01*
X183130979Y-121876521D01*
X183130979Y-122323479D01*
X183218176Y-122761849D01*
X183389220Y-123174785D01*
X183637536Y-123546417D01*
X183953583Y-123862464D01*
X184325215Y-124110780D01*
X184738151Y-124281824D01*
X185176521Y-124369021D01*
X185623479Y-124369021D01*
X186061849Y-124281824D01*
X186474785Y-124110780D01*
X186846417Y-123862464D01*
X187162464Y-123546417D01*
X187410780Y-123174785D01*
X187581824Y-122761849D01*
X187669021Y-122323479D01*
X187669021Y-121876521D01*
X187581824Y-121438151D01*
X187410780Y-121025215D01*
X187162464Y-120653583D01*
X186846417Y-120337536D01*
X186474785Y-120089220D01*
X186061849Y-119918176D01*
X185623479Y-119830979D01*
X185176521Y-119830979D01*
X184738151Y-119918176D01*
X184325215Y-120089220D01*
X183953583Y-120337536D01*
X183637536Y-120653583D01*
X183389220Y-121025215D01*
X183218176Y-121438151D01*
X183130979Y-121876521D01*
X121669021Y-121876521D01*
X121581824Y-121438151D01*
X121410780Y-121025215D01*
X121162464Y-120653583D01*
X120846417Y-120337536D01*
X120474785Y-120089220D01*
X120061849Y-119918176D01*
X119623479Y-119830979D01*
X119176521Y-119830979D01*
X118738151Y-119918176D01*
X118325215Y-120089220D01*
X117953583Y-120337536D01*
X117637536Y-120653583D01*
X117389220Y-121025215D01*
X117218176Y-121438151D01*
X117130979Y-121876521D01*
X117060000Y-121876521D01*
X117060000Y-118737413D01*
X147230192Y-118737413D01*
X147325956Y-119001814D01*
X147615571Y-119142704D01*
X147927108Y-119224384D01*
X148248595Y-119243718D01*
X148567675Y-119199961D01*
X148872088Y-119094795D01*
X149046044Y-119001814D01*
X149141808Y-118737413D01*
X153730192Y-118737413D01*
X153825956Y-119001814D01*
X154115571Y-119142704D01*
X154427108Y-119224384D01*
X154748595Y-119243718D01*
X155067675Y-119199961D01*
X155372088Y-119094795D01*
X155546044Y-119001814D01*
X155641808Y-118737413D01*
X170344192Y-118737413D01*
X170439956Y-119001814D01*
X170729571Y-119142704D01*
X171041108Y-119224384D01*
X171362595Y-119243718D01*
X171681675Y-119199961D01*
X171986088Y-119094795D01*
X172160044Y-119001814D01*
X172255808Y-118737413D01*
X176844192Y-118737413D01*
X176939956Y-119001814D01*
X177229571Y-119142704D01*
X177541108Y-119224384D01*
X177862595Y-119243718D01*
X178181675Y-119199961D01*
X178486088Y-119094795D01*
X178660044Y-119001814D01*
X178755808Y-118737413D01*
X177800000Y-117781605D01*
X176844192Y-118737413D01*
X172255808Y-118737413D01*
X171300000Y-117781605D01*
X170344192Y-118737413D01*
X155641808Y-118737413D01*
X154686000Y-117781605D01*
X153730192Y-118737413D01*
X149141808Y-118737413D01*
X148186000Y-117781605D01*
X147230192Y-118737413D01*
X117060000Y-118737413D01*
X117060000Y-117664595D01*
X146544282Y-117664595D01*
X146588039Y-117983675D01*
X146693205Y-118288088D01*
X146786186Y-118462044D01*
X147050587Y-118557808D01*
X148006395Y-117602000D01*
X148365605Y-117602000D01*
X149321413Y-118557808D01*
X149585814Y-118462044D01*
X149726704Y-118172429D01*
X149808384Y-117860892D01*
X149820189Y-117664595D01*
X153044282Y-117664595D01*
X153088039Y-117983675D01*
X153193205Y-118288088D01*
X153286186Y-118462044D01*
X153550587Y-118557808D01*
X154506395Y-117602000D01*
X154865605Y-117602000D01*
X155821413Y-118557808D01*
X156085814Y-118462044D01*
X156226704Y-118172429D01*
X156308384Y-117860892D01*
X156320189Y-117664595D01*
X169658282Y-117664595D01*
X169702039Y-117983675D01*
X169807205Y-118288088D01*
X169900186Y-118462044D01*
X170164587Y-118557808D01*
X171120395Y-117602000D01*
X171479605Y-117602000D01*
X172435413Y-118557808D01*
X172699814Y-118462044D01*
X172840704Y-118172429D01*
X172922384Y-117860892D01*
X172934189Y-117664595D01*
X176158282Y-117664595D01*
X176202039Y-117983675D01*
X176307205Y-118288088D01*
X176400186Y-118462044D01*
X176664587Y-118557808D01*
X177620395Y-117602000D01*
X177979605Y-117602000D01*
X178935413Y-118557808D01*
X179199814Y-118462044D01*
X179340704Y-118172429D01*
X179422384Y-117860892D01*
X179441718Y-117539405D01*
X179397961Y-117220325D01*
X179292795Y-116915912D01*
X179199814Y-116741956D01*
X178935413Y-116646192D01*
X177979605Y-117602000D01*
X177620395Y-117602000D01*
X176664587Y-116646192D01*
X176400186Y-116741956D01*
X176259296Y-117031571D01*
X176177616Y-117343108D01*
X176158282Y-117664595D01*
X172934189Y-117664595D01*
X172941718Y-117539405D01*
X172897961Y-117220325D01*
X172792795Y-116915912D01*
X172699814Y-116741956D01*
X172435413Y-116646192D01*
X171479605Y-117602000D01*
X171120395Y-117602000D01*
X170164587Y-116646192D01*
X169900186Y-116741956D01*
X169759296Y-117031571D01*
X169677616Y-117343108D01*
X169658282Y-117664595D01*
X156320189Y-117664595D01*
X156327718Y-117539405D01*
X156283961Y-117220325D01*
X156178795Y-116915912D01*
X156085814Y-116741956D01*
X155821413Y-116646192D01*
X154865605Y-117602000D01*
X154506395Y-117602000D01*
X153550587Y-116646192D01*
X153286186Y-116741956D01*
X153145296Y-117031571D01*
X153063616Y-117343108D01*
X153044282Y-117664595D01*
X149820189Y-117664595D01*
X149827718Y-117539405D01*
X149783961Y-117220325D01*
X149678795Y-116915912D01*
X149585814Y-116741956D01*
X149321413Y-116646192D01*
X148365605Y-117602000D01*
X148006395Y-117602000D01*
X147050587Y-116646192D01*
X146786186Y-116741956D01*
X146645296Y-117031571D01*
X146563616Y-117343108D01*
X146544282Y-117664595D01*
X117060000Y-117664595D01*
X117060000Y-114920665D01*
X122771000Y-114920665D01*
X122771000Y-115203335D01*
X122826147Y-115480574D01*
X122934320Y-115741727D01*
X123091363Y-115976759D01*
X123291241Y-116176637D01*
X123526273Y-116333680D01*
X123787426Y-116441853D01*
X124064665Y-116497000D01*
X124347335Y-116497000D01*
X124500229Y-116466587D01*
X147230192Y-116466587D01*
X148186000Y-117422395D01*
X149141808Y-116466587D01*
X153730192Y-116466587D01*
X154686000Y-117422395D01*
X155641808Y-116466587D01*
X170344192Y-116466587D01*
X171300000Y-117422395D01*
X172255808Y-116466587D01*
X176844192Y-116466587D01*
X177800000Y-117422395D01*
X178755808Y-116466587D01*
X178660044Y-116202186D01*
X178370429Y-116061296D01*
X178058892Y-115979616D01*
X177737405Y-115960282D01*
X177418325Y-116004039D01*
X177113912Y-116109205D01*
X176939956Y-116202186D01*
X176844192Y-116466587D01*
X172255808Y-116466587D01*
X172160044Y-116202186D01*
X171870429Y-116061296D01*
X171558892Y-115979616D01*
X171237405Y-115960282D01*
X170918325Y-116004039D01*
X170613912Y-116109205D01*
X170439956Y-116202186D01*
X170344192Y-116466587D01*
X155641808Y-116466587D01*
X155546044Y-116202186D01*
X155256429Y-116061296D01*
X154944892Y-115979616D01*
X154623405Y-115960282D01*
X154304325Y-116004039D01*
X153999912Y-116109205D01*
X153825956Y-116202186D01*
X153730192Y-116466587D01*
X149141808Y-116466587D01*
X149046044Y-116202186D01*
X148756429Y-116061296D01*
X148444892Y-115979616D01*
X148123405Y-115960282D01*
X147804325Y-116004039D01*
X147499912Y-116109205D01*
X147325956Y-116202186D01*
X147230192Y-116466587D01*
X124500229Y-116466587D01*
X124624574Y-116441853D01*
X124885727Y-116333680D01*
X125120759Y-116176637D01*
X125320637Y-115976759D01*
X125477680Y-115741727D01*
X125585853Y-115480574D01*
X125641000Y-115203335D01*
X125641000Y-114920665D01*
X125585853Y-114643426D01*
X125477680Y-114382273D01*
X125320637Y-114147241D01*
X125120759Y-113947363D01*
X124885727Y-113790320D01*
X124624574Y-113682147D01*
X124347335Y-113627000D01*
X124064665Y-113627000D01*
X123787426Y-113682147D01*
X123526273Y-113790320D01*
X123291241Y-113947363D01*
X123091363Y-114147241D01*
X122934320Y-114382273D01*
X122826147Y-114643426D01*
X122771000Y-114920665D01*
X117060000Y-114920665D01*
X117060000Y-112331500D01*
X127647928Y-112331500D01*
X127647928Y-114236500D01*
X127660188Y-114360982D01*
X127696498Y-114480680D01*
X127755463Y-114590994D01*
X127834815Y-114687685D01*
X127931506Y-114767037D01*
X128041820Y-114826002D01*
X128161518Y-114862312D01*
X128286000Y-114874572D01*
X130286000Y-114874572D01*
X130410482Y-114862312D01*
X130530180Y-114826002D01*
X130640494Y-114767037D01*
X130737185Y-114687685D01*
X130816537Y-114590994D01*
X130875502Y-114480680D01*
X130911812Y-114360982D01*
X130924072Y-114236500D01*
X130924072Y-114196702D01*
X131774903Y-114196702D01*
X131846486Y-114440671D01*
X132101996Y-114561571D01*
X132376184Y-114630300D01*
X132658512Y-114644217D01*
X132938130Y-114602787D01*
X133204292Y-114507603D01*
X133329514Y-114440671D01*
X133401097Y-114196702D01*
X132588000Y-113383605D01*
X131774903Y-114196702D01*
X130924072Y-114196702D01*
X130924072Y-113274512D01*
X131147783Y-113274512D01*
X131189213Y-113554130D01*
X131284397Y-113820292D01*
X131351329Y-113945514D01*
X131595298Y-114017097D01*
X132408395Y-113204000D01*
X132767605Y-113204000D01*
X133580702Y-114017097D01*
X133824671Y-113945514D01*
X133945571Y-113690004D01*
X134014300Y-113415816D01*
X134028217Y-113133488D01*
X133999692Y-112940967D01*
X146551000Y-112940967D01*
X146551000Y-113263033D01*
X146613832Y-113578912D01*
X146737082Y-113876463D01*
X146916013Y-114144252D01*
X147143748Y-114371987D01*
X147411537Y-114550918D01*
X147709088Y-114674168D01*
X148024967Y-114737000D01*
X148347033Y-114737000D01*
X148662912Y-114674168D01*
X148960463Y-114550918D01*
X149228252Y-114371987D01*
X149455987Y-114144252D01*
X149634918Y-113876463D01*
X149758168Y-113578912D01*
X149821000Y-113263033D01*
X149821000Y-112940967D01*
X153051000Y-112940967D01*
X153051000Y-113263033D01*
X153113832Y-113578912D01*
X153237082Y-113876463D01*
X153416013Y-114144252D01*
X153643748Y-114371987D01*
X153911537Y-114550918D01*
X154209088Y-114674168D01*
X154524967Y-114737000D01*
X154847033Y-114737000D01*
X155162912Y-114674168D01*
X155460463Y-114550918D01*
X155728252Y-114371987D01*
X155955987Y-114144252D01*
X156134918Y-113876463D01*
X156258168Y-113578912D01*
X156321000Y-113263033D01*
X156321000Y-112940967D01*
X169665000Y-112940967D01*
X169665000Y-113263033D01*
X169727832Y-113578912D01*
X169851082Y-113876463D01*
X170030013Y-114144252D01*
X170257748Y-114371987D01*
X170525537Y-114550918D01*
X170823088Y-114674168D01*
X171138967Y-114737000D01*
X171461033Y-114737000D01*
X171776912Y-114674168D01*
X172074463Y-114550918D01*
X172342252Y-114371987D01*
X172569987Y-114144252D01*
X172748918Y-113876463D01*
X172872168Y-113578912D01*
X172935000Y-113263033D01*
X172935000Y-112940967D01*
X176165000Y-112940967D01*
X176165000Y-113263033D01*
X176227832Y-113578912D01*
X176351082Y-113876463D01*
X176530013Y-114144252D01*
X176757748Y-114371987D01*
X177025537Y-114550918D01*
X177323088Y-114674168D01*
X177638967Y-114737000D01*
X177961033Y-114737000D01*
X178276912Y-114674168D01*
X178574463Y-114550918D01*
X178842252Y-114371987D01*
X179069987Y-114144252D01*
X179248918Y-113876463D01*
X179372168Y-113578912D01*
X179435000Y-113263033D01*
X179435000Y-112940967D01*
X179372168Y-112625088D01*
X179248918Y-112327537D01*
X179069987Y-112059748D01*
X178842252Y-111832013D01*
X178574463Y-111653082D01*
X178276912Y-111529832D01*
X177961033Y-111467000D01*
X177638967Y-111467000D01*
X177323088Y-111529832D01*
X177025537Y-111653082D01*
X176757748Y-111832013D01*
X176530013Y-112059748D01*
X176351082Y-112327537D01*
X176227832Y-112625088D01*
X176165000Y-112940967D01*
X172935000Y-112940967D01*
X172872168Y-112625088D01*
X172748918Y-112327537D01*
X172569987Y-112059748D01*
X172342252Y-111832013D01*
X172074463Y-111653082D01*
X171776912Y-111529832D01*
X171461033Y-111467000D01*
X171138967Y-111467000D01*
X170823088Y-111529832D01*
X170525537Y-111653082D01*
X170257748Y-111832013D01*
X170030013Y-112059748D01*
X169851082Y-112327537D01*
X169727832Y-112625088D01*
X169665000Y-112940967D01*
X156321000Y-112940967D01*
X156258168Y-112625088D01*
X156134918Y-112327537D01*
X155955987Y-112059748D01*
X155728252Y-111832013D01*
X155460463Y-111653082D01*
X155162912Y-111529832D01*
X154847033Y-111467000D01*
X154524967Y-111467000D01*
X154209088Y-111529832D01*
X153911537Y-111653082D01*
X153643748Y-111832013D01*
X153416013Y-112059748D01*
X153237082Y-112327537D01*
X153113832Y-112625088D01*
X153051000Y-112940967D01*
X149821000Y-112940967D01*
X149758168Y-112625088D01*
X149634918Y-112327537D01*
X149455987Y-112059748D01*
X149228252Y-111832013D01*
X148960463Y-111653082D01*
X148662912Y-111529832D01*
X148347033Y-111467000D01*
X148024967Y-111467000D01*
X147709088Y-111529832D01*
X147411537Y-111653082D01*
X147143748Y-111832013D01*
X146916013Y-112059748D01*
X146737082Y-112327537D01*
X146613832Y-112625088D01*
X146551000Y-112940967D01*
X133999692Y-112940967D01*
X133986787Y-112853870D01*
X133891603Y-112587708D01*
X133824671Y-112462486D01*
X133580702Y-112390903D01*
X132767605Y-113204000D01*
X132408395Y-113204000D01*
X131595298Y-112390903D01*
X131351329Y-112462486D01*
X131230429Y-112717996D01*
X131161700Y-112992184D01*
X131147783Y-113274512D01*
X130924072Y-113274512D01*
X130924072Y-112331500D01*
X130912234Y-112211298D01*
X131774903Y-112211298D01*
X132588000Y-113024395D01*
X133401097Y-112211298D01*
X133329514Y-111967329D01*
X133074004Y-111846429D01*
X132799816Y-111777700D01*
X132517488Y-111763783D01*
X132237870Y-111805213D01*
X131971708Y-111900397D01*
X131846486Y-111967329D01*
X131774903Y-112211298D01*
X130912234Y-112211298D01*
X130911812Y-112207018D01*
X130875502Y-112087320D01*
X130816537Y-111977006D01*
X130737185Y-111880315D01*
X130640494Y-111800963D01*
X130548781Y-111751941D01*
X130661969Y-111610923D01*
X130805571Y-111335094D01*
X130876563Y-111116980D01*
X130756594Y-110871000D01*
X129413000Y-110871000D01*
X129413000Y-110891000D01*
X129159000Y-110891000D01*
X129159000Y-110871000D01*
X127815406Y-110871000D01*
X127695437Y-111116980D01*
X127766429Y-111335094D01*
X127910031Y-111610923D01*
X128023219Y-111751941D01*
X127931506Y-111800963D01*
X127834815Y-111880315D01*
X127755463Y-111977006D01*
X127696498Y-112087320D01*
X127660188Y-112207018D01*
X127647928Y-112331500D01*
X117060000Y-112331500D01*
X117060000Y-111054702D01*
X123392903Y-111054702D01*
X123464486Y-111298671D01*
X123719996Y-111419571D01*
X123994184Y-111488300D01*
X124276512Y-111502217D01*
X124556130Y-111460787D01*
X124822292Y-111365603D01*
X124947514Y-111298671D01*
X125019097Y-111054702D01*
X124206000Y-110241605D01*
X123392903Y-111054702D01*
X117060000Y-111054702D01*
X117060000Y-110132512D01*
X122765783Y-110132512D01*
X122807213Y-110412130D01*
X122902397Y-110678292D01*
X122969329Y-110803514D01*
X123213298Y-110875097D01*
X124026395Y-110062000D01*
X124385605Y-110062000D01*
X125198702Y-110875097D01*
X125442671Y-110803514D01*
X125563571Y-110548004D01*
X125632300Y-110273816D01*
X125646217Y-109991488D01*
X125604787Y-109711870D01*
X125509603Y-109445708D01*
X125442671Y-109320486D01*
X125198702Y-109248903D01*
X124385605Y-110062000D01*
X124026395Y-110062000D01*
X123213298Y-109248903D01*
X122969329Y-109320486D01*
X122848429Y-109575996D01*
X122779700Y-109850184D01*
X122765783Y-110132512D01*
X117060000Y-110132512D01*
X117060000Y-107600000D01*
X117261928Y-107600000D01*
X117261928Y-109200000D01*
X117274188Y-109324482D01*
X117310498Y-109444180D01*
X117369463Y-109554494D01*
X117448815Y-109651185D01*
X117545506Y-109730537D01*
X117655820Y-109789502D01*
X117775518Y-109825812D01*
X117900000Y-109838072D01*
X119500000Y-109838072D01*
X119624482Y-109825812D01*
X119744180Y-109789502D01*
X119854494Y-109730537D01*
X119951185Y-109651185D01*
X119961807Y-109638242D01*
X120213996Y-109757571D01*
X120488184Y-109826300D01*
X120770512Y-109840217D01*
X121050130Y-109798787D01*
X121316292Y-109703603D01*
X121441514Y-109636671D01*
X121513097Y-109392702D01*
X120700000Y-108579605D01*
X120685858Y-108593748D01*
X120506253Y-108414143D01*
X120520395Y-108400000D01*
X120879605Y-108400000D01*
X121692702Y-109213097D01*
X121936671Y-109141514D01*
X121970841Y-109069298D01*
X123392903Y-109069298D01*
X124206000Y-109882395D01*
X125019097Y-109069298D01*
X124947514Y-108825329D01*
X124692004Y-108704429D01*
X124417816Y-108635700D01*
X124135488Y-108621783D01*
X123855870Y-108663213D01*
X123589708Y-108758397D01*
X123464486Y-108825329D01*
X123392903Y-109069298D01*
X121970841Y-109069298D01*
X122057571Y-108886004D01*
X122126300Y-108611816D01*
X122140217Y-108329488D01*
X122121624Y-108204000D01*
X127643319Y-108204000D01*
X127673970Y-108515204D01*
X127764745Y-108814449D01*
X127912155Y-109090235D01*
X128110537Y-109331963D01*
X128289899Y-109479163D01*
X128104685Y-109634563D01*
X127910031Y-109877077D01*
X127766429Y-110152906D01*
X127695437Y-110371020D01*
X127815406Y-110617000D01*
X129159000Y-110617000D01*
X129159000Y-110597000D01*
X129413000Y-110597000D01*
X129413000Y-110617000D01*
X130756594Y-110617000D01*
X130876563Y-110371020D01*
X130805571Y-110152906D01*
X130661969Y-109877077D01*
X130467315Y-109634563D01*
X130282101Y-109479163D01*
X130461463Y-109331963D01*
X130659845Y-109090235D01*
X130807255Y-108814449D01*
X130898030Y-108515204D01*
X130928681Y-108204000D01*
X130914761Y-108062665D01*
X131153000Y-108062665D01*
X131153000Y-108345335D01*
X131208147Y-108622574D01*
X131316320Y-108883727D01*
X131473363Y-109118759D01*
X131673241Y-109318637D01*
X131908273Y-109475680D01*
X132169426Y-109583853D01*
X132446665Y-109639000D01*
X132729335Y-109639000D01*
X133006574Y-109583853D01*
X133267727Y-109475680D01*
X133502759Y-109318637D01*
X133702637Y-109118759D01*
X133859680Y-108883727D01*
X133967853Y-108622574D01*
X134023000Y-108345335D01*
X134023000Y-108148702D01*
X135838903Y-108148702D01*
X135910486Y-108392671D01*
X136165996Y-108513571D01*
X136440184Y-108582300D01*
X136722512Y-108596217D01*
X137002130Y-108554787D01*
X137268292Y-108459603D01*
X137393514Y-108392671D01*
X137465097Y-108148702D01*
X136652000Y-107335605D01*
X135838903Y-108148702D01*
X134023000Y-108148702D01*
X134023000Y-108062665D01*
X133967853Y-107785426D01*
X133859680Y-107524273D01*
X133702637Y-107289241D01*
X133639908Y-107226512D01*
X135211783Y-107226512D01*
X135253213Y-107506130D01*
X135348397Y-107772292D01*
X135415329Y-107897514D01*
X135659298Y-107969097D01*
X136472395Y-107156000D01*
X136458253Y-107141858D01*
X136637858Y-106962253D01*
X136652000Y-106976395D01*
X136666143Y-106962253D01*
X136845748Y-107141858D01*
X136831605Y-107156000D01*
X137644702Y-107969097D01*
X137888671Y-107897514D01*
X138009571Y-107642004D01*
X138078300Y-107367816D01*
X138092217Y-107085488D01*
X138050787Y-106805870D01*
X137955603Y-106539708D01*
X137890384Y-106417691D01*
X137903185Y-106407185D01*
X137982537Y-106310494D01*
X138041502Y-106200180D01*
X138077812Y-106080482D01*
X138090072Y-105956000D01*
X138090072Y-105780000D01*
X153401928Y-105780000D01*
X153401928Y-107580000D01*
X153414188Y-107704482D01*
X153450498Y-107824180D01*
X153509463Y-107934494D01*
X153588815Y-108031185D01*
X153685506Y-108110537D01*
X153795820Y-108169502D01*
X153915518Y-108205812D01*
X154040000Y-108218072D01*
X155840000Y-108218072D01*
X155964482Y-108205812D01*
X156084180Y-108169502D01*
X156194494Y-108110537D01*
X156291185Y-108031185D01*
X156370537Y-107934494D01*
X156429502Y-107824180D01*
X156435056Y-107805873D01*
X156501495Y-107872312D01*
X156752905Y-108040299D01*
X157032257Y-108156011D01*
X157328816Y-108215000D01*
X157631184Y-108215000D01*
X157927743Y-108156011D01*
X158207095Y-108040299D01*
X158458505Y-107872312D01*
X158672312Y-107658505D01*
X158840299Y-107407095D01*
X158956011Y-107127743D01*
X159015000Y-106831184D01*
X159015000Y-106538665D01*
X162395000Y-106538665D01*
X162395000Y-106821335D01*
X162450147Y-107098574D01*
X162558320Y-107359727D01*
X162715363Y-107594759D01*
X162915241Y-107794637D01*
X163150273Y-107951680D01*
X163411426Y-108059853D01*
X163688665Y-108115000D01*
X163971335Y-108115000D01*
X164248574Y-108059853D01*
X164509727Y-107951680D01*
X164744759Y-107794637D01*
X164944637Y-107594759D01*
X165101680Y-107359727D01*
X165209853Y-107098574D01*
X165265000Y-106821335D01*
X165265000Y-106538665D01*
X170015000Y-106538665D01*
X170015000Y-106821335D01*
X170070147Y-107098574D01*
X170178320Y-107359727D01*
X170335363Y-107594759D01*
X170535241Y-107794637D01*
X170770273Y-107951680D01*
X171031426Y-108059853D01*
X171308665Y-108115000D01*
X171591335Y-108115000D01*
X171868574Y-108059853D01*
X172129727Y-107951680D01*
X172364759Y-107794637D01*
X172564637Y-107594759D01*
X172721680Y-107359727D01*
X172829853Y-107098574D01*
X172885000Y-106821335D01*
X172885000Y-106538665D01*
X172829853Y-106261426D01*
X172721680Y-106000273D01*
X172564637Y-105765241D01*
X172364759Y-105565363D01*
X172129727Y-105408320D01*
X171868574Y-105300147D01*
X171591335Y-105245000D01*
X171308665Y-105245000D01*
X171031426Y-105300147D01*
X170770273Y-105408320D01*
X170535241Y-105565363D01*
X170335363Y-105765241D01*
X170178320Y-106000273D01*
X170070147Y-106261426D01*
X170015000Y-106538665D01*
X165265000Y-106538665D01*
X165209853Y-106261426D01*
X165101680Y-106000273D01*
X164944637Y-105765241D01*
X164744759Y-105565363D01*
X164509727Y-105408320D01*
X164248574Y-105300147D01*
X163971335Y-105245000D01*
X163688665Y-105245000D01*
X163411426Y-105300147D01*
X163150273Y-105408320D01*
X162915241Y-105565363D01*
X162715363Y-105765241D01*
X162558320Y-106000273D01*
X162450147Y-106261426D01*
X162395000Y-106538665D01*
X159015000Y-106538665D01*
X159015000Y-106528816D01*
X158956011Y-106232257D01*
X158840299Y-105952905D01*
X158672312Y-105701495D01*
X158458505Y-105487688D01*
X158207095Y-105319701D01*
X157927743Y-105203989D01*
X157631184Y-105145000D01*
X157328816Y-105145000D01*
X157032257Y-105203989D01*
X156752905Y-105319701D01*
X156501495Y-105487688D01*
X156435056Y-105554127D01*
X156429502Y-105535820D01*
X156370537Y-105425506D01*
X156291185Y-105328815D01*
X156194494Y-105249463D01*
X156084180Y-105190498D01*
X155964482Y-105154188D01*
X155840000Y-105141928D01*
X154040000Y-105141928D01*
X153915518Y-105154188D01*
X153795820Y-105190498D01*
X153685506Y-105249463D01*
X153588815Y-105328815D01*
X153509463Y-105425506D01*
X153450498Y-105535820D01*
X153414188Y-105655518D01*
X153401928Y-105780000D01*
X138090072Y-105780000D01*
X138090072Y-104356000D01*
X138077812Y-104231518D01*
X138041502Y-104111820D01*
X137982537Y-104001506D01*
X137903185Y-103904815D01*
X137806494Y-103825463D01*
X137696180Y-103766498D01*
X137576482Y-103730188D01*
X137452000Y-103717928D01*
X135852000Y-103717928D01*
X135727518Y-103730188D01*
X135607820Y-103766498D01*
X135497506Y-103825463D01*
X135400815Y-103904815D01*
X135321463Y-104001506D01*
X135262498Y-104111820D01*
X135226188Y-104231518D01*
X135213928Y-104356000D01*
X135213928Y-105956000D01*
X135226188Y-106080482D01*
X135262498Y-106200180D01*
X135321463Y-106310494D01*
X135400815Y-106407185D01*
X135413758Y-106417807D01*
X135294429Y-106669996D01*
X135225700Y-106944184D01*
X135211783Y-107226512D01*
X133639908Y-107226512D01*
X133502759Y-107089363D01*
X133267727Y-106932320D01*
X133006574Y-106824147D01*
X132729335Y-106769000D01*
X132446665Y-106769000D01*
X132169426Y-106824147D01*
X131908273Y-106932320D01*
X131673241Y-107089363D01*
X131473363Y-107289241D01*
X131316320Y-107524273D01*
X131208147Y-107785426D01*
X131153000Y-108062665D01*
X130914761Y-108062665D01*
X130898030Y-107892796D01*
X130807255Y-107593551D01*
X130659845Y-107317765D01*
X130461463Y-107076037D01*
X130219735Y-106877655D01*
X129943949Y-106730245D01*
X129644704Y-106639470D01*
X129411486Y-106616500D01*
X129160514Y-106616500D01*
X128927296Y-106639470D01*
X128628051Y-106730245D01*
X128352265Y-106877655D01*
X128110537Y-107076037D01*
X127912155Y-107317765D01*
X127764745Y-107593551D01*
X127673970Y-107892796D01*
X127643319Y-108204000D01*
X122121624Y-108204000D01*
X122098787Y-108049870D01*
X122003603Y-107783708D01*
X121936671Y-107658486D01*
X121692702Y-107586903D01*
X120879605Y-108400000D01*
X120520395Y-108400000D01*
X120506253Y-108385858D01*
X120685858Y-108206253D01*
X120700000Y-108220395D01*
X121513097Y-107407298D01*
X121441514Y-107163329D01*
X121186004Y-107042429D01*
X120911816Y-106973700D01*
X120629488Y-106959783D01*
X120349870Y-107001213D01*
X120083708Y-107096397D01*
X119961691Y-107161616D01*
X119951185Y-107148815D01*
X119854494Y-107069463D01*
X119744180Y-107010498D01*
X119624482Y-106974188D01*
X119500000Y-106961928D01*
X117900000Y-106961928D01*
X117775518Y-106974188D01*
X117655820Y-107010498D01*
X117545506Y-107069463D01*
X117448815Y-107148815D01*
X117369463Y-107245506D01*
X117310498Y-107355820D01*
X117274188Y-107475518D01*
X117261928Y-107600000D01*
X117060000Y-107600000D01*
X117060000Y-100600000D01*
X117061928Y-100600000D01*
X117061928Y-102400000D01*
X117074188Y-102524482D01*
X117110498Y-102644180D01*
X117169463Y-102754494D01*
X117248815Y-102851185D01*
X117345506Y-102930537D01*
X117455820Y-102989502D01*
X117575518Y-103025812D01*
X117700000Y-103038072D01*
X119500000Y-103038072D01*
X119624482Y-103025812D01*
X119744180Y-102989502D01*
X119854494Y-102930537D01*
X119951185Y-102851185D01*
X120030537Y-102754494D01*
X120089502Y-102644180D01*
X120125812Y-102524482D01*
X120138072Y-102400000D01*
X120138072Y-101348816D01*
X124685000Y-101348816D01*
X124685000Y-101651184D01*
X124743989Y-101947743D01*
X124859701Y-102227095D01*
X125027688Y-102478505D01*
X125241495Y-102692312D01*
X125492905Y-102860299D01*
X125772257Y-102976011D01*
X126068816Y-103035000D01*
X126371184Y-103035000D01*
X126667743Y-102976011D01*
X126947095Y-102860299D01*
X127198505Y-102692312D01*
X127412312Y-102478505D01*
X127580299Y-102227095D01*
X127666081Y-102020000D01*
X160436928Y-102020000D01*
X160436928Y-103720000D01*
X160449188Y-103844482D01*
X160485498Y-103964180D01*
X160544463Y-104074494D01*
X160623815Y-104171185D01*
X160720506Y-104250537D01*
X160830820Y-104309502D01*
X160950518Y-104345812D01*
X161075000Y-104358072D01*
X162775000Y-104358072D01*
X162899482Y-104345812D01*
X163019180Y-104309502D01*
X163129494Y-104250537D01*
X163226185Y-104171185D01*
X163305537Y-104074494D01*
X163364502Y-103964180D01*
X163386513Y-103891620D01*
X163518368Y-104023475D01*
X163761589Y-104185990D01*
X164031842Y-104297932D01*
X164318740Y-104355000D01*
X164611260Y-104355000D01*
X164898158Y-104297932D01*
X165168411Y-104185990D01*
X165411632Y-104023475D01*
X165618475Y-103816632D01*
X165780990Y-103573411D01*
X165892932Y-103303158D01*
X165950000Y-103016260D01*
X165950000Y-102723740D01*
X165892932Y-102436842D01*
X165780990Y-102166589D01*
X165618475Y-101923368D01*
X165411632Y-101716525D01*
X165168411Y-101554010D01*
X164898158Y-101442068D01*
X164611260Y-101385000D01*
X164318740Y-101385000D01*
X164031842Y-101442068D01*
X163761589Y-101554010D01*
X163518368Y-101716525D01*
X163386513Y-101848380D01*
X163364502Y-101775820D01*
X163305537Y-101665506D01*
X163226185Y-101568815D01*
X163129494Y-101489463D01*
X163019180Y-101430498D01*
X162899482Y-101394188D01*
X162775000Y-101381928D01*
X161075000Y-101381928D01*
X160950518Y-101394188D01*
X160830820Y-101430498D01*
X160720506Y-101489463D01*
X160623815Y-101568815D01*
X160544463Y-101665506D01*
X160485498Y-101775820D01*
X160449188Y-101895518D01*
X160436928Y-102020000D01*
X127666081Y-102020000D01*
X127696011Y-101947743D01*
X127755000Y-101651184D01*
X127755000Y-101348816D01*
X127696011Y-101052257D01*
X127580299Y-100772905D01*
X127412312Y-100521495D01*
X127198505Y-100307688D01*
X126947095Y-100139701D01*
X126667743Y-100023989D01*
X126371184Y-99965000D01*
X126068816Y-99965000D01*
X125772257Y-100023989D01*
X125492905Y-100139701D01*
X125241495Y-100307688D01*
X125027688Y-100521495D01*
X124859701Y-100772905D01*
X124743989Y-101052257D01*
X124685000Y-101348816D01*
X120138072Y-101348816D01*
X120138072Y-100600000D01*
X120125812Y-100475518D01*
X120089502Y-100355820D01*
X120030537Y-100245506D01*
X119951185Y-100148815D01*
X119854494Y-100069463D01*
X119744180Y-100010498D01*
X119624482Y-99974188D01*
X119500000Y-99961928D01*
X117700000Y-99961928D01*
X117575518Y-99974188D01*
X117455820Y-100010498D01*
X117345506Y-100069463D01*
X117248815Y-100148815D01*
X117169463Y-100245506D01*
X117110498Y-100355820D01*
X117074188Y-100475518D01*
X117061928Y-100600000D01*
X117060000Y-100600000D01*
X117060000Y-98156665D01*
X135217000Y-98156665D01*
X135217000Y-98439335D01*
X135272147Y-98716574D01*
X135380320Y-98977727D01*
X135537363Y-99212759D01*
X135737241Y-99412637D01*
X135972273Y-99569680D01*
X136233426Y-99677853D01*
X136510665Y-99733000D01*
X136793335Y-99733000D01*
X137070574Y-99677853D01*
X137331727Y-99569680D01*
X137566759Y-99412637D01*
X137766637Y-99212759D01*
X137923680Y-98977727D01*
X138031853Y-98716574D01*
X138087000Y-98439335D01*
X138087000Y-98283665D01*
X153505000Y-98283665D01*
X153505000Y-98566335D01*
X153560147Y-98843574D01*
X153668320Y-99104727D01*
X153825363Y-99339759D01*
X154025241Y-99539637D01*
X154260273Y-99696680D01*
X154521426Y-99804853D01*
X154798665Y-99860000D01*
X155081335Y-99860000D01*
X155358574Y-99804853D01*
X155619727Y-99696680D01*
X155854759Y-99539637D01*
X156054637Y-99339759D01*
X156211680Y-99104727D01*
X156319853Y-98843574D01*
X156375000Y-98566335D01*
X156375000Y-98283665D01*
X161125000Y-98283665D01*
X161125000Y-98566335D01*
X161180147Y-98843574D01*
X161288320Y-99104727D01*
X161445363Y-99339759D01*
X161645241Y-99539637D01*
X161880273Y-99696680D01*
X162141426Y-99804853D01*
X162418665Y-99860000D01*
X162701335Y-99860000D01*
X162978574Y-99804853D01*
X163239727Y-99696680D01*
X163474759Y-99539637D01*
X163674637Y-99339759D01*
X163831680Y-99104727D01*
X163939853Y-98843574D01*
X163995000Y-98566335D01*
X163995000Y-98283665D01*
X163993041Y-98273816D01*
X167375000Y-98273816D01*
X167375000Y-98576184D01*
X167433989Y-98872743D01*
X167549701Y-99152095D01*
X167717688Y-99403505D01*
X167931495Y-99617312D01*
X168182905Y-99785299D01*
X168462257Y-99901011D01*
X168758816Y-99960000D01*
X169061184Y-99960000D01*
X169357743Y-99901011D01*
X169637095Y-99785299D01*
X169888505Y-99617312D01*
X169954944Y-99550873D01*
X169960498Y-99569180D01*
X170019463Y-99679494D01*
X170098815Y-99776185D01*
X170195506Y-99855537D01*
X170305820Y-99914502D01*
X170425518Y-99950812D01*
X170550000Y-99963072D01*
X172350000Y-99963072D01*
X172474482Y-99950812D01*
X172594180Y-99914502D01*
X172704494Y-99855537D01*
X172801185Y-99776185D01*
X172880537Y-99679494D01*
X172939502Y-99569180D01*
X172975812Y-99449482D01*
X172988072Y-99325000D01*
X172988072Y-97525000D01*
X172975812Y-97400518D01*
X172939502Y-97280820D01*
X172880537Y-97170506D01*
X172801185Y-97073815D01*
X172704494Y-96994463D01*
X172594180Y-96935498D01*
X172474482Y-96899188D01*
X172350000Y-96886928D01*
X170550000Y-96886928D01*
X170425518Y-96899188D01*
X170305820Y-96935498D01*
X170195506Y-96994463D01*
X170098815Y-97073815D01*
X170019463Y-97170506D01*
X169960498Y-97280820D01*
X169954944Y-97299127D01*
X169888505Y-97232688D01*
X169637095Y-97064701D01*
X169357743Y-96948989D01*
X169061184Y-96890000D01*
X168758816Y-96890000D01*
X168462257Y-96948989D01*
X168182905Y-97064701D01*
X167931495Y-97232688D01*
X167717688Y-97446495D01*
X167549701Y-97697905D01*
X167433989Y-97977257D01*
X167375000Y-98273816D01*
X163993041Y-98273816D01*
X163939853Y-98006426D01*
X163831680Y-97745273D01*
X163674637Y-97510241D01*
X163474759Y-97310363D01*
X163239727Y-97153320D01*
X162978574Y-97045147D01*
X162701335Y-96990000D01*
X162418665Y-96990000D01*
X162141426Y-97045147D01*
X161880273Y-97153320D01*
X161645241Y-97310363D01*
X161445363Y-97510241D01*
X161288320Y-97745273D01*
X161180147Y-98006426D01*
X161125000Y-98283665D01*
X156375000Y-98283665D01*
X156319853Y-98006426D01*
X156211680Y-97745273D01*
X156054637Y-97510241D01*
X155854759Y-97310363D01*
X155619727Y-97153320D01*
X155358574Y-97045147D01*
X155081335Y-96990000D01*
X154798665Y-96990000D01*
X154521426Y-97045147D01*
X154260273Y-97153320D01*
X154025241Y-97310363D01*
X153825363Y-97510241D01*
X153668320Y-97745273D01*
X153560147Y-98006426D01*
X153505000Y-98283665D01*
X138087000Y-98283665D01*
X138087000Y-98156665D01*
X138031853Y-97879426D01*
X137923680Y-97618273D01*
X137766637Y-97383241D01*
X137566759Y-97183363D01*
X137331727Y-97026320D01*
X137070574Y-96918147D01*
X136793335Y-96863000D01*
X136510665Y-96863000D01*
X136233426Y-96918147D01*
X135972273Y-97026320D01*
X135737241Y-97183363D01*
X135537363Y-97383241D01*
X135380320Y-97618273D01*
X135272147Y-97879426D01*
X135217000Y-98156665D01*
X117060000Y-98156665D01*
X117060000Y-95548865D01*
X118079782Y-95548865D01*
X118110095Y-95674528D01*
X118238304Y-95967205D01*
X118421148Y-96229246D01*
X118651601Y-96450581D01*
X118920806Y-96622704D01*
X119218418Y-96739000D01*
X119533000Y-96795000D01*
X120523000Y-96795000D01*
X120523000Y-95297000D01*
X120777000Y-95297000D01*
X120777000Y-96795000D01*
X121767000Y-96795000D01*
X122081582Y-96739000D01*
X122379194Y-96622704D01*
X122648399Y-96450581D01*
X122878852Y-96229246D01*
X123061696Y-95967205D01*
X123189905Y-95674528D01*
X123220218Y-95548865D01*
X123100740Y-95297000D01*
X120777000Y-95297000D01*
X120523000Y-95297000D01*
X118199260Y-95297000D01*
X118079782Y-95548865D01*
X117060000Y-95548865D01*
X117060000Y-94791135D01*
X118079782Y-94791135D01*
X118199260Y-95043000D01*
X120523000Y-95043000D01*
X120523000Y-93545000D01*
X120777000Y-93545000D01*
X120777000Y-95043000D01*
X123100740Y-95043000D01*
X123220218Y-94791135D01*
X123189905Y-94665472D01*
X123061696Y-94372795D01*
X122878852Y-94110754D01*
X122648399Y-93889419D01*
X122379194Y-93717296D01*
X122081582Y-93601000D01*
X121767000Y-93545000D01*
X120777000Y-93545000D01*
X120523000Y-93545000D01*
X119533000Y-93545000D01*
X119218418Y-93601000D01*
X118920806Y-93717296D01*
X118651601Y-93889419D01*
X118421148Y-94110754D01*
X118238304Y-94372795D01*
X118110095Y-94665472D01*
X118079782Y-94791135D01*
X117060000Y-94791135D01*
X117060000Y-92294967D01*
X146551000Y-92294967D01*
X146551000Y-92617033D01*
X146613832Y-92932912D01*
X146737082Y-93230463D01*
X146916013Y-93498252D01*
X147143748Y-93725987D01*
X147411537Y-93904918D01*
X147709088Y-94028168D01*
X148024967Y-94091000D01*
X148347033Y-94091000D01*
X148662912Y-94028168D01*
X148960463Y-93904918D01*
X149228252Y-93725987D01*
X149455987Y-93498252D01*
X149634918Y-93230463D01*
X149758168Y-92932912D01*
X149821000Y-92617033D01*
X149821000Y-92294967D01*
X153051000Y-92294967D01*
X153051000Y-92617033D01*
X153113832Y-92932912D01*
X153237082Y-93230463D01*
X153416013Y-93498252D01*
X153643748Y-93725987D01*
X153911537Y-93904918D01*
X154209088Y-94028168D01*
X154524967Y-94091000D01*
X154847033Y-94091000D01*
X155162912Y-94028168D01*
X155460463Y-93904918D01*
X155728252Y-93725987D01*
X155955987Y-93498252D01*
X156134918Y-93230463D01*
X156258168Y-92932912D01*
X156321000Y-92617033D01*
X156321000Y-92294967D01*
X169665000Y-92294967D01*
X169665000Y-92617033D01*
X169727832Y-92932912D01*
X169851082Y-93230463D01*
X170030013Y-93498252D01*
X170257748Y-93725987D01*
X170525537Y-93904918D01*
X170823088Y-94028168D01*
X171138967Y-94091000D01*
X171461033Y-94091000D01*
X171776912Y-94028168D01*
X172074463Y-93904918D01*
X172342252Y-93725987D01*
X172569987Y-93498252D01*
X172748918Y-93230463D01*
X172872168Y-92932912D01*
X172935000Y-92617033D01*
X172935000Y-92294967D01*
X176165000Y-92294967D01*
X176165000Y-92617033D01*
X176227832Y-92932912D01*
X176351082Y-93230463D01*
X176530013Y-93498252D01*
X176757748Y-93725987D01*
X177025537Y-93904918D01*
X177323088Y-94028168D01*
X177638967Y-94091000D01*
X177961033Y-94091000D01*
X178276912Y-94028168D01*
X178574463Y-93904918D01*
X178842252Y-93725987D01*
X179069987Y-93498252D01*
X179248918Y-93230463D01*
X179372168Y-92932912D01*
X179435000Y-92617033D01*
X179435000Y-92294967D01*
X179372168Y-91979088D01*
X179248918Y-91681537D01*
X179069987Y-91413748D01*
X178842252Y-91186013D01*
X178574463Y-91007082D01*
X178276912Y-90883832D01*
X177961033Y-90821000D01*
X177638967Y-90821000D01*
X177323088Y-90883832D01*
X177025537Y-91007082D01*
X176757748Y-91186013D01*
X176530013Y-91413748D01*
X176351082Y-91681537D01*
X176227832Y-91979088D01*
X176165000Y-92294967D01*
X172935000Y-92294967D01*
X172872168Y-91979088D01*
X172748918Y-91681537D01*
X172569987Y-91413748D01*
X172342252Y-91186013D01*
X172074463Y-91007082D01*
X171776912Y-90883832D01*
X171461033Y-90821000D01*
X171138967Y-90821000D01*
X170823088Y-90883832D01*
X170525537Y-91007082D01*
X170257748Y-91186013D01*
X170030013Y-91413748D01*
X169851082Y-91681537D01*
X169727832Y-91979088D01*
X169665000Y-92294967D01*
X156321000Y-92294967D01*
X156258168Y-91979088D01*
X156134918Y-91681537D01*
X155955987Y-91413748D01*
X155728252Y-91186013D01*
X155460463Y-91007082D01*
X155162912Y-90883832D01*
X154847033Y-90821000D01*
X154524967Y-90821000D01*
X154209088Y-90883832D01*
X153911537Y-91007082D01*
X153643748Y-91186013D01*
X153416013Y-91413748D01*
X153237082Y-91681537D01*
X153113832Y-91979088D01*
X153051000Y-92294967D01*
X149821000Y-92294967D01*
X149758168Y-91979088D01*
X149634918Y-91681537D01*
X149455987Y-91413748D01*
X149228252Y-91186013D01*
X148960463Y-91007082D01*
X148662912Y-90883832D01*
X148347033Y-90821000D01*
X148024967Y-90821000D01*
X147709088Y-90883832D01*
X147411537Y-91007082D01*
X147143748Y-91186013D01*
X146916013Y-91413748D01*
X146737082Y-91681537D01*
X146613832Y-91979088D01*
X146551000Y-92294967D01*
X117060000Y-92294967D01*
X117060000Y-89180000D01*
X118031928Y-89180000D01*
X118031928Y-91160000D01*
X118044188Y-91284482D01*
X118080498Y-91404180D01*
X118139463Y-91514494D01*
X118218815Y-91611185D01*
X118315506Y-91690537D01*
X118425820Y-91749502D01*
X118545518Y-91785812D01*
X118670000Y-91798072D01*
X122630000Y-91798072D01*
X122754482Y-91785812D01*
X122874180Y-91749502D01*
X122984494Y-91690537D01*
X123081185Y-91611185D01*
X123160537Y-91514494D01*
X123219502Y-91404180D01*
X123255812Y-91284482D01*
X123268072Y-91160000D01*
X123268072Y-89180000D01*
X123255812Y-89055518D01*
X123219502Y-88935820D01*
X123160537Y-88825506D01*
X123081185Y-88728815D01*
X122984494Y-88649463D01*
X122874180Y-88590498D01*
X122754482Y-88554188D01*
X122630000Y-88541928D01*
X118670000Y-88541928D01*
X118545518Y-88554188D01*
X118425820Y-88590498D01*
X118315506Y-88649463D01*
X118218815Y-88728815D01*
X118139463Y-88825506D01*
X118080498Y-88935820D01*
X118044188Y-89055518D01*
X118031928Y-89180000D01*
X117060000Y-89180000D01*
X117060000Y-87996665D01*
X135217000Y-87996665D01*
X135217000Y-88279335D01*
X135272147Y-88556574D01*
X135380320Y-88817727D01*
X135537363Y-89052759D01*
X135737241Y-89252637D01*
X135972273Y-89409680D01*
X136233426Y-89517853D01*
X136510665Y-89573000D01*
X136793335Y-89573000D01*
X137070574Y-89517853D01*
X137331727Y-89409680D01*
X137566759Y-89252637D01*
X137766637Y-89052759D01*
X137923680Y-88817727D01*
X138031853Y-88556574D01*
X138087000Y-88279335D01*
X138087000Y-87996665D01*
X138046880Y-87794967D01*
X146551000Y-87794967D01*
X146551000Y-88117033D01*
X146613832Y-88432912D01*
X146737082Y-88730463D01*
X146916013Y-88998252D01*
X147143748Y-89225987D01*
X147411537Y-89404918D01*
X147709088Y-89528168D01*
X148024967Y-89591000D01*
X148347033Y-89591000D01*
X148662912Y-89528168D01*
X148960463Y-89404918D01*
X149228252Y-89225987D01*
X149455987Y-88998252D01*
X149634918Y-88730463D01*
X149758168Y-88432912D01*
X149821000Y-88117033D01*
X149821000Y-87794967D01*
X153051000Y-87794967D01*
X153051000Y-88117033D01*
X153113832Y-88432912D01*
X153237082Y-88730463D01*
X153416013Y-88998252D01*
X153643748Y-89225987D01*
X153911537Y-89404918D01*
X154209088Y-89528168D01*
X154524967Y-89591000D01*
X154847033Y-89591000D01*
X155162912Y-89528168D01*
X155460463Y-89404918D01*
X155728252Y-89225987D01*
X155955987Y-88998252D01*
X156134918Y-88730463D01*
X156258168Y-88432912D01*
X156321000Y-88117033D01*
X156321000Y-87794967D01*
X169665000Y-87794967D01*
X169665000Y-88117033D01*
X169727832Y-88432912D01*
X169851082Y-88730463D01*
X170030013Y-88998252D01*
X170257748Y-89225987D01*
X170525537Y-89404918D01*
X170823088Y-89528168D01*
X171138967Y-89591000D01*
X171461033Y-89591000D01*
X171776912Y-89528168D01*
X172074463Y-89404918D01*
X172342252Y-89225987D01*
X172569987Y-88998252D01*
X172748918Y-88730463D01*
X172872168Y-88432912D01*
X172935000Y-88117033D01*
X172935000Y-87794967D01*
X176165000Y-87794967D01*
X176165000Y-88117033D01*
X176227832Y-88432912D01*
X176351082Y-88730463D01*
X176530013Y-88998252D01*
X176757748Y-89225987D01*
X177025537Y-89404918D01*
X177323088Y-89528168D01*
X177638967Y-89591000D01*
X177961033Y-89591000D01*
X178276912Y-89528168D01*
X178574463Y-89404918D01*
X178842252Y-89225987D01*
X179069987Y-88998252D01*
X179248918Y-88730463D01*
X179372168Y-88432912D01*
X179435000Y-88117033D01*
X179435000Y-87794967D01*
X179372168Y-87479088D01*
X179248918Y-87181537D01*
X179069987Y-86913748D01*
X178842252Y-86686013D01*
X178574463Y-86507082D01*
X178276912Y-86383832D01*
X177961033Y-86321000D01*
X177638967Y-86321000D01*
X177323088Y-86383832D01*
X177025537Y-86507082D01*
X176757748Y-86686013D01*
X176530013Y-86913748D01*
X176351082Y-87181537D01*
X176227832Y-87479088D01*
X176165000Y-87794967D01*
X172935000Y-87794967D01*
X172872168Y-87479088D01*
X172748918Y-87181537D01*
X172569987Y-86913748D01*
X172342252Y-86686013D01*
X172074463Y-86507082D01*
X171776912Y-86383832D01*
X171461033Y-86321000D01*
X171138967Y-86321000D01*
X170823088Y-86383832D01*
X170525537Y-86507082D01*
X170257748Y-86686013D01*
X170030013Y-86913748D01*
X169851082Y-87181537D01*
X169727832Y-87479088D01*
X169665000Y-87794967D01*
X156321000Y-87794967D01*
X156258168Y-87479088D01*
X156134918Y-87181537D01*
X155955987Y-86913748D01*
X155728252Y-86686013D01*
X155460463Y-86507082D01*
X155162912Y-86383832D01*
X154847033Y-86321000D01*
X154524967Y-86321000D01*
X154209088Y-86383832D01*
X153911537Y-86507082D01*
X153643748Y-86686013D01*
X153416013Y-86913748D01*
X153237082Y-87181537D01*
X153113832Y-87479088D01*
X153051000Y-87794967D01*
X149821000Y-87794967D01*
X149758168Y-87479088D01*
X149634918Y-87181537D01*
X149455987Y-86913748D01*
X149228252Y-86686013D01*
X148960463Y-86507082D01*
X148662912Y-86383832D01*
X148347033Y-86321000D01*
X148024967Y-86321000D01*
X147709088Y-86383832D01*
X147411537Y-86507082D01*
X147143748Y-86686013D01*
X146916013Y-86913748D01*
X146737082Y-87181537D01*
X146613832Y-87479088D01*
X146551000Y-87794967D01*
X138046880Y-87794967D01*
X138031853Y-87719426D01*
X137923680Y-87458273D01*
X137766637Y-87223241D01*
X137566759Y-87023363D01*
X137331727Y-86866320D01*
X137070574Y-86758147D01*
X136793335Y-86703000D01*
X136510665Y-86703000D01*
X136233426Y-86758147D01*
X135972273Y-86866320D01*
X135737241Y-87023363D01*
X135537363Y-87223241D01*
X135380320Y-87458273D01*
X135272147Y-87719426D01*
X135217000Y-87996665D01*
X117060000Y-87996665D01*
X117060000Y-80876521D01*
X117130979Y-80876521D01*
X117130979Y-81323479D01*
X117218176Y-81761849D01*
X117389220Y-82174785D01*
X117637536Y-82546417D01*
X117953583Y-82862464D01*
X118325215Y-83110780D01*
X118738151Y-83281824D01*
X119176521Y-83369021D01*
X119623479Y-83369021D01*
X120061849Y-83281824D01*
X120474785Y-83110780D01*
X120846417Y-82862464D01*
X121162464Y-82546417D01*
X121410780Y-82174785D01*
X121581824Y-81761849D01*
X121669021Y-81323479D01*
X121669021Y-80876521D01*
X183130979Y-80876521D01*
X183130979Y-81323479D01*
X183218176Y-81761849D01*
X183389220Y-82174785D01*
X183637536Y-82546417D01*
X183953583Y-82862464D01*
X184325215Y-83110780D01*
X184738151Y-83281824D01*
X185176521Y-83369021D01*
X185623479Y-83369021D01*
X186061849Y-83281824D01*
X186474785Y-83110780D01*
X186846417Y-82862464D01*
X187162464Y-82546417D01*
X187410780Y-82174785D01*
X187581824Y-81761849D01*
X187669021Y-81323479D01*
X187669021Y-80876521D01*
X187581824Y-80438151D01*
X187410780Y-80025215D01*
X187162464Y-79653583D01*
X186846417Y-79337536D01*
X186474785Y-79089220D01*
X186061849Y-78918176D01*
X185623479Y-78830979D01*
X185176521Y-78830979D01*
X184738151Y-78918176D01*
X184325215Y-79089220D01*
X183953583Y-79337536D01*
X183637536Y-79653583D01*
X183389220Y-80025215D01*
X183218176Y-80438151D01*
X183130979Y-80876521D01*
X121669021Y-80876521D01*
X121581824Y-80438151D01*
X121410780Y-80025215D01*
X121162464Y-79653583D01*
X120846417Y-79337536D01*
X120474785Y-79089220D01*
X120061849Y-78918176D01*
X119623479Y-78830979D01*
X119176521Y-78830979D01*
X118738151Y-78918176D01*
X118325215Y-79089220D01*
X117953583Y-79337536D01*
X117637536Y-79653583D01*
X117389220Y-80025215D01*
X117218176Y-80438151D01*
X117130979Y-80876521D01*
X117060000Y-80876521D01*
X117060000Y-78760000D01*
X187740000Y-78760000D01*
X187740001Y-124440000D01*
G37*
%TD.AperFunction*%
%TD*%
M02*
