M48
; DRILL file {KiCad (5.1.12)-1} date 07/22/22 22:42:46
; FORMAT={-:-/ absolute / inch / decimal}
; #@! TF.CreationDate,2022-07-22T22:42:46+09:00
; #@! TF.GenerationSoftware,Kicad,Pcbnew,(5.1.12)-1
; #@! TF.FileFunction,Plated,1,2,PTH
FMAT,2
INCH
T1C0.0315
T2C0.0354
T3C0.0394
T4C0.0433
T5C0.0520
%
G90
G05
T1
X4.8431Y-4.2
X4.8463Y-4.025
X4.925Y-4.025
X5.04Y-4.2
X5.16Y-4.4031
X5.16Y-4.6
X5.2013Y-4.22
X5.28Y-4.22
X5.4Y-3.6
X5.4Y-4.0
X6.1Y-3.875
X6.4Y-3.875
X6.45Y-4.2
X6.75Y-4.2
T2
X5.2Y-3.62
X5.2Y-3.92
X6.1Y-4.2
X6.2Y-4.2
X6.65Y-3.875
X6.75Y-3.875
T3
X6.375Y-4.05
X6.475Y-4.05
T4
X4.92Y-4.38
X4.92Y-4.48
X4.92Y-4.58
X5.8441Y-3.4728
X5.8441Y-3.65
X5.8441Y-4.45
X5.8441Y-4.6272
X6.1Y-3.4728
X6.1Y-3.65
X6.1Y-4.45
X6.1Y-4.6272
X6.7441Y-3.4728
X6.7441Y-3.65
X6.7441Y-4.45
X6.7441Y-4.6272
X7.0Y-3.4728
X7.0Y-3.65
X7.0Y-4.45
X7.0Y-4.6272
T5
X4.84Y-3.55
X4.84Y-3.7469
T0
M30
