%TF.GenerationSoftware,KiCad,Pcbnew,(5.1.12)-1*%
%TF.CreationDate,2022-07-22T22:42:43+09:00*%
%TF.ProjectId,FullBridge_demo_kit,46756c6c-4272-4696-9467-655f64656d6f,rev?*%
%TF.SameCoordinates,Original*%
%TF.FileFunction,Copper,L1,Top*%
%TF.FilePolarity,Positive*%
%FSLAX46Y46*%
G04 Gerber Fmt 4.6, Leading zero omitted, Abs format (unit mm)*
G04 Created by KiCad (PCBNEW (5.1.12)-1) date 2022-07-22 22:42:43*
%MOMM*%
%LPD*%
G01*
G04 APERTURE LIST*
%TA.AperFunction,ComponentPad*%
%ADD10C,1.600000*%
%TD*%
%TA.AperFunction,ComponentPad*%
%ADD11R,1.600000X1.600000*%
%TD*%
%TA.AperFunction,ComponentPad*%
%ADD12R,1.800000X1.800000*%
%TD*%
%TA.AperFunction,ComponentPad*%
%ADD13O,1.800000X1.800000*%
%TD*%
%TA.AperFunction,ComponentPad*%
%ADD14C,1.800000*%
%TD*%
%TA.AperFunction,ComponentPad*%
%ADD15R,3.960000X1.980000*%
%TD*%
%TA.AperFunction,ComponentPad*%
%ADD16O,3.960000X1.980000*%
%TD*%
%TA.AperFunction,ComponentPad*%
%ADD17O,1.600000X1.600000*%
%TD*%
%TA.AperFunction,ComponentPad*%
%ADD18C,2.000000*%
%TD*%
%TA.AperFunction,ComponentPad*%
%ADD19R,2.000000X1.905000*%
%TD*%
%TA.AperFunction,ComponentPad*%
%ADD20O,2.000000X1.905000*%
%TD*%
%TA.AperFunction,ComponentPad*%
%ADD21R,1.700000X1.700000*%
%TD*%
%TA.AperFunction,ComponentPad*%
%ADD22O,1.700000X1.700000*%
%TD*%
%TA.AperFunction,Conductor*%
%ADD23C,2.000000*%
%TD*%
G04 APERTURE END LIST*
D10*
%TO.P,C1,2*%
%TO.N,GND*%
X123095000Y-102235000D03*
D11*
%TO.P,C1,1*%
%TO.N,Net-(C1-Pad1)*%
X125095000Y-102235000D03*
%TD*%
D10*
%TO.P,C2,1*%
%TO.N,Net-(C1-Pad1)*%
X128016000Y-106680000D03*
%TO.P,C2,2*%
%TO.N,GND*%
X123016000Y-106680000D03*
%TD*%
%TO.P,C3,2*%
%TO.N,GND*%
X131064000Y-111840000D03*
%TO.P,C3,1*%
%TO.N,+5V*%
X131064000Y-116840000D03*
%TD*%
D11*
%TO.P,C4,1*%
%TO.N,+5V*%
X134112000Y-107188000D03*
D10*
%TO.P,C4,2*%
%TO.N,GND*%
X132112000Y-107188000D03*
%TD*%
D12*
%TO.P,D1,1*%
%TO.N,Net-(C1-Pad1)*%
X132080000Y-99568000D03*
D13*
%TO.P,D1,2*%
%TO.N,+12V*%
X132080000Y-91948000D03*
%TD*%
D14*
%TO.P,D2,2*%
%TO.N,Net-(D2-Pad2)*%
X168910000Y-98425000D03*
D12*
%TO.P,D2,1*%
%TO.N,Net-(D2-Pad1)*%
X171450000Y-98425000D03*
%TD*%
%TO.P,D3,1*%
%TO.N,Net-(D3-Pad1)*%
X154940000Y-106680000D03*
D14*
%TO.P,D3,2*%
%TO.N,Net-(D3-Pad2)*%
X157480000Y-106680000D03*
%TD*%
D15*
%TO.P,J1,1*%
%TO.N,+12V*%
X122936000Y-90170000D03*
D16*
%TO.P,J1,2*%
%TO.N,GND*%
X122936000Y-95170000D03*
%TD*%
D10*
%TO.P,R1,1*%
%TO.N,+5V*%
X137160000Y-101600000D03*
D17*
%TO.P,R1,2*%
%TO.N,Net-(R1-Pad2)*%
X137160000Y-91440000D03*
%TD*%
D18*
%TO.P,SW1,2*%
%TO.N,Net-(R1-Pad2)*%
X154940000Y-88210000D03*
%TO.P,SW1,1*%
%TO.N,Net-(D3-Pad1)*%
X154940000Y-92710000D03*
%TO.P,SW1,2*%
%TO.N,Net-(R1-Pad2)*%
X148440000Y-88210000D03*
%TO.P,SW1,1*%
%TO.N,Net-(D3-Pad1)*%
X148440000Y-92710000D03*
%TD*%
%TO.P,SW2,2*%
%TO.N,Net-(D3-Pad1)*%
X154940000Y-113030000D03*
%TO.P,SW2,1*%
%TO.N,GND*%
X154940000Y-117530000D03*
%TO.P,SW2,2*%
%TO.N,Net-(D3-Pad1)*%
X148440000Y-113030000D03*
%TO.P,SW2,1*%
%TO.N,GND*%
X148440000Y-117530000D03*
%TD*%
%TO.P,SW3,1*%
%TO.N,Net-(D2-Pad1)*%
X171300000Y-92710000D03*
%TO.P,SW3,2*%
%TO.N,Net-(R1-Pad2)*%
X171300000Y-88210000D03*
%TO.P,SW3,1*%
%TO.N,Net-(D2-Pad1)*%
X177800000Y-92710000D03*
%TO.P,SW3,2*%
%TO.N,Net-(R1-Pad2)*%
X177800000Y-88210000D03*
%TD*%
%TO.P,SW4,1*%
%TO.N,GND*%
X171300000Y-117530000D03*
%TO.P,SW4,2*%
%TO.N,Net-(D2-Pad1)*%
X171300000Y-113030000D03*
%TO.P,SW4,1*%
%TO.N,GND*%
X177800000Y-117530000D03*
%TO.P,SW4,2*%
%TO.N,Net-(D2-Pad1)*%
X177800000Y-113030000D03*
%TD*%
D19*
%TO.P,U1,1*%
%TO.N,Net-(C1-Pad1)*%
X124968000Y-111252000D03*
D20*
%TO.P,U1,2*%
%TO.N,GND*%
X124968000Y-113792000D03*
%TO.P,U1,3*%
%TO.N,+5V*%
X124968000Y-116332000D03*
%TD*%
D21*
%TO.P,J2,1*%
%TO.N,Net-(D3-Pad1)*%
X161925000Y-102870000D03*
D22*
%TO.P,J2,2*%
%TO.N,Net-(D2-Pad1)*%
X164465000Y-102870000D03*
%TD*%
D17*
%TO.P,R2,2*%
%TO.N,Net-(D2-Pad2)*%
X162560000Y-98425000D03*
D10*
%TO.P,R2,1*%
%TO.N,Net-(D3-Pad1)*%
X154940000Y-98425000D03*
%TD*%
%TO.P,R3,1*%
%TO.N,Net-(D2-Pad1)*%
X171450000Y-106680000D03*
D17*
%TO.P,R3,2*%
%TO.N,Net-(D3-Pad2)*%
X163830000Y-106680000D03*
%TD*%
D23*
%TO.N,GND*%
X131064000Y-108035990D02*
X131911990Y-107188000D01*
X131064000Y-111840000D02*
X131064000Y-108035990D01*
X129112000Y-113792000D02*
X131064000Y-111840000D01*
X124968000Y-113792000D02*
X129112000Y-113792000D01*
X123395498Y-113792000D02*
X124968000Y-113792000D01*
X122216001Y-112612503D02*
X123395498Y-113792000D01*
X122216001Y-107479999D02*
X122216001Y-112612503D01*
X123016000Y-106680000D02*
X122216001Y-107479999D01*
X122936000Y-101282718D02*
X122936000Y-95170000D01*
X122894992Y-101323726D02*
X122936000Y-101282718D01*
X122894992Y-104192992D02*
X122894992Y-101323726D01*
X123016000Y-104314000D02*
X122894992Y-104192992D01*
X123016000Y-106680000D02*
X123016000Y-104314000D01*
X148440000Y-117530000D02*
X177800000Y-117530000D01*
%TO.N,Net-(C1-Pad1)*%
X127762000Y-99568000D02*
X125095000Y-102235000D01*
X132080000Y-99568000D02*
X127762000Y-99568000D01*
X128016000Y-105156000D02*
X128016000Y-106680000D01*
X125095000Y-102235000D02*
X128016000Y-105156000D01*
X128016000Y-108204000D02*
X124968000Y-111252000D01*
X128016000Y-106680000D02*
X128016000Y-108204000D01*
%TO.N,+5V*%
X125476000Y-116840000D02*
X124968000Y-116332000D01*
X131064000Y-116840000D02*
X125476000Y-116840000D01*
X134112000Y-113792000D02*
X131064000Y-116840000D01*
X134112000Y-107188000D02*
X134112000Y-113792000D01*
X134112000Y-104648000D02*
X137160000Y-101600000D01*
X134112000Y-107188000D02*
X134112000Y-104648000D01*
%TO.N,+12V*%
X130302000Y-90170000D02*
X132080000Y-91948000D01*
X122936000Y-90170000D02*
X130302000Y-90170000D01*
%TO.N,Net-(D2-Pad2)*%
X162560000Y-98425000D02*
X168910000Y-98425000D01*
%TO.N,Net-(D3-Pad1)*%
X148440000Y-113030000D02*
X152400000Y-113030000D01*
X148440000Y-92710000D02*
X151765000Y-92710000D01*
X152400000Y-113030000D02*
X154940000Y-113030000D01*
X151765000Y-92710000D02*
X154940000Y-92710000D01*
%TO.N,Net-(R1-Pad2)*%
X148440000Y-88210000D02*
X154940000Y-88210000D01*
X154940000Y-88210000D02*
X177800000Y-88210000D01*
%TO.N,Net-(D2-Pad1)*%
X171300000Y-113030000D02*
X177800000Y-113030000D01*
X171300000Y-92710000D02*
X177800000Y-92710000D01*
X171450000Y-92860000D02*
X171300000Y-92710000D01*
X174625000Y-98425000D02*
X174625000Y-92860000D01*
X171450000Y-112880000D02*
X171300000Y-113030000D01*
X174625000Y-106830000D02*
X174625000Y-113030000D01*
X174625000Y-106680000D02*
X174625000Y-103505000D01*
X173990000Y-102870000D02*
X174625000Y-102235000D01*
X174625000Y-102235000D02*
X174625000Y-98425000D01*
X164465000Y-102870000D02*
X173990000Y-102870000D01*
X174625000Y-103505000D02*
X174625000Y-102235000D01*
X171450000Y-98425000D02*
X174625000Y-98425000D01*
X171450000Y-106680000D02*
X174625000Y-106680000D01*
%TO.N,Net-(D3-Pad1)*%
X152400000Y-106680000D02*
X151765000Y-107315000D01*
X154940000Y-106680000D02*
X152400000Y-106680000D01*
X151765000Y-107315000D02*
X151765000Y-112395000D01*
X151765000Y-102870000D02*
X151765000Y-107315000D01*
X161925000Y-102870000D02*
X151765000Y-102870000D01*
X152400000Y-98425000D02*
X151765000Y-97790000D01*
X154940000Y-98425000D02*
X152400000Y-98425000D01*
X151765000Y-97790000D02*
X151765000Y-103505000D01*
X151765000Y-92710000D02*
X151765000Y-97790000D01*
%TO.N,Net-(D3-Pad2)*%
X163830000Y-106680000D02*
X157480000Y-106680000D01*
%TD*%
M02*
