%TF.GenerationSoftware,KiCad,Pcbnew,(5.1.12)-1*%
%TF.CreationDate,2022-07-23T16:16:35+09:00*%
%TF.ProjectId,FullBridge_demo_kit,46756c6c-4272-4696-9467-655f64656d6f,rev?*%
%TF.SameCoordinates,Original*%
%TF.FileFunction,Soldermask,Bot*%
%TF.FilePolarity,Negative*%
%FSLAX46Y46*%
G04 Gerber Fmt 4.6, Leading zero omitted, Abs format (unit mm)*
G04 Created by KiCad (PCBNEW (5.1.12)-1) date 2022-07-23 16:16:35*
%MOMM*%
%LPD*%
G01*
G04 APERTURE LIST*
%ADD10C,1.600000*%
%ADD11R,1.600000X1.600000*%
%ADD12R,1.800000X1.800000*%
%ADD13O,1.800000X1.800000*%
%ADD14C,1.800000*%
%ADD15R,3.960000X1.980000*%
%ADD16O,3.960000X1.980000*%
%ADD17O,1.600000X1.600000*%
%ADD18R,2.000000X1.905000*%
%ADD19O,2.000000X1.905000*%
%ADD20R,1.700000X1.700000*%
%ADD21O,1.700000X1.700000*%
%ADD22C,2.000000*%
G04 APERTURE END LIST*
D10*
%TO.C,C1*%
X120618000Y-113284000D03*
D11*
X118618000Y-113284000D03*
%TD*%
D10*
%TO.C,C2*%
X124206000Y-115062000D03*
X124206000Y-110062000D03*
%TD*%
%TO.C,C3*%
X132588000Y-113204000D03*
X132588000Y-108204000D03*
%TD*%
D11*
%TO.C,C4*%
X136652000Y-105156000D03*
D10*
X136652000Y-107156000D03*
%TD*%
D12*
%TO.C,D1*%
X118364000Y-108204000D03*
D13*
X118364000Y-100584000D03*
%TD*%
D14*
%TO.C,D2*%
X168910000Y-98425000D03*
D12*
X171450000Y-98425000D03*
%TD*%
%TO.C,D3*%
X154940000Y-106680000D03*
D14*
X157480000Y-106680000D03*
%TD*%
D15*
%TO.C,J1*%
X120650000Y-90170000D03*
D16*
X120650000Y-95170000D03*
%TD*%
D10*
%TO.C,R1*%
X136652000Y-98298000D03*
D17*
X136652000Y-88138000D03*
%TD*%
D18*
%TO.C,U1*%
X129286000Y-113284000D03*
D19*
X129286000Y-110744000D03*
X129286000Y-108204000D03*
%TD*%
D20*
%TO.C,J2*%
X161925000Y-102870000D03*
D21*
X164465000Y-102870000D03*
%TD*%
D17*
%TO.C,R2*%
X162560000Y-98425000D03*
D10*
X154940000Y-98425000D03*
%TD*%
%TO.C,R3*%
X171450000Y-106680000D03*
D17*
X163830000Y-106680000D03*
%TD*%
D22*
%TO.C,SW1*%
X154686000Y-87956000D03*
X154686000Y-92456000D03*
X148186000Y-87956000D03*
X148186000Y-92456000D03*
%TD*%
%TO.C,SW2*%
X154686000Y-113102000D03*
X154686000Y-117602000D03*
X148186000Y-113102000D03*
X148186000Y-117602000D03*
%TD*%
%TO.C,SW3*%
X171300000Y-92456000D03*
X171300000Y-87956000D03*
X177800000Y-92456000D03*
X177800000Y-87956000D03*
%TD*%
%TO.C,SW4*%
X171300000Y-117602000D03*
X171300000Y-113102000D03*
X177800000Y-117602000D03*
X177800000Y-113102000D03*
%TD*%
M02*
