%TF.GenerationSoftware,KiCad,Pcbnew,(5.1.12)-1*%
%TF.CreationDate,2022-07-23T17:19:18+09:00*%
%TF.ProjectId,FullBridge_demo_kit,46756c6c-4272-4696-9467-655f64656d6f,rev?*%
%TF.SameCoordinates,Original*%
%TF.FileFunction,Copper,L1,Top*%
%TF.FilePolarity,Positive*%
%FSLAX46Y46*%
G04 Gerber Fmt 4.6, Leading zero omitted, Abs format (unit mm)*
G04 Created by KiCad (PCBNEW (5.1.12)-1) date 2022-07-23 17:19:18*
%MOMM*%
%LPD*%
G01*
G04 APERTURE LIST*
%TA.AperFunction,ComponentPad*%
%ADD10R,3.960000X1.980000*%
%TD*%
%TA.AperFunction,ComponentPad*%
%ADD11O,3.960000X1.980000*%
%TD*%
%TA.AperFunction,ComponentPad*%
%ADD12C,1.600000*%
%TD*%
%TA.AperFunction,ComponentPad*%
%ADD13R,1.600000X1.600000*%
%TD*%
%TA.AperFunction,ComponentPad*%
%ADD14R,1.800000X1.800000*%
%TD*%
%TA.AperFunction,ComponentPad*%
%ADD15O,1.800000X1.800000*%
%TD*%
%TA.AperFunction,ComponentPad*%
%ADD16C,1.800000*%
%TD*%
%TA.AperFunction,ComponentPad*%
%ADD17O,1.600000X1.600000*%
%TD*%
%TA.AperFunction,ComponentPad*%
%ADD18R,2.000000X1.905000*%
%TD*%
%TA.AperFunction,ComponentPad*%
%ADD19O,2.000000X1.905000*%
%TD*%
%TA.AperFunction,ComponentPad*%
%ADD20R,1.700000X1.700000*%
%TD*%
%TA.AperFunction,ComponentPad*%
%ADD21O,1.700000X1.700000*%
%TD*%
%TA.AperFunction,ComponentPad*%
%ADD22C,2.000000*%
%TD*%
%TA.AperFunction,Conductor*%
%ADD23C,1.500000*%
%TD*%
%TA.AperFunction,Conductor*%
%ADD24C,2.000000*%
%TD*%
%TA.AperFunction,Conductor*%
%ADD25C,0.254000*%
%TD*%
%TA.AperFunction,Conductor*%
%ADD26C,0.100000*%
%TD*%
G04 APERTURE END LIST*
D10*
%TO.P,J1,1*%
%TO.N,+12V*%
X120650000Y-90170000D03*
D11*
%TO.P,J1,2*%
%TO.N,GND*%
X120650000Y-95170000D03*
%TD*%
D12*
%TO.P,C1,2*%
%TO.N,GND*%
X120700000Y-108400000D03*
D13*
%TO.P,C1,1*%
%TO.N,Net-(C1-Pad1)*%
X118700000Y-108400000D03*
%TD*%
D12*
%TO.P,C2,1*%
%TO.N,Net-(C1-Pad1)*%
X124206000Y-115062000D03*
%TO.P,C2,2*%
%TO.N,GND*%
X124206000Y-110062000D03*
%TD*%
%TO.P,C3,2*%
%TO.N,GND*%
X132588000Y-113204000D03*
%TO.P,C3,1*%
%TO.N,+5V*%
X132588000Y-108204000D03*
%TD*%
D13*
%TO.P,C4,1*%
%TO.N,+5V*%
X136652000Y-105156000D03*
D12*
%TO.P,C4,2*%
%TO.N,GND*%
X136652000Y-107156000D03*
%TD*%
D14*
%TO.P,D1,1*%
%TO.N,Net-(C1-Pad1)*%
X118600000Y-101500000D03*
D15*
%TO.P,D1,2*%
%TO.N,+12V*%
X126220000Y-101500000D03*
%TD*%
D16*
%TO.P,D2,2*%
%TO.N,Net-(D2-Pad2)*%
X168910000Y-98425000D03*
D14*
%TO.P,D2,1*%
%TO.N,Net-(D2-Pad1)*%
X171450000Y-98425000D03*
%TD*%
%TO.P,D3,1*%
%TO.N,Net-(D3-Pad1)*%
X154940000Y-106680000D03*
D16*
%TO.P,D3,2*%
%TO.N,Net-(D3-Pad2)*%
X157480000Y-106680000D03*
%TD*%
D12*
%TO.P,R1,1*%
%TO.N,+5V*%
X136652000Y-98298000D03*
D17*
%TO.P,R1,2*%
%TO.N,Net-(R1-Pad2)*%
X136652000Y-88138000D03*
%TD*%
D18*
%TO.P,U1,1*%
%TO.N,Net-(C1-Pad1)*%
X129286000Y-113284000D03*
D19*
%TO.P,U1,2*%
%TO.N,GND*%
X129286000Y-110744000D03*
%TO.P,U1,3*%
%TO.N,+5V*%
X129286000Y-108204000D03*
%TD*%
D20*
%TO.P,J2,1*%
%TO.N,Net-(D3-Pad1)*%
X161925000Y-102870000D03*
D21*
%TO.P,J2,2*%
%TO.N,Net-(D2-Pad1)*%
X164465000Y-102870000D03*
%TD*%
D17*
%TO.P,R2,2*%
%TO.N,Net-(D2-Pad2)*%
X162560000Y-98425000D03*
D12*
%TO.P,R2,1*%
%TO.N,Net-(D3-Pad1)*%
X154940000Y-98425000D03*
%TD*%
%TO.P,R3,1*%
%TO.N,Net-(D2-Pad1)*%
X171450000Y-106680000D03*
D17*
%TO.P,R3,2*%
%TO.N,Net-(D3-Pad2)*%
X163830000Y-106680000D03*
%TD*%
D22*
%TO.P,SW1,2*%
%TO.N,Net-(R1-Pad2)*%
X154686000Y-87956000D03*
%TO.P,SW1,1*%
%TO.N,Net-(D3-Pad1)*%
X154686000Y-92456000D03*
%TO.P,SW1,2*%
%TO.N,Net-(R1-Pad2)*%
X148186000Y-87956000D03*
%TO.P,SW1,1*%
%TO.N,Net-(D3-Pad1)*%
X148186000Y-92456000D03*
%TD*%
%TO.P,SW2,2*%
%TO.N,Net-(D3-Pad1)*%
X154686000Y-113102000D03*
%TO.P,SW2,1*%
%TO.N,GND*%
X154686000Y-117602000D03*
%TO.P,SW2,2*%
%TO.N,Net-(D3-Pad1)*%
X148186000Y-113102000D03*
%TO.P,SW2,1*%
%TO.N,GND*%
X148186000Y-117602000D03*
%TD*%
%TO.P,SW3,1*%
%TO.N,Net-(D2-Pad1)*%
X171300000Y-92456000D03*
%TO.P,SW3,2*%
%TO.N,Net-(R1-Pad2)*%
X171300000Y-87956000D03*
%TO.P,SW3,1*%
%TO.N,Net-(D2-Pad1)*%
X177800000Y-92456000D03*
%TO.P,SW3,2*%
%TO.N,Net-(R1-Pad2)*%
X177800000Y-87956000D03*
%TD*%
%TO.P,SW4,1*%
%TO.N,GND*%
X171300000Y-117602000D03*
%TO.P,SW4,2*%
%TO.N,Net-(D2-Pad1)*%
X171300000Y-113102000D03*
%TO.P,SW4,1*%
%TO.N,GND*%
X177800000Y-117602000D03*
%TO.P,SW4,2*%
%TO.N,Net-(D2-Pad1)*%
X177800000Y-113102000D03*
%TD*%
D23*
%TO.N,Net-(C1-Pad1)*%
X127508000Y-115062000D02*
X129286000Y-113284000D01*
X124206000Y-115062000D02*
X127508000Y-115062000D01*
X118600000Y-108300000D02*
X118700000Y-108400000D01*
X118600000Y-101500000D02*
X118600000Y-108300000D01*
X118700000Y-108400000D02*
X118700000Y-111800000D01*
X121962000Y-115062000D02*
X124206000Y-115062000D01*
X118700000Y-111800000D02*
X121962000Y-115062000D01*
%TO.N,+5V*%
X129286000Y-108204000D02*
X132588000Y-108204000D01*
X135636000Y-105156000D02*
X136652000Y-105156000D01*
X132588000Y-108204000D02*
X135636000Y-105156000D01*
X136652000Y-98298000D02*
X136652000Y-105156000D01*
%TO.N,+12V*%
X126220000Y-95740000D02*
X120650000Y-90170000D01*
X126220000Y-101500000D02*
X126220000Y-95740000D01*
D24*
%TO.N,Net-(D2-Pad2)*%
X162560000Y-98425000D02*
X168910000Y-98425000D01*
%TO.N,Net-(D2-Pad1)*%
X171300000Y-113030000D02*
X177800000Y-113030000D01*
X171300000Y-92710000D02*
X177800000Y-92710000D01*
X171450000Y-92860000D02*
X171300000Y-92710000D01*
X174625000Y-98425000D02*
X174625000Y-92860000D01*
X171450000Y-112880000D02*
X171300000Y-113030000D01*
X174625000Y-106830000D02*
X174625000Y-113030000D01*
X174625000Y-106680000D02*
X174625000Y-103505000D01*
X173990000Y-102870000D02*
X174625000Y-102235000D01*
X174625000Y-102235000D02*
X174625000Y-98425000D01*
X164465000Y-102870000D02*
X173990000Y-102870000D01*
X174625000Y-103505000D02*
X174625000Y-102235000D01*
X171450000Y-98425000D02*
X174625000Y-98425000D01*
X171450000Y-106680000D02*
X174625000Y-106680000D01*
D23*
%TO.N,Net-(R1-Pad2)*%
X154686000Y-87956000D02*
X148186000Y-87956000D01*
X136834000Y-87956000D02*
X136652000Y-88138000D01*
X154686000Y-87956000D02*
X177800000Y-87956000D01*
X148004000Y-88138000D02*
X148186000Y-87956000D01*
X136652000Y-88138000D02*
X148004000Y-88138000D01*
D24*
%TO.N,Net-(D3-Pad1)*%
X148440000Y-113030000D02*
X152400000Y-113030000D01*
X148440000Y-92710000D02*
X151765000Y-92710000D01*
X152400000Y-113030000D02*
X154940000Y-113030000D01*
X151765000Y-92710000D02*
X154940000Y-92710000D01*
X152400000Y-106680000D02*
X151765000Y-107315000D01*
X154940000Y-106680000D02*
X152400000Y-106680000D01*
X151765000Y-107315000D02*
X151765000Y-112395000D01*
X151765000Y-102870000D02*
X151765000Y-107315000D01*
X161925000Y-102870000D02*
X151765000Y-102870000D01*
X152400000Y-98425000D02*
X151765000Y-97790000D01*
X154940000Y-98425000D02*
X152400000Y-98425000D01*
X151765000Y-97790000D02*
X151765000Y-103505000D01*
X151765000Y-92710000D02*
X151765000Y-97790000D01*
%TO.N,Net-(D3-Pad2)*%
X163830000Y-106680000D02*
X157480000Y-106680000D01*
%TD*%
D25*
%TO.N,GND*%
X187740001Y-124440000D02*
X117060000Y-124440000D01*
X117060000Y-121876521D01*
X117130979Y-121876521D01*
X117130979Y-122323479D01*
X117218176Y-122761849D01*
X117389220Y-123174785D01*
X117637536Y-123546417D01*
X117953583Y-123862464D01*
X118325215Y-124110780D01*
X118738151Y-124281824D01*
X119176521Y-124369021D01*
X119623479Y-124369021D01*
X120061849Y-124281824D01*
X120474785Y-124110780D01*
X120846417Y-123862464D01*
X121162464Y-123546417D01*
X121410780Y-123174785D01*
X121581824Y-122761849D01*
X121669021Y-122323479D01*
X121669021Y-121876521D01*
X183130979Y-121876521D01*
X183130979Y-122323479D01*
X183218176Y-122761849D01*
X183389220Y-123174785D01*
X183637536Y-123546417D01*
X183953583Y-123862464D01*
X184325215Y-124110780D01*
X184738151Y-124281824D01*
X185176521Y-124369021D01*
X185623479Y-124369021D01*
X186061849Y-124281824D01*
X186474785Y-124110780D01*
X186846417Y-123862464D01*
X187162464Y-123546417D01*
X187410780Y-123174785D01*
X187581824Y-122761849D01*
X187669021Y-122323479D01*
X187669021Y-121876521D01*
X187581824Y-121438151D01*
X187410780Y-121025215D01*
X187162464Y-120653583D01*
X186846417Y-120337536D01*
X186474785Y-120089220D01*
X186061849Y-119918176D01*
X185623479Y-119830979D01*
X185176521Y-119830979D01*
X184738151Y-119918176D01*
X184325215Y-120089220D01*
X183953583Y-120337536D01*
X183637536Y-120653583D01*
X183389220Y-121025215D01*
X183218176Y-121438151D01*
X183130979Y-121876521D01*
X121669021Y-121876521D01*
X121581824Y-121438151D01*
X121410780Y-121025215D01*
X121162464Y-120653583D01*
X120846417Y-120337536D01*
X120474785Y-120089220D01*
X120061849Y-119918176D01*
X119623479Y-119830979D01*
X119176521Y-119830979D01*
X118738151Y-119918176D01*
X118325215Y-120089220D01*
X117953583Y-120337536D01*
X117637536Y-120653583D01*
X117389220Y-121025215D01*
X117218176Y-121438151D01*
X117130979Y-121876521D01*
X117060000Y-121876521D01*
X117060000Y-118737413D01*
X147230192Y-118737413D01*
X147325956Y-119001814D01*
X147615571Y-119142704D01*
X147927108Y-119224384D01*
X148248595Y-119243718D01*
X148567675Y-119199961D01*
X148872088Y-119094795D01*
X149046044Y-119001814D01*
X149141808Y-118737413D01*
X153730192Y-118737413D01*
X153825956Y-119001814D01*
X154115571Y-119142704D01*
X154427108Y-119224384D01*
X154748595Y-119243718D01*
X155067675Y-119199961D01*
X155372088Y-119094795D01*
X155546044Y-119001814D01*
X155641808Y-118737413D01*
X170344192Y-118737413D01*
X170439956Y-119001814D01*
X170729571Y-119142704D01*
X171041108Y-119224384D01*
X171362595Y-119243718D01*
X171681675Y-119199961D01*
X171986088Y-119094795D01*
X172160044Y-119001814D01*
X172255808Y-118737413D01*
X176844192Y-118737413D01*
X176939956Y-119001814D01*
X177229571Y-119142704D01*
X177541108Y-119224384D01*
X177862595Y-119243718D01*
X178181675Y-119199961D01*
X178486088Y-119094795D01*
X178660044Y-119001814D01*
X178755808Y-118737413D01*
X177800000Y-117781605D01*
X176844192Y-118737413D01*
X172255808Y-118737413D01*
X171300000Y-117781605D01*
X170344192Y-118737413D01*
X155641808Y-118737413D01*
X154686000Y-117781605D01*
X153730192Y-118737413D01*
X149141808Y-118737413D01*
X148186000Y-117781605D01*
X147230192Y-118737413D01*
X117060000Y-118737413D01*
X117060000Y-117664595D01*
X146544282Y-117664595D01*
X146588039Y-117983675D01*
X146693205Y-118288088D01*
X146786186Y-118462044D01*
X147050587Y-118557808D01*
X148006395Y-117602000D01*
X148365605Y-117602000D01*
X149321413Y-118557808D01*
X149585814Y-118462044D01*
X149726704Y-118172429D01*
X149808384Y-117860892D01*
X149820189Y-117664595D01*
X153044282Y-117664595D01*
X153088039Y-117983675D01*
X153193205Y-118288088D01*
X153286186Y-118462044D01*
X153550587Y-118557808D01*
X154506395Y-117602000D01*
X154865605Y-117602000D01*
X155821413Y-118557808D01*
X156085814Y-118462044D01*
X156226704Y-118172429D01*
X156308384Y-117860892D01*
X156320189Y-117664595D01*
X169658282Y-117664595D01*
X169702039Y-117983675D01*
X169807205Y-118288088D01*
X169900186Y-118462044D01*
X170164587Y-118557808D01*
X171120395Y-117602000D01*
X171479605Y-117602000D01*
X172435413Y-118557808D01*
X172699814Y-118462044D01*
X172840704Y-118172429D01*
X172922384Y-117860892D01*
X172934189Y-117664595D01*
X176158282Y-117664595D01*
X176202039Y-117983675D01*
X176307205Y-118288088D01*
X176400186Y-118462044D01*
X176664587Y-118557808D01*
X177620395Y-117602000D01*
X177979605Y-117602000D01*
X178935413Y-118557808D01*
X179199814Y-118462044D01*
X179340704Y-118172429D01*
X179422384Y-117860892D01*
X179441718Y-117539405D01*
X179397961Y-117220325D01*
X179292795Y-116915912D01*
X179199814Y-116741956D01*
X178935413Y-116646192D01*
X177979605Y-117602000D01*
X177620395Y-117602000D01*
X176664587Y-116646192D01*
X176400186Y-116741956D01*
X176259296Y-117031571D01*
X176177616Y-117343108D01*
X176158282Y-117664595D01*
X172934189Y-117664595D01*
X172941718Y-117539405D01*
X172897961Y-117220325D01*
X172792795Y-116915912D01*
X172699814Y-116741956D01*
X172435413Y-116646192D01*
X171479605Y-117602000D01*
X171120395Y-117602000D01*
X170164587Y-116646192D01*
X169900186Y-116741956D01*
X169759296Y-117031571D01*
X169677616Y-117343108D01*
X169658282Y-117664595D01*
X156320189Y-117664595D01*
X156327718Y-117539405D01*
X156283961Y-117220325D01*
X156178795Y-116915912D01*
X156085814Y-116741956D01*
X155821413Y-116646192D01*
X154865605Y-117602000D01*
X154506395Y-117602000D01*
X153550587Y-116646192D01*
X153286186Y-116741956D01*
X153145296Y-117031571D01*
X153063616Y-117343108D01*
X153044282Y-117664595D01*
X149820189Y-117664595D01*
X149827718Y-117539405D01*
X149783961Y-117220325D01*
X149678795Y-116915912D01*
X149585814Y-116741956D01*
X149321413Y-116646192D01*
X148365605Y-117602000D01*
X148006395Y-117602000D01*
X147050587Y-116646192D01*
X146786186Y-116741956D01*
X146645296Y-117031571D01*
X146563616Y-117343108D01*
X146544282Y-117664595D01*
X117060000Y-117664595D01*
X117060000Y-100600000D01*
X117061928Y-100600000D01*
X117061928Y-102400000D01*
X117074188Y-102524482D01*
X117110498Y-102644180D01*
X117169463Y-102754494D01*
X117215000Y-102809981D01*
X117215001Y-108231961D01*
X117208300Y-108300000D01*
X117235040Y-108571507D01*
X117261928Y-108660144D01*
X117261928Y-109200000D01*
X117274188Y-109324482D01*
X117310498Y-109444180D01*
X117315000Y-109452603D01*
X117315001Y-111731961D01*
X117308300Y-111800000D01*
X117335040Y-112071507D01*
X117414236Y-112332580D01*
X117542844Y-112573188D01*
X117672548Y-112731233D01*
X117672551Y-112731236D01*
X117715920Y-112784081D01*
X117768764Y-112827449D01*
X120934550Y-115993236D01*
X120977919Y-116046081D01*
X121030764Y-116089450D01*
X121030766Y-116089452D01*
X121137001Y-116176637D01*
X121188812Y-116219157D01*
X121429419Y-116347764D01*
X121690493Y-116426960D01*
X121893963Y-116447000D01*
X121893971Y-116447000D01*
X121962000Y-116453700D01*
X122030029Y-116447000D01*
X123813301Y-116447000D01*
X124064665Y-116497000D01*
X124347335Y-116497000D01*
X124500229Y-116466587D01*
X147230192Y-116466587D01*
X148186000Y-117422395D01*
X149141808Y-116466587D01*
X153730192Y-116466587D01*
X154686000Y-117422395D01*
X155641808Y-116466587D01*
X170344192Y-116466587D01*
X171300000Y-117422395D01*
X172255808Y-116466587D01*
X176844192Y-116466587D01*
X177800000Y-117422395D01*
X178755808Y-116466587D01*
X178660044Y-116202186D01*
X178370429Y-116061296D01*
X178058892Y-115979616D01*
X177737405Y-115960282D01*
X177418325Y-116004039D01*
X177113912Y-116109205D01*
X176939956Y-116202186D01*
X176844192Y-116466587D01*
X172255808Y-116466587D01*
X172160044Y-116202186D01*
X171870429Y-116061296D01*
X171558892Y-115979616D01*
X171237405Y-115960282D01*
X170918325Y-116004039D01*
X170613912Y-116109205D01*
X170439956Y-116202186D01*
X170344192Y-116466587D01*
X155641808Y-116466587D01*
X155546044Y-116202186D01*
X155256429Y-116061296D01*
X154944892Y-115979616D01*
X154623405Y-115960282D01*
X154304325Y-116004039D01*
X153999912Y-116109205D01*
X153825956Y-116202186D01*
X153730192Y-116466587D01*
X149141808Y-116466587D01*
X149046044Y-116202186D01*
X148756429Y-116061296D01*
X148444892Y-115979616D01*
X148123405Y-115960282D01*
X147804325Y-116004039D01*
X147499912Y-116109205D01*
X147325956Y-116202186D01*
X147230192Y-116466587D01*
X124500229Y-116466587D01*
X124598699Y-116447000D01*
X127439971Y-116447000D01*
X127508000Y-116453700D01*
X127576029Y-116447000D01*
X127576037Y-116447000D01*
X127779507Y-116426960D01*
X128040581Y-116347764D01*
X128281188Y-116219157D01*
X128492081Y-116046081D01*
X128535454Y-115993231D01*
X129654114Y-114874572D01*
X130286000Y-114874572D01*
X130410482Y-114862312D01*
X130530180Y-114826002D01*
X130640494Y-114767037D01*
X130737185Y-114687685D01*
X130816537Y-114590994D01*
X130875502Y-114480680D01*
X130911812Y-114360982D01*
X130924072Y-114236500D01*
X130924072Y-114196702D01*
X131774903Y-114196702D01*
X131846486Y-114440671D01*
X132101996Y-114561571D01*
X132376184Y-114630300D01*
X132658512Y-114644217D01*
X132938130Y-114602787D01*
X133204292Y-114507603D01*
X133329514Y-114440671D01*
X133401097Y-114196702D01*
X132588000Y-113383605D01*
X131774903Y-114196702D01*
X130924072Y-114196702D01*
X130924072Y-113274512D01*
X131147783Y-113274512D01*
X131189213Y-113554130D01*
X131284397Y-113820292D01*
X131351329Y-113945514D01*
X131595298Y-114017097D01*
X132408395Y-113204000D01*
X132767605Y-113204000D01*
X133580702Y-114017097D01*
X133824671Y-113945514D01*
X133945571Y-113690004D01*
X134014300Y-113415816D01*
X134028217Y-113133488D01*
X133986787Y-112853870D01*
X133891603Y-112587708D01*
X133824671Y-112462486D01*
X133580702Y-112390903D01*
X132767605Y-113204000D01*
X132408395Y-113204000D01*
X131595298Y-112390903D01*
X131351329Y-112462486D01*
X131230429Y-112717996D01*
X131161700Y-112992184D01*
X131147783Y-113274512D01*
X130924072Y-113274512D01*
X130924072Y-112331500D01*
X130912234Y-112211298D01*
X131774903Y-112211298D01*
X132588000Y-113024395D01*
X133401097Y-112211298D01*
X133329514Y-111967329D01*
X133074004Y-111846429D01*
X132799816Y-111777700D01*
X132517488Y-111763783D01*
X132237870Y-111805213D01*
X131971708Y-111900397D01*
X131846486Y-111967329D01*
X131774903Y-112211298D01*
X130912234Y-112211298D01*
X130911812Y-112207018D01*
X130875502Y-112087320D01*
X130816537Y-111977006D01*
X130737185Y-111880315D01*
X130640494Y-111800963D01*
X130548781Y-111751941D01*
X130661969Y-111610923D01*
X130805571Y-111335094D01*
X130876563Y-111116980D01*
X130756594Y-110871000D01*
X129413000Y-110871000D01*
X129413000Y-110891000D01*
X129159000Y-110891000D01*
X129159000Y-110871000D01*
X127815406Y-110871000D01*
X127695437Y-111116980D01*
X127766429Y-111335094D01*
X127910031Y-111610923D01*
X128023219Y-111751941D01*
X127931506Y-111800963D01*
X127834815Y-111880315D01*
X127755463Y-111977006D01*
X127696498Y-112087320D01*
X127660188Y-112207018D01*
X127647928Y-112331500D01*
X127647928Y-112963386D01*
X126934315Y-113677000D01*
X124598699Y-113677000D01*
X124347335Y-113627000D01*
X124064665Y-113627000D01*
X123813301Y-113677000D01*
X122535686Y-113677000D01*
X120085000Y-111226315D01*
X120085000Y-111054702D01*
X123392903Y-111054702D01*
X123464486Y-111298671D01*
X123719996Y-111419571D01*
X123994184Y-111488300D01*
X124276512Y-111502217D01*
X124556130Y-111460787D01*
X124822292Y-111365603D01*
X124947514Y-111298671D01*
X125019097Y-111054702D01*
X124206000Y-110241605D01*
X123392903Y-111054702D01*
X120085000Y-111054702D01*
X120085000Y-110132512D01*
X122765783Y-110132512D01*
X122807213Y-110412130D01*
X122902397Y-110678292D01*
X122969329Y-110803514D01*
X123213298Y-110875097D01*
X124026395Y-110062000D01*
X124385605Y-110062000D01*
X125198702Y-110875097D01*
X125442671Y-110803514D01*
X125563571Y-110548004D01*
X125632300Y-110273816D01*
X125646217Y-109991488D01*
X125604787Y-109711870D01*
X125509603Y-109445708D01*
X125442671Y-109320486D01*
X125198702Y-109248903D01*
X124385605Y-110062000D01*
X124026395Y-110062000D01*
X123213298Y-109248903D01*
X122969329Y-109320486D01*
X122848429Y-109575996D01*
X122779700Y-109850184D01*
X122765783Y-110132512D01*
X120085000Y-110132512D01*
X120085000Y-109696534D01*
X120213996Y-109757571D01*
X120488184Y-109826300D01*
X120770512Y-109840217D01*
X121050130Y-109798787D01*
X121316292Y-109703603D01*
X121441514Y-109636671D01*
X121513097Y-109392702D01*
X120700000Y-108579605D01*
X120685858Y-108593748D01*
X120506253Y-108414143D01*
X120520395Y-108400000D01*
X120879605Y-108400000D01*
X121692702Y-109213097D01*
X121936671Y-109141514D01*
X121970841Y-109069298D01*
X123392903Y-109069298D01*
X124206000Y-109882395D01*
X125019097Y-109069298D01*
X124947514Y-108825329D01*
X124692004Y-108704429D01*
X124417816Y-108635700D01*
X124135488Y-108621783D01*
X123855870Y-108663213D01*
X123589708Y-108758397D01*
X123464486Y-108825329D01*
X123392903Y-109069298D01*
X121970841Y-109069298D01*
X122057571Y-108886004D01*
X122126300Y-108611816D01*
X122140217Y-108329488D01*
X122121624Y-108204000D01*
X127643319Y-108204000D01*
X127673970Y-108515204D01*
X127764745Y-108814449D01*
X127912155Y-109090235D01*
X128110537Y-109331963D01*
X128289899Y-109479163D01*
X128104685Y-109634563D01*
X127910031Y-109877077D01*
X127766429Y-110152906D01*
X127695437Y-110371020D01*
X127815406Y-110617000D01*
X129159000Y-110617000D01*
X129159000Y-110597000D01*
X129413000Y-110597000D01*
X129413000Y-110617000D01*
X130756594Y-110617000D01*
X130876563Y-110371020D01*
X130805571Y-110152906D01*
X130661969Y-109877077D01*
X130467315Y-109634563D01*
X130413011Y-109589000D01*
X132195301Y-109589000D01*
X132446665Y-109639000D01*
X132729335Y-109639000D01*
X133006574Y-109583853D01*
X133267727Y-109475680D01*
X133502759Y-109318637D01*
X133702637Y-109118759D01*
X133845024Y-108905661D01*
X134601983Y-108148702D01*
X135838903Y-108148702D01*
X135910486Y-108392671D01*
X136165996Y-108513571D01*
X136440184Y-108582300D01*
X136722512Y-108596217D01*
X137002130Y-108554787D01*
X137268292Y-108459603D01*
X137393514Y-108392671D01*
X137465097Y-108148702D01*
X136652000Y-107335605D01*
X135838903Y-108148702D01*
X134601983Y-108148702D01*
X135252096Y-107498590D01*
X135253213Y-107506130D01*
X135348397Y-107772292D01*
X135415329Y-107897514D01*
X135659298Y-107969097D01*
X136472395Y-107156000D01*
X136458253Y-107141858D01*
X136637858Y-106962253D01*
X136652000Y-106976395D01*
X136666143Y-106962253D01*
X136845748Y-107141858D01*
X136831605Y-107156000D01*
X137644702Y-107969097D01*
X137888671Y-107897514D01*
X138009571Y-107642004D01*
X138078300Y-107367816D01*
X138092217Y-107085488D01*
X138050787Y-106805870D01*
X137955603Y-106539708D01*
X137890384Y-106417691D01*
X137903185Y-106407185D01*
X137982537Y-106310494D01*
X138041502Y-106200180D01*
X138077812Y-106080482D01*
X138090072Y-105956000D01*
X138090072Y-104356000D01*
X138077812Y-104231518D01*
X138041502Y-104111820D01*
X138037000Y-104103397D01*
X138037000Y-98690699D01*
X138087000Y-98439335D01*
X138087000Y-98156665D01*
X138031853Y-97879426D01*
X137923680Y-97618273D01*
X137766637Y-97383241D01*
X137566759Y-97183363D01*
X137331727Y-97026320D01*
X137070574Y-96918147D01*
X136793335Y-96863000D01*
X136510665Y-96863000D01*
X136233426Y-96918147D01*
X135972273Y-97026320D01*
X135737241Y-97183363D01*
X135537363Y-97383241D01*
X135380320Y-97618273D01*
X135272147Y-97879426D01*
X135217000Y-98156665D01*
X135217000Y-98439335D01*
X135267000Y-98690699D01*
X135267001Y-103820614D01*
X135103419Y-103870236D01*
X134862812Y-103998843D01*
X134822759Y-104031714D01*
X134704766Y-104128548D01*
X134704764Y-104128550D01*
X134651919Y-104171919D01*
X134608550Y-104224764D01*
X132014315Y-106819000D01*
X130109999Y-106819000D01*
X129943949Y-106730245D01*
X129644704Y-106639470D01*
X129411486Y-106616500D01*
X129160514Y-106616500D01*
X128927296Y-106639470D01*
X128628051Y-106730245D01*
X128352265Y-106877655D01*
X128110537Y-107076037D01*
X127912155Y-107317765D01*
X127764745Y-107593551D01*
X127673970Y-107892796D01*
X127643319Y-108204000D01*
X122121624Y-108204000D01*
X122098787Y-108049870D01*
X122003603Y-107783708D01*
X121936671Y-107658486D01*
X121692702Y-107586903D01*
X120879605Y-108400000D01*
X120520395Y-108400000D01*
X120506253Y-108385858D01*
X120685858Y-108206253D01*
X120700000Y-108220395D01*
X121513097Y-107407298D01*
X121441514Y-107163329D01*
X121186004Y-107042429D01*
X120911816Y-106973700D01*
X120629488Y-106959783D01*
X120349870Y-107001213D01*
X120083708Y-107096397D01*
X119985000Y-107149157D01*
X119985000Y-102809981D01*
X120030537Y-102754494D01*
X120089502Y-102644180D01*
X120125812Y-102524482D01*
X120138072Y-102400000D01*
X120138072Y-100600000D01*
X120125812Y-100475518D01*
X120089502Y-100355820D01*
X120030537Y-100245506D01*
X119951185Y-100148815D01*
X119854494Y-100069463D01*
X119744180Y-100010498D01*
X119624482Y-99974188D01*
X119500000Y-99961928D01*
X117700000Y-99961928D01*
X117575518Y-99974188D01*
X117455820Y-100010498D01*
X117345506Y-100069463D01*
X117248815Y-100148815D01*
X117169463Y-100245506D01*
X117110498Y-100355820D01*
X117074188Y-100475518D01*
X117061928Y-100600000D01*
X117060000Y-100600000D01*
X117060000Y-95548865D01*
X118079782Y-95548865D01*
X118110095Y-95674528D01*
X118238304Y-95967205D01*
X118421148Y-96229246D01*
X118651601Y-96450581D01*
X118920806Y-96622704D01*
X119218418Y-96739000D01*
X119533000Y-96795000D01*
X120523000Y-96795000D01*
X120523000Y-95297000D01*
X120777000Y-95297000D01*
X120777000Y-96795000D01*
X121767000Y-96795000D01*
X122081582Y-96739000D01*
X122379194Y-96622704D01*
X122648399Y-96450581D01*
X122878852Y-96229246D01*
X123061696Y-95967205D01*
X123189905Y-95674528D01*
X123220218Y-95548865D01*
X123100740Y-95297000D01*
X120777000Y-95297000D01*
X120523000Y-95297000D01*
X118199260Y-95297000D01*
X118079782Y-95548865D01*
X117060000Y-95548865D01*
X117060000Y-94791135D01*
X118079782Y-94791135D01*
X118199260Y-95043000D01*
X120523000Y-95043000D01*
X120523000Y-93545000D01*
X119533000Y-93545000D01*
X119218418Y-93601000D01*
X118920806Y-93717296D01*
X118651601Y-93889419D01*
X118421148Y-94110754D01*
X118238304Y-94372795D01*
X118110095Y-94665472D01*
X118079782Y-94791135D01*
X117060000Y-94791135D01*
X117060000Y-89180000D01*
X118031928Y-89180000D01*
X118031928Y-91160000D01*
X118044188Y-91284482D01*
X118080498Y-91404180D01*
X118139463Y-91514494D01*
X118218815Y-91611185D01*
X118315506Y-91690537D01*
X118425820Y-91749502D01*
X118545518Y-91785812D01*
X118670000Y-91798072D01*
X120319387Y-91798072D01*
X122148440Y-93627126D01*
X122081582Y-93601000D01*
X121767000Y-93545000D01*
X120777000Y-93545000D01*
X120777000Y-95043000D01*
X123100740Y-95043000D01*
X123220218Y-94791135D01*
X123190896Y-94669582D01*
X124835001Y-96313687D01*
X124835000Y-100832538D01*
X124743989Y-101052257D01*
X124685000Y-101348816D01*
X124685000Y-101651184D01*
X124743989Y-101947743D01*
X124859701Y-102227095D01*
X125027688Y-102478505D01*
X125241495Y-102692312D01*
X125492905Y-102860299D01*
X125772257Y-102976011D01*
X126068816Y-103035000D01*
X126371184Y-103035000D01*
X126667743Y-102976011D01*
X126947095Y-102860299D01*
X127198505Y-102692312D01*
X127412312Y-102478505D01*
X127580299Y-102227095D01*
X127696011Y-101947743D01*
X127755000Y-101651184D01*
X127755000Y-101348816D01*
X127696011Y-101052257D01*
X127605000Y-100832538D01*
X127605000Y-95808037D01*
X127611701Y-95740000D01*
X127584960Y-95468493D01*
X127505764Y-95207419D01*
X127377157Y-94966812D01*
X127247452Y-94808766D01*
X127247450Y-94808764D01*
X127204081Y-94755919D01*
X127151236Y-94712550D01*
X124733653Y-92294967D01*
X146551000Y-92294967D01*
X146551000Y-92617033D01*
X146613832Y-92932912D01*
X146737082Y-93230463D01*
X146916013Y-93498252D01*
X147143748Y-93725987D01*
X147176835Y-93748095D01*
X147278286Y-93871714D01*
X147527248Y-94076031D01*
X147811285Y-94227852D01*
X148119484Y-94321343D01*
X148359678Y-94345000D01*
X150130000Y-94345000D01*
X150130001Y-97709671D01*
X150122089Y-97790000D01*
X150130000Y-97870320D01*
X150130001Y-102789669D01*
X150122089Y-102870000D01*
X150130000Y-102950322D01*
X150130001Y-107234669D01*
X150130000Y-107234678D01*
X150122089Y-107315000D01*
X150130000Y-107395320D01*
X150130001Y-111395000D01*
X148359678Y-111395000D01*
X148119484Y-111418657D01*
X147836604Y-111504468D01*
X147709088Y-111529832D01*
X147411537Y-111653082D01*
X147143748Y-111832013D01*
X146916013Y-112059748D01*
X146737082Y-112327537D01*
X146613832Y-112625088D01*
X146551000Y-112940967D01*
X146551000Y-113263033D01*
X146613832Y-113578912D01*
X146737082Y-113876463D01*
X146916013Y-114144252D01*
X147143748Y-114371987D01*
X147411537Y-114550918D01*
X147709088Y-114674168D01*
X148024967Y-114737000D01*
X148347033Y-114737000D01*
X148662912Y-114674168D01*
X148685045Y-114665000D01*
X154186955Y-114665000D01*
X154209088Y-114674168D01*
X154524967Y-114737000D01*
X154847033Y-114737000D01*
X155162912Y-114674168D01*
X155236432Y-114643715D01*
X155260516Y-114641343D01*
X155568715Y-114547852D01*
X155852752Y-114396031D01*
X156101714Y-114191714D01*
X156306031Y-113942752D01*
X156457852Y-113658715D01*
X156551343Y-113350516D01*
X156582911Y-113030000D01*
X156551343Y-112709484D01*
X156457852Y-112401285D01*
X156306031Y-112117248D01*
X156101714Y-111868286D01*
X155852752Y-111663969D01*
X155568715Y-111512148D01*
X155260516Y-111418657D01*
X155020322Y-111395000D01*
X153400000Y-111395000D01*
X153400000Y-108315000D01*
X155020322Y-108315000D01*
X155260516Y-108291343D01*
X155502058Y-108218072D01*
X155840000Y-108218072D01*
X155964482Y-108205812D01*
X156084180Y-108169502D01*
X156194494Y-108110537D01*
X156291185Y-108031185D01*
X156370537Y-107934494D01*
X156389076Y-107899810D01*
X156567248Y-108046031D01*
X156851285Y-108197852D01*
X157159484Y-108291343D01*
X157399678Y-108315000D01*
X163910322Y-108315000D01*
X164150516Y-108291343D01*
X164458715Y-108197852D01*
X164742752Y-108046031D01*
X164991714Y-107841714D01*
X165196031Y-107592752D01*
X165347852Y-107308715D01*
X165441343Y-107000516D01*
X165472911Y-106680000D01*
X165441343Y-106359484D01*
X165347852Y-106051285D01*
X165196031Y-105767248D01*
X164991714Y-105518286D01*
X164742752Y-105313969D01*
X164458715Y-105162148D01*
X164150516Y-105068657D01*
X163910322Y-105045000D01*
X157399678Y-105045000D01*
X157159484Y-105068657D01*
X156851285Y-105162148D01*
X156567248Y-105313969D01*
X156389076Y-105460190D01*
X156370537Y-105425506D01*
X156291185Y-105328815D01*
X156194494Y-105249463D01*
X156084180Y-105190498D01*
X155964482Y-105154188D01*
X155840000Y-105141928D01*
X155502058Y-105141928D01*
X155260516Y-105068657D01*
X155020322Y-105045000D01*
X153400000Y-105045000D01*
X153400000Y-104505000D01*
X162005322Y-104505000D01*
X162245516Y-104481343D01*
X162553715Y-104387852D01*
X162609429Y-104358072D01*
X162775000Y-104358072D01*
X162899482Y-104345812D01*
X163019180Y-104309502D01*
X163129494Y-104250537D01*
X163226185Y-104171185D01*
X163305537Y-104074494D01*
X163320745Y-104046042D01*
X163552248Y-104236031D01*
X163836285Y-104387852D01*
X164144484Y-104481343D01*
X164384678Y-104505000D01*
X172990001Y-104505000D01*
X172990001Y-105045000D01*
X171369678Y-105045000D01*
X171129484Y-105068657D01*
X170821285Y-105162148D01*
X170537248Y-105313969D01*
X170288286Y-105518286D01*
X170083969Y-105767248D01*
X169932148Y-106051285D01*
X169838657Y-106359484D01*
X169807089Y-106680000D01*
X169838657Y-107000516D01*
X169932148Y-107308715D01*
X170083969Y-107592752D01*
X170288286Y-107841714D01*
X170537248Y-108046031D01*
X170821285Y-108197852D01*
X171129484Y-108291343D01*
X171369678Y-108315000D01*
X172990000Y-108315000D01*
X172990001Y-111395000D01*
X172140176Y-111395000D01*
X172078714Y-111362148D01*
X171770516Y-111268658D01*
X171449999Y-111237089D01*
X171129484Y-111268658D01*
X170821286Y-111362148D01*
X170537248Y-111513970D01*
X170350677Y-111667085D01*
X170200687Y-111817075D01*
X170138286Y-111868286D01*
X169933969Y-112117248D01*
X169782148Y-112401285D01*
X169688657Y-112709484D01*
X169666699Y-112932423D01*
X169665000Y-112940967D01*
X169665000Y-112949678D01*
X169657089Y-113030000D01*
X169665000Y-113110322D01*
X169665000Y-113263033D01*
X169727832Y-113578912D01*
X169851082Y-113876463D01*
X170030013Y-114144252D01*
X170257748Y-114371987D01*
X170525537Y-114550918D01*
X170823088Y-114674168D01*
X171138967Y-114737000D01*
X171461033Y-114737000D01*
X171776912Y-114674168D01*
X171799045Y-114665000D01*
X174544678Y-114665000D01*
X174625000Y-114672911D01*
X174705322Y-114665000D01*
X177300955Y-114665000D01*
X177323088Y-114674168D01*
X177638967Y-114737000D01*
X177961033Y-114737000D01*
X178276912Y-114674168D01*
X178574463Y-114550918D01*
X178842252Y-114371987D01*
X179069987Y-114144252D01*
X179248918Y-113876463D01*
X179372168Y-113578912D01*
X179435000Y-113263033D01*
X179435000Y-113110322D01*
X179442911Y-113030000D01*
X179435000Y-112949678D01*
X179435000Y-112940967D01*
X179433301Y-112932423D01*
X179411343Y-112709484D01*
X179317852Y-112401285D01*
X179166031Y-112117248D01*
X178961714Y-111868286D01*
X178712752Y-111663969D01*
X178428715Y-111512148D01*
X178120516Y-111418657D01*
X177880322Y-111395000D01*
X176260000Y-111395000D01*
X176260000Y-106760321D01*
X176267911Y-106680000D01*
X176260000Y-106599678D01*
X176260000Y-102315321D01*
X176267911Y-102235000D01*
X176260000Y-102154678D01*
X176260000Y-98505321D01*
X176267911Y-98425000D01*
X176260000Y-98344678D01*
X176260000Y-94345000D01*
X177880322Y-94345000D01*
X178120516Y-94321343D01*
X178428715Y-94227852D01*
X178712752Y-94076031D01*
X178961714Y-93871714D01*
X179166031Y-93622752D01*
X179317852Y-93338715D01*
X179411343Y-93030516D01*
X179442911Y-92710000D01*
X179434167Y-92621221D01*
X179435000Y-92617033D01*
X179435000Y-92294967D01*
X179372168Y-91979088D01*
X179248918Y-91681537D01*
X179069987Y-91413748D01*
X178842252Y-91186013D01*
X178574463Y-91007082D01*
X178276912Y-90883832D01*
X177961033Y-90821000D01*
X177638967Y-90821000D01*
X177323088Y-90883832D01*
X177025537Y-91007082D01*
X176923891Y-91075000D01*
X172176109Y-91075000D01*
X172074463Y-91007082D01*
X171776912Y-90883832D01*
X171461033Y-90821000D01*
X171138967Y-90821000D01*
X170823088Y-90883832D01*
X170525537Y-91007082D01*
X170257748Y-91186013D01*
X170030013Y-91413748D01*
X169851082Y-91681537D01*
X169727832Y-91979088D01*
X169665000Y-92294967D01*
X169665000Y-92617033D01*
X169665833Y-92621221D01*
X169657089Y-92710000D01*
X169688657Y-93030516D01*
X169782148Y-93338715D01*
X169933969Y-93622752D01*
X170138286Y-93871714D01*
X170200687Y-93922925D01*
X170350677Y-94072915D01*
X170537248Y-94226030D01*
X170821286Y-94377852D01*
X171129484Y-94471342D01*
X171449999Y-94502911D01*
X171770516Y-94471342D01*
X172078714Y-94377852D01*
X172140176Y-94345000D01*
X172990001Y-94345000D01*
X172990000Y-96790000D01*
X171369678Y-96790000D01*
X171129484Y-96813657D01*
X170887942Y-96886928D01*
X170550000Y-96886928D01*
X170425518Y-96899188D01*
X170305820Y-96935498D01*
X170195506Y-96994463D01*
X170098815Y-97073815D01*
X170019463Y-97170506D01*
X170000924Y-97205190D01*
X169822752Y-97058969D01*
X169538715Y-96907148D01*
X169230516Y-96813657D01*
X168990322Y-96790000D01*
X162479678Y-96790000D01*
X162239484Y-96813657D01*
X161931285Y-96907148D01*
X161647248Y-97058969D01*
X161398286Y-97263286D01*
X161193969Y-97512248D01*
X161042148Y-97796285D01*
X160948657Y-98104484D01*
X160917089Y-98425000D01*
X160948657Y-98745516D01*
X161042148Y-99053715D01*
X161193969Y-99337752D01*
X161398286Y-99586714D01*
X161647248Y-99791031D01*
X161931285Y-99942852D01*
X162239484Y-100036343D01*
X162479678Y-100060000D01*
X168990322Y-100060000D01*
X169230516Y-100036343D01*
X169538715Y-99942852D01*
X169822752Y-99791031D01*
X170000924Y-99644810D01*
X170019463Y-99679494D01*
X170098815Y-99776185D01*
X170195506Y-99855537D01*
X170305820Y-99914502D01*
X170425518Y-99950812D01*
X170550000Y-99963072D01*
X170887942Y-99963072D01*
X171129484Y-100036343D01*
X171369678Y-100060000D01*
X172990001Y-100060000D01*
X172990000Y-101235000D01*
X164384678Y-101235000D01*
X164144484Y-101258657D01*
X163836285Y-101352148D01*
X163552248Y-101503969D01*
X163320745Y-101693958D01*
X163305537Y-101665506D01*
X163226185Y-101568815D01*
X163129494Y-101489463D01*
X163019180Y-101430498D01*
X162899482Y-101394188D01*
X162775000Y-101381928D01*
X162609429Y-101381928D01*
X162553715Y-101352148D01*
X162245516Y-101258657D01*
X162005322Y-101235000D01*
X153400000Y-101235000D01*
X153400000Y-100060000D01*
X155020322Y-100060000D01*
X155260516Y-100036343D01*
X155568715Y-99942852D01*
X155852752Y-99791031D01*
X156101714Y-99586714D01*
X156306031Y-99337752D01*
X156457852Y-99053715D01*
X156551343Y-98745516D01*
X156582911Y-98425000D01*
X156551343Y-98104484D01*
X156457852Y-97796285D01*
X156306031Y-97512248D01*
X156101714Y-97263286D01*
X155852752Y-97058969D01*
X155568715Y-96907148D01*
X155260516Y-96813657D01*
X155020322Y-96790000D01*
X153400000Y-96790000D01*
X153400000Y-94345000D01*
X155020322Y-94345000D01*
X155260516Y-94321343D01*
X155568715Y-94227852D01*
X155852752Y-94076031D01*
X156101714Y-93871714D01*
X156306031Y-93622752D01*
X156457852Y-93338715D01*
X156551343Y-93030516D01*
X156582911Y-92710000D01*
X156551343Y-92389484D01*
X156457852Y-92081285D01*
X156306031Y-91797248D01*
X156101714Y-91548286D01*
X155978095Y-91446835D01*
X155955987Y-91413748D01*
X155728252Y-91186013D01*
X155460463Y-91007082D01*
X155162912Y-90883832D01*
X154847033Y-90821000D01*
X154524967Y-90821000D01*
X154209088Y-90883832D01*
X153911537Y-91007082D01*
X153809891Y-91075000D01*
X151845322Y-91075000D01*
X151765000Y-91067089D01*
X151684678Y-91075000D01*
X149062109Y-91075000D01*
X148960463Y-91007082D01*
X148662912Y-90883832D01*
X148347033Y-90821000D01*
X148024967Y-90821000D01*
X147709088Y-90883832D01*
X147411537Y-91007082D01*
X147143748Y-91186013D01*
X146916013Y-91413748D01*
X146737082Y-91681537D01*
X146613832Y-91979088D01*
X146551000Y-92294967D01*
X124733653Y-92294967D01*
X123268072Y-90829387D01*
X123268072Y-89180000D01*
X123255812Y-89055518D01*
X123219502Y-88935820D01*
X123160537Y-88825506D01*
X123081185Y-88728815D01*
X122984494Y-88649463D01*
X122874180Y-88590498D01*
X122754482Y-88554188D01*
X122630000Y-88541928D01*
X118670000Y-88541928D01*
X118545518Y-88554188D01*
X118425820Y-88590498D01*
X118315506Y-88649463D01*
X118218815Y-88728815D01*
X118139463Y-88825506D01*
X118080498Y-88935820D01*
X118044188Y-89055518D01*
X118031928Y-89180000D01*
X117060000Y-89180000D01*
X117060000Y-87996665D01*
X135217000Y-87996665D01*
X135217000Y-88279335D01*
X135272147Y-88556574D01*
X135380320Y-88817727D01*
X135537363Y-89052759D01*
X135737241Y-89252637D01*
X135972273Y-89409680D01*
X136233426Y-89517853D01*
X136510665Y-89573000D01*
X136793335Y-89573000D01*
X137044699Y-89523000D01*
X147696611Y-89523000D01*
X147709088Y-89528168D01*
X148024967Y-89591000D01*
X148347033Y-89591000D01*
X148662912Y-89528168D01*
X148960463Y-89404918D01*
X149056123Y-89341000D01*
X153815877Y-89341000D01*
X153911537Y-89404918D01*
X154209088Y-89528168D01*
X154524967Y-89591000D01*
X154847033Y-89591000D01*
X155162912Y-89528168D01*
X155460463Y-89404918D01*
X155556123Y-89341000D01*
X170429877Y-89341000D01*
X170525537Y-89404918D01*
X170823088Y-89528168D01*
X171138967Y-89591000D01*
X171461033Y-89591000D01*
X171776912Y-89528168D01*
X172074463Y-89404918D01*
X172170123Y-89341000D01*
X176929877Y-89341000D01*
X177025537Y-89404918D01*
X177323088Y-89528168D01*
X177638967Y-89591000D01*
X177961033Y-89591000D01*
X178276912Y-89528168D01*
X178574463Y-89404918D01*
X178842252Y-89225987D01*
X179069987Y-88998252D01*
X179248918Y-88730463D01*
X179372168Y-88432912D01*
X179435000Y-88117033D01*
X179435000Y-87794967D01*
X179372168Y-87479088D01*
X179248918Y-87181537D01*
X179069987Y-86913748D01*
X178842252Y-86686013D01*
X178574463Y-86507082D01*
X178276912Y-86383832D01*
X177961033Y-86321000D01*
X177638967Y-86321000D01*
X177323088Y-86383832D01*
X177025537Y-86507082D01*
X176929877Y-86571000D01*
X172170123Y-86571000D01*
X172074463Y-86507082D01*
X171776912Y-86383832D01*
X171461033Y-86321000D01*
X171138967Y-86321000D01*
X170823088Y-86383832D01*
X170525537Y-86507082D01*
X170429877Y-86571000D01*
X155556123Y-86571000D01*
X155460463Y-86507082D01*
X155162912Y-86383832D01*
X154847033Y-86321000D01*
X154524967Y-86321000D01*
X154209088Y-86383832D01*
X153911537Y-86507082D01*
X153815877Y-86571000D01*
X149056123Y-86571000D01*
X148960463Y-86507082D01*
X148662912Y-86383832D01*
X148347033Y-86321000D01*
X148024967Y-86321000D01*
X147709088Y-86383832D01*
X147411537Y-86507082D01*
X147143748Y-86686013D01*
X147076761Y-86753000D01*
X137521421Y-86753000D01*
X137366580Y-86670236D01*
X137105507Y-86591040D01*
X136834000Y-86564300D01*
X136562494Y-86591040D01*
X136301420Y-86670236D01*
X136060813Y-86798843D01*
X135985032Y-86861035D01*
X135972273Y-86866320D01*
X135737241Y-87023363D01*
X135537363Y-87223241D01*
X135380320Y-87458273D01*
X135272147Y-87719426D01*
X135217000Y-87996665D01*
X117060000Y-87996665D01*
X117060000Y-80876521D01*
X117130979Y-80876521D01*
X117130979Y-81323479D01*
X117218176Y-81761849D01*
X117389220Y-82174785D01*
X117637536Y-82546417D01*
X117953583Y-82862464D01*
X118325215Y-83110780D01*
X118738151Y-83281824D01*
X119176521Y-83369021D01*
X119623479Y-83369021D01*
X120061849Y-83281824D01*
X120474785Y-83110780D01*
X120846417Y-82862464D01*
X121162464Y-82546417D01*
X121410780Y-82174785D01*
X121581824Y-81761849D01*
X121669021Y-81323479D01*
X121669021Y-80876521D01*
X183130979Y-80876521D01*
X183130979Y-81323479D01*
X183218176Y-81761849D01*
X183389220Y-82174785D01*
X183637536Y-82546417D01*
X183953583Y-82862464D01*
X184325215Y-83110780D01*
X184738151Y-83281824D01*
X185176521Y-83369021D01*
X185623479Y-83369021D01*
X186061849Y-83281824D01*
X186474785Y-83110780D01*
X186846417Y-82862464D01*
X187162464Y-82546417D01*
X187410780Y-82174785D01*
X187581824Y-81761849D01*
X187669021Y-81323479D01*
X187669021Y-80876521D01*
X187581824Y-80438151D01*
X187410780Y-80025215D01*
X187162464Y-79653583D01*
X186846417Y-79337536D01*
X186474785Y-79089220D01*
X186061849Y-78918176D01*
X185623479Y-78830979D01*
X185176521Y-78830979D01*
X184738151Y-78918176D01*
X184325215Y-79089220D01*
X183953583Y-79337536D01*
X183637536Y-79653583D01*
X183389220Y-80025215D01*
X183218176Y-80438151D01*
X183130979Y-80876521D01*
X121669021Y-80876521D01*
X121581824Y-80438151D01*
X121410780Y-80025215D01*
X121162464Y-79653583D01*
X120846417Y-79337536D01*
X120474785Y-79089220D01*
X120061849Y-78918176D01*
X119623479Y-78830979D01*
X119176521Y-78830979D01*
X118738151Y-78918176D01*
X118325215Y-79089220D01*
X117953583Y-79337536D01*
X117637536Y-79653583D01*
X117389220Y-80025215D01*
X117218176Y-80438151D01*
X117130979Y-80876521D01*
X117060000Y-80876521D01*
X117060000Y-78760000D01*
X187740000Y-78760000D01*
X187740001Y-124440000D01*
%TA.AperFunction,Conductor*%
D26*
G36*
X187740001Y-124440000D02*
G01*
X117060000Y-124440000D01*
X117060000Y-121876521D01*
X117130979Y-121876521D01*
X117130979Y-122323479D01*
X117218176Y-122761849D01*
X117389220Y-123174785D01*
X117637536Y-123546417D01*
X117953583Y-123862464D01*
X118325215Y-124110780D01*
X118738151Y-124281824D01*
X119176521Y-124369021D01*
X119623479Y-124369021D01*
X120061849Y-124281824D01*
X120474785Y-124110780D01*
X120846417Y-123862464D01*
X121162464Y-123546417D01*
X121410780Y-123174785D01*
X121581824Y-122761849D01*
X121669021Y-122323479D01*
X121669021Y-121876521D01*
X183130979Y-121876521D01*
X183130979Y-122323479D01*
X183218176Y-122761849D01*
X183389220Y-123174785D01*
X183637536Y-123546417D01*
X183953583Y-123862464D01*
X184325215Y-124110780D01*
X184738151Y-124281824D01*
X185176521Y-124369021D01*
X185623479Y-124369021D01*
X186061849Y-124281824D01*
X186474785Y-124110780D01*
X186846417Y-123862464D01*
X187162464Y-123546417D01*
X187410780Y-123174785D01*
X187581824Y-122761849D01*
X187669021Y-122323479D01*
X187669021Y-121876521D01*
X187581824Y-121438151D01*
X187410780Y-121025215D01*
X187162464Y-120653583D01*
X186846417Y-120337536D01*
X186474785Y-120089220D01*
X186061849Y-119918176D01*
X185623479Y-119830979D01*
X185176521Y-119830979D01*
X184738151Y-119918176D01*
X184325215Y-120089220D01*
X183953583Y-120337536D01*
X183637536Y-120653583D01*
X183389220Y-121025215D01*
X183218176Y-121438151D01*
X183130979Y-121876521D01*
X121669021Y-121876521D01*
X121581824Y-121438151D01*
X121410780Y-121025215D01*
X121162464Y-120653583D01*
X120846417Y-120337536D01*
X120474785Y-120089220D01*
X120061849Y-119918176D01*
X119623479Y-119830979D01*
X119176521Y-119830979D01*
X118738151Y-119918176D01*
X118325215Y-120089220D01*
X117953583Y-120337536D01*
X117637536Y-120653583D01*
X117389220Y-121025215D01*
X117218176Y-121438151D01*
X117130979Y-121876521D01*
X117060000Y-121876521D01*
X117060000Y-118737413D01*
X147230192Y-118737413D01*
X147325956Y-119001814D01*
X147615571Y-119142704D01*
X147927108Y-119224384D01*
X148248595Y-119243718D01*
X148567675Y-119199961D01*
X148872088Y-119094795D01*
X149046044Y-119001814D01*
X149141808Y-118737413D01*
X153730192Y-118737413D01*
X153825956Y-119001814D01*
X154115571Y-119142704D01*
X154427108Y-119224384D01*
X154748595Y-119243718D01*
X155067675Y-119199961D01*
X155372088Y-119094795D01*
X155546044Y-119001814D01*
X155641808Y-118737413D01*
X170344192Y-118737413D01*
X170439956Y-119001814D01*
X170729571Y-119142704D01*
X171041108Y-119224384D01*
X171362595Y-119243718D01*
X171681675Y-119199961D01*
X171986088Y-119094795D01*
X172160044Y-119001814D01*
X172255808Y-118737413D01*
X176844192Y-118737413D01*
X176939956Y-119001814D01*
X177229571Y-119142704D01*
X177541108Y-119224384D01*
X177862595Y-119243718D01*
X178181675Y-119199961D01*
X178486088Y-119094795D01*
X178660044Y-119001814D01*
X178755808Y-118737413D01*
X177800000Y-117781605D01*
X176844192Y-118737413D01*
X172255808Y-118737413D01*
X171300000Y-117781605D01*
X170344192Y-118737413D01*
X155641808Y-118737413D01*
X154686000Y-117781605D01*
X153730192Y-118737413D01*
X149141808Y-118737413D01*
X148186000Y-117781605D01*
X147230192Y-118737413D01*
X117060000Y-118737413D01*
X117060000Y-117664595D01*
X146544282Y-117664595D01*
X146588039Y-117983675D01*
X146693205Y-118288088D01*
X146786186Y-118462044D01*
X147050587Y-118557808D01*
X148006395Y-117602000D01*
X148365605Y-117602000D01*
X149321413Y-118557808D01*
X149585814Y-118462044D01*
X149726704Y-118172429D01*
X149808384Y-117860892D01*
X149820189Y-117664595D01*
X153044282Y-117664595D01*
X153088039Y-117983675D01*
X153193205Y-118288088D01*
X153286186Y-118462044D01*
X153550587Y-118557808D01*
X154506395Y-117602000D01*
X154865605Y-117602000D01*
X155821413Y-118557808D01*
X156085814Y-118462044D01*
X156226704Y-118172429D01*
X156308384Y-117860892D01*
X156320189Y-117664595D01*
X169658282Y-117664595D01*
X169702039Y-117983675D01*
X169807205Y-118288088D01*
X169900186Y-118462044D01*
X170164587Y-118557808D01*
X171120395Y-117602000D01*
X171479605Y-117602000D01*
X172435413Y-118557808D01*
X172699814Y-118462044D01*
X172840704Y-118172429D01*
X172922384Y-117860892D01*
X172934189Y-117664595D01*
X176158282Y-117664595D01*
X176202039Y-117983675D01*
X176307205Y-118288088D01*
X176400186Y-118462044D01*
X176664587Y-118557808D01*
X177620395Y-117602000D01*
X177979605Y-117602000D01*
X178935413Y-118557808D01*
X179199814Y-118462044D01*
X179340704Y-118172429D01*
X179422384Y-117860892D01*
X179441718Y-117539405D01*
X179397961Y-117220325D01*
X179292795Y-116915912D01*
X179199814Y-116741956D01*
X178935413Y-116646192D01*
X177979605Y-117602000D01*
X177620395Y-117602000D01*
X176664587Y-116646192D01*
X176400186Y-116741956D01*
X176259296Y-117031571D01*
X176177616Y-117343108D01*
X176158282Y-117664595D01*
X172934189Y-117664595D01*
X172941718Y-117539405D01*
X172897961Y-117220325D01*
X172792795Y-116915912D01*
X172699814Y-116741956D01*
X172435413Y-116646192D01*
X171479605Y-117602000D01*
X171120395Y-117602000D01*
X170164587Y-116646192D01*
X169900186Y-116741956D01*
X169759296Y-117031571D01*
X169677616Y-117343108D01*
X169658282Y-117664595D01*
X156320189Y-117664595D01*
X156327718Y-117539405D01*
X156283961Y-117220325D01*
X156178795Y-116915912D01*
X156085814Y-116741956D01*
X155821413Y-116646192D01*
X154865605Y-117602000D01*
X154506395Y-117602000D01*
X153550587Y-116646192D01*
X153286186Y-116741956D01*
X153145296Y-117031571D01*
X153063616Y-117343108D01*
X153044282Y-117664595D01*
X149820189Y-117664595D01*
X149827718Y-117539405D01*
X149783961Y-117220325D01*
X149678795Y-116915912D01*
X149585814Y-116741956D01*
X149321413Y-116646192D01*
X148365605Y-117602000D01*
X148006395Y-117602000D01*
X147050587Y-116646192D01*
X146786186Y-116741956D01*
X146645296Y-117031571D01*
X146563616Y-117343108D01*
X146544282Y-117664595D01*
X117060000Y-117664595D01*
X117060000Y-100600000D01*
X117061928Y-100600000D01*
X117061928Y-102400000D01*
X117074188Y-102524482D01*
X117110498Y-102644180D01*
X117169463Y-102754494D01*
X117215000Y-102809981D01*
X117215001Y-108231961D01*
X117208300Y-108300000D01*
X117235040Y-108571507D01*
X117261928Y-108660144D01*
X117261928Y-109200000D01*
X117274188Y-109324482D01*
X117310498Y-109444180D01*
X117315000Y-109452603D01*
X117315001Y-111731961D01*
X117308300Y-111800000D01*
X117335040Y-112071507D01*
X117414236Y-112332580D01*
X117542844Y-112573188D01*
X117672548Y-112731233D01*
X117672551Y-112731236D01*
X117715920Y-112784081D01*
X117768764Y-112827449D01*
X120934550Y-115993236D01*
X120977919Y-116046081D01*
X121030764Y-116089450D01*
X121030766Y-116089452D01*
X121137001Y-116176637D01*
X121188812Y-116219157D01*
X121429419Y-116347764D01*
X121690493Y-116426960D01*
X121893963Y-116447000D01*
X121893971Y-116447000D01*
X121962000Y-116453700D01*
X122030029Y-116447000D01*
X123813301Y-116447000D01*
X124064665Y-116497000D01*
X124347335Y-116497000D01*
X124500229Y-116466587D01*
X147230192Y-116466587D01*
X148186000Y-117422395D01*
X149141808Y-116466587D01*
X153730192Y-116466587D01*
X154686000Y-117422395D01*
X155641808Y-116466587D01*
X170344192Y-116466587D01*
X171300000Y-117422395D01*
X172255808Y-116466587D01*
X176844192Y-116466587D01*
X177800000Y-117422395D01*
X178755808Y-116466587D01*
X178660044Y-116202186D01*
X178370429Y-116061296D01*
X178058892Y-115979616D01*
X177737405Y-115960282D01*
X177418325Y-116004039D01*
X177113912Y-116109205D01*
X176939956Y-116202186D01*
X176844192Y-116466587D01*
X172255808Y-116466587D01*
X172160044Y-116202186D01*
X171870429Y-116061296D01*
X171558892Y-115979616D01*
X171237405Y-115960282D01*
X170918325Y-116004039D01*
X170613912Y-116109205D01*
X170439956Y-116202186D01*
X170344192Y-116466587D01*
X155641808Y-116466587D01*
X155546044Y-116202186D01*
X155256429Y-116061296D01*
X154944892Y-115979616D01*
X154623405Y-115960282D01*
X154304325Y-116004039D01*
X153999912Y-116109205D01*
X153825956Y-116202186D01*
X153730192Y-116466587D01*
X149141808Y-116466587D01*
X149046044Y-116202186D01*
X148756429Y-116061296D01*
X148444892Y-115979616D01*
X148123405Y-115960282D01*
X147804325Y-116004039D01*
X147499912Y-116109205D01*
X147325956Y-116202186D01*
X147230192Y-116466587D01*
X124500229Y-116466587D01*
X124598699Y-116447000D01*
X127439971Y-116447000D01*
X127508000Y-116453700D01*
X127576029Y-116447000D01*
X127576037Y-116447000D01*
X127779507Y-116426960D01*
X128040581Y-116347764D01*
X128281188Y-116219157D01*
X128492081Y-116046081D01*
X128535454Y-115993231D01*
X129654114Y-114874572D01*
X130286000Y-114874572D01*
X130410482Y-114862312D01*
X130530180Y-114826002D01*
X130640494Y-114767037D01*
X130737185Y-114687685D01*
X130816537Y-114590994D01*
X130875502Y-114480680D01*
X130911812Y-114360982D01*
X130924072Y-114236500D01*
X130924072Y-114196702D01*
X131774903Y-114196702D01*
X131846486Y-114440671D01*
X132101996Y-114561571D01*
X132376184Y-114630300D01*
X132658512Y-114644217D01*
X132938130Y-114602787D01*
X133204292Y-114507603D01*
X133329514Y-114440671D01*
X133401097Y-114196702D01*
X132588000Y-113383605D01*
X131774903Y-114196702D01*
X130924072Y-114196702D01*
X130924072Y-113274512D01*
X131147783Y-113274512D01*
X131189213Y-113554130D01*
X131284397Y-113820292D01*
X131351329Y-113945514D01*
X131595298Y-114017097D01*
X132408395Y-113204000D01*
X132767605Y-113204000D01*
X133580702Y-114017097D01*
X133824671Y-113945514D01*
X133945571Y-113690004D01*
X134014300Y-113415816D01*
X134028217Y-113133488D01*
X133986787Y-112853870D01*
X133891603Y-112587708D01*
X133824671Y-112462486D01*
X133580702Y-112390903D01*
X132767605Y-113204000D01*
X132408395Y-113204000D01*
X131595298Y-112390903D01*
X131351329Y-112462486D01*
X131230429Y-112717996D01*
X131161700Y-112992184D01*
X131147783Y-113274512D01*
X130924072Y-113274512D01*
X130924072Y-112331500D01*
X130912234Y-112211298D01*
X131774903Y-112211298D01*
X132588000Y-113024395D01*
X133401097Y-112211298D01*
X133329514Y-111967329D01*
X133074004Y-111846429D01*
X132799816Y-111777700D01*
X132517488Y-111763783D01*
X132237870Y-111805213D01*
X131971708Y-111900397D01*
X131846486Y-111967329D01*
X131774903Y-112211298D01*
X130912234Y-112211298D01*
X130911812Y-112207018D01*
X130875502Y-112087320D01*
X130816537Y-111977006D01*
X130737185Y-111880315D01*
X130640494Y-111800963D01*
X130548781Y-111751941D01*
X130661969Y-111610923D01*
X130805571Y-111335094D01*
X130876563Y-111116980D01*
X130756594Y-110871000D01*
X129413000Y-110871000D01*
X129413000Y-110891000D01*
X129159000Y-110891000D01*
X129159000Y-110871000D01*
X127815406Y-110871000D01*
X127695437Y-111116980D01*
X127766429Y-111335094D01*
X127910031Y-111610923D01*
X128023219Y-111751941D01*
X127931506Y-111800963D01*
X127834815Y-111880315D01*
X127755463Y-111977006D01*
X127696498Y-112087320D01*
X127660188Y-112207018D01*
X127647928Y-112331500D01*
X127647928Y-112963386D01*
X126934315Y-113677000D01*
X124598699Y-113677000D01*
X124347335Y-113627000D01*
X124064665Y-113627000D01*
X123813301Y-113677000D01*
X122535686Y-113677000D01*
X120085000Y-111226315D01*
X120085000Y-111054702D01*
X123392903Y-111054702D01*
X123464486Y-111298671D01*
X123719996Y-111419571D01*
X123994184Y-111488300D01*
X124276512Y-111502217D01*
X124556130Y-111460787D01*
X124822292Y-111365603D01*
X124947514Y-111298671D01*
X125019097Y-111054702D01*
X124206000Y-110241605D01*
X123392903Y-111054702D01*
X120085000Y-111054702D01*
X120085000Y-110132512D01*
X122765783Y-110132512D01*
X122807213Y-110412130D01*
X122902397Y-110678292D01*
X122969329Y-110803514D01*
X123213298Y-110875097D01*
X124026395Y-110062000D01*
X124385605Y-110062000D01*
X125198702Y-110875097D01*
X125442671Y-110803514D01*
X125563571Y-110548004D01*
X125632300Y-110273816D01*
X125646217Y-109991488D01*
X125604787Y-109711870D01*
X125509603Y-109445708D01*
X125442671Y-109320486D01*
X125198702Y-109248903D01*
X124385605Y-110062000D01*
X124026395Y-110062000D01*
X123213298Y-109248903D01*
X122969329Y-109320486D01*
X122848429Y-109575996D01*
X122779700Y-109850184D01*
X122765783Y-110132512D01*
X120085000Y-110132512D01*
X120085000Y-109696534D01*
X120213996Y-109757571D01*
X120488184Y-109826300D01*
X120770512Y-109840217D01*
X121050130Y-109798787D01*
X121316292Y-109703603D01*
X121441514Y-109636671D01*
X121513097Y-109392702D01*
X120700000Y-108579605D01*
X120685858Y-108593748D01*
X120506253Y-108414143D01*
X120520395Y-108400000D01*
X120879605Y-108400000D01*
X121692702Y-109213097D01*
X121936671Y-109141514D01*
X121970841Y-109069298D01*
X123392903Y-109069298D01*
X124206000Y-109882395D01*
X125019097Y-109069298D01*
X124947514Y-108825329D01*
X124692004Y-108704429D01*
X124417816Y-108635700D01*
X124135488Y-108621783D01*
X123855870Y-108663213D01*
X123589708Y-108758397D01*
X123464486Y-108825329D01*
X123392903Y-109069298D01*
X121970841Y-109069298D01*
X122057571Y-108886004D01*
X122126300Y-108611816D01*
X122140217Y-108329488D01*
X122121624Y-108204000D01*
X127643319Y-108204000D01*
X127673970Y-108515204D01*
X127764745Y-108814449D01*
X127912155Y-109090235D01*
X128110537Y-109331963D01*
X128289899Y-109479163D01*
X128104685Y-109634563D01*
X127910031Y-109877077D01*
X127766429Y-110152906D01*
X127695437Y-110371020D01*
X127815406Y-110617000D01*
X129159000Y-110617000D01*
X129159000Y-110597000D01*
X129413000Y-110597000D01*
X129413000Y-110617000D01*
X130756594Y-110617000D01*
X130876563Y-110371020D01*
X130805571Y-110152906D01*
X130661969Y-109877077D01*
X130467315Y-109634563D01*
X130413011Y-109589000D01*
X132195301Y-109589000D01*
X132446665Y-109639000D01*
X132729335Y-109639000D01*
X133006574Y-109583853D01*
X133267727Y-109475680D01*
X133502759Y-109318637D01*
X133702637Y-109118759D01*
X133845024Y-108905661D01*
X134601983Y-108148702D01*
X135838903Y-108148702D01*
X135910486Y-108392671D01*
X136165996Y-108513571D01*
X136440184Y-108582300D01*
X136722512Y-108596217D01*
X137002130Y-108554787D01*
X137268292Y-108459603D01*
X137393514Y-108392671D01*
X137465097Y-108148702D01*
X136652000Y-107335605D01*
X135838903Y-108148702D01*
X134601983Y-108148702D01*
X135252096Y-107498590D01*
X135253213Y-107506130D01*
X135348397Y-107772292D01*
X135415329Y-107897514D01*
X135659298Y-107969097D01*
X136472395Y-107156000D01*
X136458253Y-107141858D01*
X136637858Y-106962253D01*
X136652000Y-106976395D01*
X136666143Y-106962253D01*
X136845748Y-107141858D01*
X136831605Y-107156000D01*
X137644702Y-107969097D01*
X137888671Y-107897514D01*
X138009571Y-107642004D01*
X138078300Y-107367816D01*
X138092217Y-107085488D01*
X138050787Y-106805870D01*
X137955603Y-106539708D01*
X137890384Y-106417691D01*
X137903185Y-106407185D01*
X137982537Y-106310494D01*
X138041502Y-106200180D01*
X138077812Y-106080482D01*
X138090072Y-105956000D01*
X138090072Y-104356000D01*
X138077812Y-104231518D01*
X138041502Y-104111820D01*
X138037000Y-104103397D01*
X138037000Y-98690699D01*
X138087000Y-98439335D01*
X138087000Y-98156665D01*
X138031853Y-97879426D01*
X137923680Y-97618273D01*
X137766637Y-97383241D01*
X137566759Y-97183363D01*
X137331727Y-97026320D01*
X137070574Y-96918147D01*
X136793335Y-96863000D01*
X136510665Y-96863000D01*
X136233426Y-96918147D01*
X135972273Y-97026320D01*
X135737241Y-97183363D01*
X135537363Y-97383241D01*
X135380320Y-97618273D01*
X135272147Y-97879426D01*
X135217000Y-98156665D01*
X135217000Y-98439335D01*
X135267000Y-98690699D01*
X135267001Y-103820614D01*
X135103419Y-103870236D01*
X134862812Y-103998843D01*
X134822759Y-104031714D01*
X134704766Y-104128548D01*
X134704764Y-104128550D01*
X134651919Y-104171919D01*
X134608550Y-104224764D01*
X132014315Y-106819000D01*
X130109999Y-106819000D01*
X129943949Y-106730245D01*
X129644704Y-106639470D01*
X129411486Y-106616500D01*
X129160514Y-106616500D01*
X128927296Y-106639470D01*
X128628051Y-106730245D01*
X128352265Y-106877655D01*
X128110537Y-107076037D01*
X127912155Y-107317765D01*
X127764745Y-107593551D01*
X127673970Y-107892796D01*
X127643319Y-108204000D01*
X122121624Y-108204000D01*
X122098787Y-108049870D01*
X122003603Y-107783708D01*
X121936671Y-107658486D01*
X121692702Y-107586903D01*
X120879605Y-108400000D01*
X120520395Y-108400000D01*
X120506253Y-108385858D01*
X120685858Y-108206253D01*
X120700000Y-108220395D01*
X121513097Y-107407298D01*
X121441514Y-107163329D01*
X121186004Y-107042429D01*
X120911816Y-106973700D01*
X120629488Y-106959783D01*
X120349870Y-107001213D01*
X120083708Y-107096397D01*
X119985000Y-107149157D01*
X119985000Y-102809981D01*
X120030537Y-102754494D01*
X120089502Y-102644180D01*
X120125812Y-102524482D01*
X120138072Y-102400000D01*
X120138072Y-100600000D01*
X120125812Y-100475518D01*
X120089502Y-100355820D01*
X120030537Y-100245506D01*
X119951185Y-100148815D01*
X119854494Y-100069463D01*
X119744180Y-100010498D01*
X119624482Y-99974188D01*
X119500000Y-99961928D01*
X117700000Y-99961928D01*
X117575518Y-99974188D01*
X117455820Y-100010498D01*
X117345506Y-100069463D01*
X117248815Y-100148815D01*
X117169463Y-100245506D01*
X117110498Y-100355820D01*
X117074188Y-100475518D01*
X117061928Y-100600000D01*
X117060000Y-100600000D01*
X117060000Y-95548865D01*
X118079782Y-95548865D01*
X118110095Y-95674528D01*
X118238304Y-95967205D01*
X118421148Y-96229246D01*
X118651601Y-96450581D01*
X118920806Y-96622704D01*
X119218418Y-96739000D01*
X119533000Y-96795000D01*
X120523000Y-96795000D01*
X120523000Y-95297000D01*
X120777000Y-95297000D01*
X120777000Y-96795000D01*
X121767000Y-96795000D01*
X122081582Y-96739000D01*
X122379194Y-96622704D01*
X122648399Y-96450581D01*
X122878852Y-96229246D01*
X123061696Y-95967205D01*
X123189905Y-95674528D01*
X123220218Y-95548865D01*
X123100740Y-95297000D01*
X120777000Y-95297000D01*
X120523000Y-95297000D01*
X118199260Y-95297000D01*
X118079782Y-95548865D01*
X117060000Y-95548865D01*
X117060000Y-94791135D01*
X118079782Y-94791135D01*
X118199260Y-95043000D01*
X120523000Y-95043000D01*
X120523000Y-93545000D01*
X119533000Y-93545000D01*
X119218418Y-93601000D01*
X118920806Y-93717296D01*
X118651601Y-93889419D01*
X118421148Y-94110754D01*
X118238304Y-94372795D01*
X118110095Y-94665472D01*
X118079782Y-94791135D01*
X117060000Y-94791135D01*
X117060000Y-89180000D01*
X118031928Y-89180000D01*
X118031928Y-91160000D01*
X118044188Y-91284482D01*
X118080498Y-91404180D01*
X118139463Y-91514494D01*
X118218815Y-91611185D01*
X118315506Y-91690537D01*
X118425820Y-91749502D01*
X118545518Y-91785812D01*
X118670000Y-91798072D01*
X120319387Y-91798072D01*
X122148440Y-93627126D01*
X122081582Y-93601000D01*
X121767000Y-93545000D01*
X120777000Y-93545000D01*
X120777000Y-95043000D01*
X123100740Y-95043000D01*
X123220218Y-94791135D01*
X123190896Y-94669582D01*
X124835001Y-96313687D01*
X124835000Y-100832538D01*
X124743989Y-101052257D01*
X124685000Y-101348816D01*
X124685000Y-101651184D01*
X124743989Y-101947743D01*
X124859701Y-102227095D01*
X125027688Y-102478505D01*
X125241495Y-102692312D01*
X125492905Y-102860299D01*
X125772257Y-102976011D01*
X126068816Y-103035000D01*
X126371184Y-103035000D01*
X126667743Y-102976011D01*
X126947095Y-102860299D01*
X127198505Y-102692312D01*
X127412312Y-102478505D01*
X127580299Y-102227095D01*
X127696011Y-101947743D01*
X127755000Y-101651184D01*
X127755000Y-101348816D01*
X127696011Y-101052257D01*
X127605000Y-100832538D01*
X127605000Y-95808037D01*
X127611701Y-95740000D01*
X127584960Y-95468493D01*
X127505764Y-95207419D01*
X127377157Y-94966812D01*
X127247452Y-94808766D01*
X127247450Y-94808764D01*
X127204081Y-94755919D01*
X127151236Y-94712550D01*
X124733653Y-92294967D01*
X146551000Y-92294967D01*
X146551000Y-92617033D01*
X146613832Y-92932912D01*
X146737082Y-93230463D01*
X146916013Y-93498252D01*
X147143748Y-93725987D01*
X147176835Y-93748095D01*
X147278286Y-93871714D01*
X147527248Y-94076031D01*
X147811285Y-94227852D01*
X148119484Y-94321343D01*
X148359678Y-94345000D01*
X150130000Y-94345000D01*
X150130001Y-97709671D01*
X150122089Y-97790000D01*
X150130000Y-97870320D01*
X150130001Y-102789669D01*
X150122089Y-102870000D01*
X150130000Y-102950322D01*
X150130001Y-107234669D01*
X150130000Y-107234678D01*
X150122089Y-107315000D01*
X150130000Y-107395320D01*
X150130001Y-111395000D01*
X148359678Y-111395000D01*
X148119484Y-111418657D01*
X147836604Y-111504468D01*
X147709088Y-111529832D01*
X147411537Y-111653082D01*
X147143748Y-111832013D01*
X146916013Y-112059748D01*
X146737082Y-112327537D01*
X146613832Y-112625088D01*
X146551000Y-112940967D01*
X146551000Y-113263033D01*
X146613832Y-113578912D01*
X146737082Y-113876463D01*
X146916013Y-114144252D01*
X147143748Y-114371987D01*
X147411537Y-114550918D01*
X147709088Y-114674168D01*
X148024967Y-114737000D01*
X148347033Y-114737000D01*
X148662912Y-114674168D01*
X148685045Y-114665000D01*
X154186955Y-114665000D01*
X154209088Y-114674168D01*
X154524967Y-114737000D01*
X154847033Y-114737000D01*
X155162912Y-114674168D01*
X155236432Y-114643715D01*
X155260516Y-114641343D01*
X155568715Y-114547852D01*
X155852752Y-114396031D01*
X156101714Y-114191714D01*
X156306031Y-113942752D01*
X156457852Y-113658715D01*
X156551343Y-113350516D01*
X156582911Y-113030000D01*
X156551343Y-112709484D01*
X156457852Y-112401285D01*
X156306031Y-112117248D01*
X156101714Y-111868286D01*
X155852752Y-111663969D01*
X155568715Y-111512148D01*
X155260516Y-111418657D01*
X155020322Y-111395000D01*
X153400000Y-111395000D01*
X153400000Y-108315000D01*
X155020322Y-108315000D01*
X155260516Y-108291343D01*
X155502058Y-108218072D01*
X155840000Y-108218072D01*
X155964482Y-108205812D01*
X156084180Y-108169502D01*
X156194494Y-108110537D01*
X156291185Y-108031185D01*
X156370537Y-107934494D01*
X156389076Y-107899810D01*
X156567248Y-108046031D01*
X156851285Y-108197852D01*
X157159484Y-108291343D01*
X157399678Y-108315000D01*
X163910322Y-108315000D01*
X164150516Y-108291343D01*
X164458715Y-108197852D01*
X164742752Y-108046031D01*
X164991714Y-107841714D01*
X165196031Y-107592752D01*
X165347852Y-107308715D01*
X165441343Y-107000516D01*
X165472911Y-106680000D01*
X165441343Y-106359484D01*
X165347852Y-106051285D01*
X165196031Y-105767248D01*
X164991714Y-105518286D01*
X164742752Y-105313969D01*
X164458715Y-105162148D01*
X164150516Y-105068657D01*
X163910322Y-105045000D01*
X157399678Y-105045000D01*
X157159484Y-105068657D01*
X156851285Y-105162148D01*
X156567248Y-105313969D01*
X156389076Y-105460190D01*
X156370537Y-105425506D01*
X156291185Y-105328815D01*
X156194494Y-105249463D01*
X156084180Y-105190498D01*
X155964482Y-105154188D01*
X155840000Y-105141928D01*
X155502058Y-105141928D01*
X155260516Y-105068657D01*
X155020322Y-105045000D01*
X153400000Y-105045000D01*
X153400000Y-104505000D01*
X162005322Y-104505000D01*
X162245516Y-104481343D01*
X162553715Y-104387852D01*
X162609429Y-104358072D01*
X162775000Y-104358072D01*
X162899482Y-104345812D01*
X163019180Y-104309502D01*
X163129494Y-104250537D01*
X163226185Y-104171185D01*
X163305537Y-104074494D01*
X163320745Y-104046042D01*
X163552248Y-104236031D01*
X163836285Y-104387852D01*
X164144484Y-104481343D01*
X164384678Y-104505000D01*
X172990001Y-104505000D01*
X172990001Y-105045000D01*
X171369678Y-105045000D01*
X171129484Y-105068657D01*
X170821285Y-105162148D01*
X170537248Y-105313969D01*
X170288286Y-105518286D01*
X170083969Y-105767248D01*
X169932148Y-106051285D01*
X169838657Y-106359484D01*
X169807089Y-106680000D01*
X169838657Y-107000516D01*
X169932148Y-107308715D01*
X170083969Y-107592752D01*
X170288286Y-107841714D01*
X170537248Y-108046031D01*
X170821285Y-108197852D01*
X171129484Y-108291343D01*
X171369678Y-108315000D01*
X172990000Y-108315000D01*
X172990001Y-111395000D01*
X172140176Y-111395000D01*
X172078714Y-111362148D01*
X171770516Y-111268658D01*
X171449999Y-111237089D01*
X171129484Y-111268658D01*
X170821286Y-111362148D01*
X170537248Y-111513970D01*
X170350677Y-111667085D01*
X170200687Y-111817075D01*
X170138286Y-111868286D01*
X169933969Y-112117248D01*
X169782148Y-112401285D01*
X169688657Y-112709484D01*
X169666699Y-112932423D01*
X169665000Y-112940967D01*
X169665000Y-112949678D01*
X169657089Y-113030000D01*
X169665000Y-113110322D01*
X169665000Y-113263033D01*
X169727832Y-113578912D01*
X169851082Y-113876463D01*
X170030013Y-114144252D01*
X170257748Y-114371987D01*
X170525537Y-114550918D01*
X170823088Y-114674168D01*
X171138967Y-114737000D01*
X171461033Y-114737000D01*
X171776912Y-114674168D01*
X171799045Y-114665000D01*
X174544678Y-114665000D01*
X174625000Y-114672911D01*
X174705322Y-114665000D01*
X177300955Y-114665000D01*
X177323088Y-114674168D01*
X177638967Y-114737000D01*
X177961033Y-114737000D01*
X178276912Y-114674168D01*
X178574463Y-114550918D01*
X178842252Y-114371987D01*
X179069987Y-114144252D01*
X179248918Y-113876463D01*
X179372168Y-113578912D01*
X179435000Y-113263033D01*
X179435000Y-113110322D01*
X179442911Y-113030000D01*
X179435000Y-112949678D01*
X179435000Y-112940967D01*
X179433301Y-112932423D01*
X179411343Y-112709484D01*
X179317852Y-112401285D01*
X179166031Y-112117248D01*
X178961714Y-111868286D01*
X178712752Y-111663969D01*
X178428715Y-111512148D01*
X178120516Y-111418657D01*
X177880322Y-111395000D01*
X176260000Y-111395000D01*
X176260000Y-106760321D01*
X176267911Y-106680000D01*
X176260000Y-106599678D01*
X176260000Y-102315321D01*
X176267911Y-102235000D01*
X176260000Y-102154678D01*
X176260000Y-98505321D01*
X176267911Y-98425000D01*
X176260000Y-98344678D01*
X176260000Y-94345000D01*
X177880322Y-94345000D01*
X178120516Y-94321343D01*
X178428715Y-94227852D01*
X178712752Y-94076031D01*
X178961714Y-93871714D01*
X179166031Y-93622752D01*
X179317852Y-93338715D01*
X179411343Y-93030516D01*
X179442911Y-92710000D01*
X179434167Y-92621221D01*
X179435000Y-92617033D01*
X179435000Y-92294967D01*
X179372168Y-91979088D01*
X179248918Y-91681537D01*
X179069987Y-91413748D01*
X178842252Y-91186013D01*
X178574463Y-91007082D01*
X178276912Y-90883832D01*
X177961033Y-90821000D01*
X177638967Y-90821000D01*
X177323088Y-90883832D01*
X177025537Y-91007082D01*
X176923891Y-91075000D01*
X172176109Y-91075000D01*
X172074463Y-91007082D01*
X171776912Y-90883832D01*
X171461033Y-90821000D01*
X171138967Y-90821000D01*
X170823088Y-90883832D01*
X170525537Y-91007082D01*
X170257748Y-91186013D01*
X170030013Y-91413748D01*
X169851082Y-91681537D01*
X169727832Y-91979088D01*
X169665000Y-92294967D01*
X169665000Y-92617033D01*
X169665833Y-92621221D01*
X169657089Y-92710000D01*
X169688657Y-93030516D01*
X169782148Y-93338715D01*
X169933969Y-93622752D01*
X170138286Y-93871714D01*
X170200687Y-93922925D01*
X170350677Y-94072915D01*
X170537248Y-94226030D01*
X170821286Y-94377852D01*
X171129484Y-94471342D01*
X171449999Y-94502911D01*
X171770516Y-94471342D01*
X172078714Y-94377852D01*
X172140176Y-94345000D01*
X172990001Y-94345000D01*
X172990000Y-96790000D01*
X171369678Y-96790000D01*
X171129484Y-96813657D01*
X170887942Y-96886928D01*
X170550000Y-96886928D01*
X170425518Y-96899188D01*
X170305820Y-96935498D01*
X170195506Y-96994463D01*
X170098815Y-97073815D01*
X170019463Y-97170506D01*
X170000924Y-97205190D01*
X169822752Y-97058969D01*
X169538715Y-96907148D01*
X169230516Y-96813657D01*
X168990322Y-96790000D01*
X162479678Y-96790000D01*
X162239484Y-96813657D01*
X161931285Y-96907148D01*
X161647248Y-97058969D01*
X161398286Y-97263286D01*
X161193969Y-97512248D01*
X161042148Y-97796285D01*
X160948657Y-98104484D01*
X160917089Y-98425000D01*
X160948657Y-98745516D01*
X161042148Y-99053715D01*
X161193969Y-99337752D01*
X161398286Y-99586714D01*
X161647248Y-99791031D01*
X161931285Y-99942852D01*
X162239484Y-100036343D01*
X162479678Y-100060000D01*
X168990322Y-100060000D01*
X169230516Y-100036343D01*
X169538715Y-99942852D01*
X169822752Y-99791031D01*
X170000924Y-99644810D01*
X170019463Y-99679494D01*
X170098815Y-99776185D01*
X170195506Y-99855537D01*
X170305820Y-99914502D01*
X170425518Y-99950812D01*
X170550000Y-99963072D01*
X170887942Y-99963072D01*
X171129484Y-100036343D01*
X171369678Y-100060000D01*
X172990001Y-100060000D01*
X172990000Y-101235000D01*
X164384678Y-101235000D01*
X164144484Y-101258657D01*
X163836285Y-101352148D01*
X163552248Y-101503969D01*
X163320745Y-101693958D01*
X163305537Y-101665506D01*
X163226185Y-101568815D01*
X163129494Y-101489463D01*
X163019180Y-101430498D01*
X162899482Y-101394188D01*
X162775000Y-101381928D01*
X162609429Y-101381928D01*
X162553715Y-101352148D01*
X162245516Y-101258657D01*
X162005322Y-101235000D01*
X153400000Y-101235000D01*
X153400000Y-100060000D01*
X155020322Y-100060000D01*
X155260516Y-100036343D01*
X155568715Y-99942852D01*
X155852752Y-99791031D01*
X156101714Y-99586714D01*
X156306031Y-99337752D01*
X156457852Y-99053715D01*
X156551343Y-98745516D01*
X156582911Y-98425000D01*
X156551343Y-98104484D01*
X156457852Y-97796285D01*
X156306031Y-97512248D01*
X156101714Y-97263286D01*
X155852752Y-97058969D01*
X155568715Y-96907148D01*
X155260516Y-96813657D01*
X155020322Y-96790000D01*
X153400000Y-96790000D01*
X153400000Y-94345000D01*
X155020322Y-94345000D01*
X155260516Y-94321343D01*
X155568715Y-94227852D01*
X155852752Y-94076031D01*
X156101714Y-93871714D01*
X156306031Y-93622752D01*
X156457852Y-93338715D01*
X156551343Y-93030516D01*
X156582911Y-92710000D01*
X156551343Y-92389484D01*
X156457852Y-92081285D01*
X156306031Y-91797248D01*
X156101714Y-91548286D01*
X155978095Y-91446835D01*
X155955987Y-91413748D01*
X155728252Y-91186013D01*
X155460463Y-91007082D01*
X155162912Y-90883832D01*
X154847033Y-90821000D01*
X154524967Y-90821000D01*
X154209088Y-90883832D01*
X153911537Y-91007082D01*
X153809891Y-91075000D01*
X151845322Y-91075000D01*
X151765000Y-91067089D01*
X151684678Y-91075000D01*
X149062109Y-91075000D01*
X148960463Y-91007082D01*
X148662912Y-90883832D01*
X148347033Y-90821000D01*
X148024967Y-90821000D01*
X147709088Y-90883832D01*
X147411537Y-91007082D01*
X147143748Y-91186013D01*
X146916013Y-91413748D01*
X146737082Y-91681537D01*
X146613832Y-91979088D01*
X146551000Y-92294967D01*
X124733653Y-92294967D01*
X123268072Y-90829387D01*
X123268072Y-89180000D01*
X123255812Y-89055518D01*
X123219502Y-88935820D01*
X123160537Y-88825506D01*
X123081185Y-88728815D01*
X122984494Y-88649463D01*
X122874180Y-88590498D01*
X122754482Y-88554188D01*
X122630000Y-88541928D01*
X118670000Y-88541928D01*
X118545518Y-88554188D01*
X118425820Y-88590498D01*
X118315506Y-88649463D01*
X118218815Y-88728815D01*
X118139463Y-88825506D01*
X118080498Y-88935820D01*
X118044188Y-89055518D01*
X118031928Y-89180000D01*
X117060000Y-89180000D01*
X117060000Y-87996665D01*
X135217000Y-87996665D01*
X135217000Y-88279335D01*
X135272147Y-88556574D01*
X135380320Y-88817727D01*
X135537363Y-89052759D01*
X135737241Y-89252637D01*
X135972273Y-89409680D01*
X136233426Y-89517853D01*
X136510665Y-89573000D01*
X136793335Y-89573000D01*
X137044699Y-89523000D01*
X147696611Y-89523000D01*
X147709088Y-89528168D01*
X148024967Y-89591000D01*
X148347033Y-89591000D01*
X148662912Y-89528168D01*
X148960463Y-89404918D01*
X149056123Y-89341000D01*
X153815877Y-89341000D01*
X153911537Y-89404918D01*
X154209088Y-89528168D01*
X154524967Y-89591000D01*
X154847033Y-89591000D01*
X155162912Y-89528168D01*
X155460463Y-89404918D01*
X155556123Y-89341000D01*
X170429877Y-89341000D01*
X170525537Y-89404918D01*
X170823088Y-89528168D01*
X171138967Y-89591000D01*
X171461033Y-89591000D01*
X171776912Y-89528168D01*
X172074463Y-89404918D01*
X172170123Y-89341000D01*
X176929877Y-89341000D01*
X177025537Y-89404918D01*
X177323088Y-89528168D01*
X177638967Y-89591000D01*
X177961033Y-89591000D01*
X178276912Y-89528168D01*
X178574463Y-89404918D01*
X178842252Y-89225987D01*
X179069987Y-88998252D01*
X179248918Y-88730463D01*
X179372168Y-88432912D01*
X179435000Y-88117033D01*
X179435000Y-87794967D01*
X179372168Y-87479088D01*
X179248918Y-87181537D01*
X179069987Y-86913748D01*
X178842252Y-86686013D01*
X178574463Y-86507082D01*
X178276912Y-86383832D01*
X177961033Y-86321000D01*
X177638967Y-86321000D01*
X177323088Y-86383832D01*
X177025537Y-86507082D01*
X176929877Y-86571000D01*
X172170123Y-86571000D01*
X172074463Y-86507082D01*
X171776912Y-86383832D01*
X171461033Y-86321000D01*
X171138967Y-86321000D01*
X170823088Y-86383832D01*
X170525537Y-86507082D01*
X170429877Y-86571000D01*
X155556123Y-86571000D01*
X155460463Y-86507082D01*
X155162912Y-86383832D01*
X154847033Y-86321000D01*
X154524967Y-86321000D01*
X154209088Y-86383832D01*
X153911537Y-86507082D01*
X153815877Y-86571000D01*
X149056123Y-86571000D01*
X148960463Y-86507082D01*
X148662912Y-86383832D01*
X148347033Y-86321000D01*
X148024967Y-86321000D01*
X147709088Y-86383832D01*
X147411537Y-86507082D01*
X147143748Y-86686013D01*
X147076761Y-86753000D01*
X137521421Y-86753000D01*
X137366580Y-86670236D01*
X137105507Y-86591040D01*
X136834000Y-86564300D01*
X136562494Y-86591040D01*
X136301420Y-86670236D01*
X136060813Y-86798843D01*
X135985032Y-86861035D01*
X135972273Y-86866320D01*
X135737241Y-87023363D01*
X135537363Y-87223241D01*
X135380320Y-87458273D01*
X135272147Y-87719426D01*
X135217000Y-87996665D01*
X117060000Y-87996665D01*
X117060000Y-80876521D01*
X117130979Y-80876521D01*
X117130979Y-81323479D01*
X117218176Y-81761849D01*
X117389220Y-82174785D01*
X117637536Y-82546417D01*
X117953583Y-82862464D01*
X118325215Y-83110780D01*
X118738151Y-83281824D01*
X119176521Y-83369021D01*
X119623479Y-83369021D01*
X120061849Y-83281824D01*
X120474785Y-83110780D01*
X120846417Y-82862464D01*
X121162464Y-82546417D01*
X121410780Y-82174785D01*
X121581824Y-81761849D01*
X121669021Y-81323479D01*
X121669021Y-80876521D01*
X183130979Y-80876521D01*
X183130979Y-81323479D01*
X183218176Y-81761849D01*
X183389220Y-82174785D01*
X183637536Y-82546417D01*
X183953583Y-82862464D01*
X184325215Y-83110780D01*
X184738151Y-83281824D01*
X185176521Y-83369021D01*
X185623479Y-83369021D01*
X186061849Y-83281824D01*
X186474785Y-83110780D01*
X186846417Y-82862464D01*
X187162464Y-82546417D01*
X187410780Y-82174785D01*
X187581824Y-81761849D01*
X187669021Y-81323479D01*
X187669021Y-80876521D01*
X187581824Y-80438151D01*
X187410780Y-80025215D01*
X187162464Y-79653583D01*
X186846417Y-79337536D01*
X186474785Y-79089220D01*
X186061849Y-78918176D01*
X185623479Y-78830979D01*
X185176521Y-78830979D01*
X184738151Y-78918176D01*
X184325215Y-79089220D01*
X183953583Y-79337536D01*
X183637536Y-79653583D01*
X183389220Y-80025215D01*
X183218176Y-80438151D01*
X183130979Y-80876521D01*
X121669021Y-80876521D01*
X121581824Y-80438151D01*
X121410780Y-80025215D01*
X121162464Y-79653583D01*
X120846417Y-79337536D01*
X120474785Y-79089220D01*
X120061849Y-78918176D01*
X119623479Y-78830979D01*
X119176521Y-78830979D01*
X118738151Y-78918176D01*
X118325215Y-79089220D01*
X117953583Y-79337536D01*
X117637536Y-79653583D01*
X117389220Y-80025215D01*
X117218176Y-80438151D01*
X117130979Y-80876521D01*
X117060000Y-80876521D01*
X117060000Y-78760000D01*
X187740000Y-78760000D01*
X187740001Y-124440000D01*
G37*
%TD.AperFunction*%
%TD*%
M02*
