%TF.GenerationSoftware,KiCad,Pcbnew,(5.1.12)-1*%
%TF.CreationDate,2022-07-22T22:42:44+09:00*%
%TF.ProjectId,FullBridge_demo_kit,46756c6c-4272-4696-9467-655f64656d6f,rev?*%
%TF.SameCoordinates,Original*%
%TF.FileFunction,Legend,Top*%
%TF.FilePolarity,Positive*%
%FSLAX46Y46*%
G04 Gerber Fmt 4.6, Leading zero omitted, Abs format (unit mm)*
G04 Created by KiCad (PCBNEW (5.1.12)-1) date 2022-07-22 22:42:44*
%MOMM*%
%LPD*%
G01*
G04 APERTURE LIST*
%ADD10C,0.300000*%
%ADD11C,0.100000*%
%ADD12C,0.120000*%
%ADD13C,0.150000*%
G04 APERTURE END LIST*
D10*
X152120000Y-123233571D02*
X152120000Y-121733571D01*
X152691428Y-121733571D01*
X152834285Y-121805000D01*
X152905714Y-121876428D01*
X152977142Y-122019285D01*
X152977142Y-122233571D01*
X152905714Y-122376428D01*
X152834285Y-122447857D01*
X152691428Y-122519285D01*
X152120000Y-122519285D01*
X153620000Y-123233571D02*
X153620000Y-122233571D01*
X153620000Y-122519285D02*
X153691428Y-122376428D01*
X153762857Y-122305000D01*
X153905714Y-122233571D01*
X154048571Y-122233571D01*
X154762857Y-123233571D02*
X154620000Y-123162142D01*
X154548571Y-123090714D01*
X154477142Y-122947857D01*
X154477142Y-122519285D01*
X154548571Y-122376428D01*
X154620000Y-122305000D01*
X154762857Y-122233571D01*
X154977142Y-122233571D01*
X155120000Y-122305000D01*
X155191428Y-122376428D01*
X155262857Y-122519285D01*
X155262857Y-122947857D01*
X155191428Y-123090714D01*
X155120000Y-123162142D01*
X154977142Y-123233571D01*
X154762857Y-123233571D01*
X156548571Y-123233571D02*
X156548571Y-121733571D01*
X156548571Y-123162142D02*
X156405714Y-123233571D01*
X156120000Y-123233571D01*
X155977142Y-123162142D01*
X155905714Y-123090714D01*
X155834285Y-122947857D01*
X155834285Y-122519285D01*
X155905714Y-122376428D01*
X155977142Y-122305000D01*
X156120000Y-122233571D01*
X156405714Y-122233571D01*
X156548571Y-122305000D01*
X157905714Y-122233571D02*
X157905714Y-123233571D01*
X157262857Y-122233571D02*
X157262857Y-123019285D01*
X157334285Y-123162142D01*
X157477142Y-123233571D01*
X157691428Y-123233571D01*
X157834285Y-123162142D01*
X157905714Y-123090714D01*
X159262857Y-123162142D02*
X159120000Y-123233571D01*
X158834285Y-123233571D01*
X158691428Y-123162142D01*
X158620000Y-123090714D01*
X158548571Y-122947857D01*
X158548571Y-122519285D01*
X158620000Y-122376428D01*
X158691428Y-122305000D01*
X158834285Y-122233571D01*
X159120000Y-122233571D01*
X159262857Y-122305000D01*
X159691428Y-122233571D02*
X160262857Y-122233571D01*
X159905714Y-121733571D02*
X159905714Y-123019285D01*
X159977142Y-123162142D01*
X160120000Y-123233571D01*
X160262857Y-123233571D01*
X161905714Y-123233571D02*
X161905714Y-121733571D01*
X161905714Y-122305000D02*
X162048571Y-122233571D01*
X162334285Y-122233571D01*
X162477142Y-122305000D01*
X162548571Y-122376428D01*
X162620000Y-122519285D01*
X162620000Y-122947857D01*
X162548571Y-123090714D01*
X162477142Y-123162142D01*
X162334285Y-123233571D01*
X162048571Y-123233571D01*
X161905714Y-123162142D01*
X163120000Y-122233571D02*
X163477142Y-123233571D01*
X163834285Y-122233571D02*
X163477142Y-123233571D01*
X163334285Y-123590714D01*
X163262857Y-123662142D01*
X163120000Y-123733571D01*
X166477142Y-122519285D02*
X166405714Y-122447857D01*
X166262857Y-122376428D01*
X166120000Y-122376428D01*
X165977142Y-122447857D01*
X165905714Y-122519285D01*
X165834285Y-122662142D01*
X165834285Y-122805000D01*
X165905714Y-122947857D01*
X165977142Y-123019285D01*
X166120000Y-123090714D01*
X166262857Y-123090714D01*
X166405714Y-123019285D01*
X166477142Y-122947857D01*
X166477142Y-122376428D02*
X166477142Y-122947857D01*
X166548571Y-123019285D01*
X166620000Y-123019285D01*
X166762857Y-122947857D01*
X166834285Y-122805000D01*
X166834285Y-122447857D01*
X166691428Y-122233571D01*
X166477142Y-122090714D01*
X166191428Y-122019285D01*
X165905714Y-122090714D01*
X165691428Y-122233571D01*
X165548571Y-122447857D01*
X165477142Y-122733571D01*
X165548571Y-123019285D01*
X165691428Y-123233571D01*
X165905714Y-123376428D01*
X166191428Y-123447857D01*
X166477142Y-123376428D01*
X166691428Y-123233571D01*
X167477142Y-123233571D02*
X167477142Y-121733571D01*
X168334285Y-123233571D01*
X168334285Y-121733571D01*
X169691428Y-123162142D02*
X169548571Y-123233571D01*
X169262857Y-123233571D01*
X169120000Y-123162142D01*
X169048571Y-123090714D01*
X168977142Y-122947857D01*
X168977142Y-122519285D01*
X169048571Y-122376428D01*
X169120000Y-122305000D01*
X169262857Y-122233571D01*
X169548571Y-122233571D01*
X169691428Y-122305000D01*
X170334285Y-123233571D02*
X170334285Y-121733571D01*
X170977142Y-123233571D02*
X170977142Y-122447857D01*
X170905714Y-122305000D01*
X170762857Y-122233571D01*
X170548571Y-122233571D01*
X170405714Y-122305000D01*
X170334285Y-122376428D01*
X171334285Y-123376428D02*
X172477142Y-123376428D01*
X172834285Y-123233571D02*
X172834285Y-121733571D01*
X173334285Y-122805000D01*
X173834285Y-121733571D01*
X173834285Y-123233571D01*
X174834285Y-121733571D02*
X175120000Y-121733571D01*
X175262857Y-121805000D01*
X175405714Y-121947857D01*
X175477142Y-122233571D01*
X175477142Y-122733571D01*
X175405714Y-123019285D01*
X175262857Y-123162142D01*
X175120000Y-123233571D01*
X174834285Y-123233571D01*
X174691428Y-123162142D01*
X174548571Y-123019285D01*
X174477142Y-122733571D01*
X174477142Y-122233571D01*
X174548571Y-121947857D01*
X174691428Y-121805000D01*
X174834285Y-121733571D01*
X176048571Y-123162142D02*
X176262857Y-123233571D01*
X176620000Y-123233571D01*
X176762857Y-123162142D01*
X176834285Y-123090714D01*
X176905714Y-122947857D01*
X176905714Y-122805000D01*
X176834285Y-122662142D01*
X176762857Y-122590714D01*
X176620000Y-122519285D01*
X176334285Y-122447857D01*
X176191428Y-122376428D01*
X176120000Y-122305000D01*
X176048571Y-122162142D01*
X176048571Y-122019285D01*
X176120000Y-121876428D01*
X176191428Y-121805000D01*
X176334285Y-121733571D01*
X176691428Y-121733571D01*
X176905714Y-121805000D01*
X178048571Y-122447857D02*
X177548571Y-122447857D01*
X177548571Y-123233571D02*
X177548571Y-121733571D01*
X178262857Y-121733571D01*
X178834285Y-122447857D02*
X179334285Y-122447857D01*
X179548571Y-123233571D02*
X178834285Y-123233571D01*
X178834285Y-121733571D01*
X179548571Y-121733571D01*
X179977142Y-121733571D02*
X180834285Y-121733571D01*
X180405714Y-123233571D02*
X180405714Y-121733571D01*
X155357142Y-81172857D02*
X154857142Y-81172857D01*
X154857142Y-81958571D02*
X154857142Y-80458571D01*
X155571428Y-80458571D01*
X156785714Y-80958571D02*
X156785714Y-81958571D01*
X156142857Y-80958571D02*
X156142857Y-81744285D01*
X156214285Y-81887142D01*
X156357142Y-81958571D01*
X156571428Y-81958571D01*
X156714285Y-81887142D01*
X156785714Y-81815714D01*
X157714285Y-81958571D02*
X157571428Y-81887142D01*
X157500000Y-81744285D01*
X157500000Y-80458571D01*
X158500000Y-81958571D02*
X158357142Y-81887142D01*
X158285714Y-81744285D01*
X158285714Y-80458571D01*
X160714285Y-81172857D02*
X160928571Y-81244285D01*
X161000000Y-81315714D01*
X161071428Y-81458571D01*
X161071428Y-81672857D01*
X161000000Y-81815714D01*
X160928571Y-81887142D01*
X160785714Y-81958571D01*
X160214285Y-81958571D01*
X160214285Y-80458571D01*
X160714285Y-80458571D01*
X160857142Y-80530000D01*
X160928571Y-80601428D01*
X161000000Y-80744285D01*
X161000000Y-80887142D01*
X160928571Y-81030000D01*
X160857142Y-81101428D01*
X160714285Y-81172857D01*
X160214285Y-81172857D01*
X161714285Y-81958571D02*
X161714285Y-80958571D01*
X161714285Y-81244285D02*
X161785714Y-81101428D01*
X161857142Y-81030000D01*
X162000000Y-80958571D01*
X162142857Y-80958571D01*
X162642857Y-81958571D02*
X162642857Y-80958571D01*
X162642857Y-80458571D02*
X162571428Y-80530000D01*
X162642857Y-80601428D01*
X162714285Y-80530000D01*
X162642857Y-80458571D01*
X162642857Y-80601428D01*
X164000000Y-81958571D02*
X164000000Y-80458571D01*
X164000000Y-81887142D02*
X163857142Y-81958571D01*
X163571428Y-81958571D01*
X163428571Y-81887142D01*
X163357142Y-81815714D01*
X163285714Y-81672857D01*
X163285714Y-81244285D01*
X163357142Y-81101428D01*
X163428571Y-81030000D01*
X163571428Y-80958571D01*
X163857142Y-80958571D01*
X164000000Y-81030000D01*
X165357142Y-80958571D02*
X165357142Y-82172857D01*
X165285714Y-82315714D01*
X165214285Y-82387142D01*
X165071428Y-82458571D01*
X164857142Y-82458571D01*
X164714285Y-82387142D01*
X165357142Y-81887142D02*
X165214285Y-81958571D01*
X164928571Y-81958571D01*
X164785714Y-81887142D01*
X164714285Y-81815714D01*
X164642857Y-81672857D01*
X164642857Y-81244285D01*
X164714285Y-81101428D01*
X164785714Y-81030000D01*
X164928571Y-80958571D01*
X165214285Y-80958571D01*
X165357142Y-81030000D01*
X166642857Y-81887142D02*
X166500000Y-81958571D01*
X166214285Y-81958571D01*
X166071428Y-81887142D01*
X166000000Y-81744285D01*
X166000000Y-81172857D01*
X166071428Y-81030000D01*
X166214285Y-80958571D01*
X166500000Y-80958571D01*
X166642857Y-81030000D01*
X166714285Y-81172857D01*
X166714285Y-81315714D01*
X166000000Y-81458571D01*
X168500000Y-81958571D02*
X168500000Y-80458571D01*
X168857142Y-80458571D01*
X169071428Y-80530000D01*
X169214285Y-80672857D01*
X169285714Y-80815714D01*
X169357142Y-81101428D01*
X169357142Y-81315714D01*
X169285714Y-81601428D01*
X169214285Y-81744285D01*
X169071428Y-81887142D01*
X168857142Y-81958571D01*
X168500000Y-81958571D01*
X170571428Y-81887142D02*
X170428571Y-81958571D01*
X170142857Y-81958571D01*
X170000000Y-81887142D01*
X169928571Y-81744285D01*
X169928571Y-81172857D01*
X170000000Y-81030000D01*
X170142857Y-80958571D01*
X170428571Y-80958571D01*
X170571428Y-81030000D01*
X170642857Y-81172857D01*
X170642857Y-81315714D01*
X169928571Y-81458571D01*
X171285714Y-81958571D02*
X171285714Y-80958571D01*
X171285714Y-81101428D02*
X171357142Y-81030000D01*
X171500000Y-80958571D01*
X171714285Y-80958571D01*
X171857142Y-81030000D01*
X171928571Y-81172857D01*
X171928571Y-81958571D01*
X171928571Y-81172857D02*
X172000000Y-81030000D01*
X172142857Y-80958571D01*
X172357142Y-80958571D01*
X172500000Y-81030000D01*
X172571428Y-81172857D01*
X172571428Y-81958571D01*
X173500000Y-81958571D02*
X173357142Y-81887142D01*
X173285714Y-81815714D01*
X173214285Y-81672857D01*
X173214285Y-81244285D01*
X173285714Y-81101428D01*
X173357142Y-81030000D01*
X173500000Y-80958571D01*
X173714285Y-80958571D01*
X173857142Y-81030000D01*
X173928571Y-81101428D01*
X174000000Y-81244285D01*
X174000000Y-81672857D01*
X173928571Y-81815714D01*
X173857142Y-81887142D01*
X173714285Y-81958571D01*
X173500000Y-81958571D01*
X175785714Y-81958571D02*
X175785714Y-80458571D01*
X176642857Y-81958571D02*
X176000000Y-81101428D01*
X176642857Y-80458571D02*
X175785714Y-81315714D01*
X177285714Y-81958571D02*
X177285714Y-80958571D01*
X177285714Y-80458571D02*
X177214285Y-80530000D01*
X177285714Y-80601428D01*
X177357142Y-80530000D01*
X177285714Y-80458571D01*
X177285714Y-80601428D01*
X177785714Y-80958571D02*
X178357142Y-80958571D01*
X178000000Y-80458571D02*
X178000000Y-81744285D01*
X178071428Y-81887142D01*
X178214285Y-81958571D01*
X178357142Y-81958571D01*
D11*
X117778095Y-84742380D02*
X117778095Y-83742380D01*
X118254285Y-84075714D02*
X118254285Y-84742380D01*
X118254285Y-84170952D02*
X118301904Y-84123333D01*
X118397142Y-84075714D01*
X118540000Y-84075714D01*
X118635238Y-84123333D01*
X118682857Y-84218571D01*
X118682857Y-84742380D01*
X119159047Y-84075714D02*
X119159047Y-85075714D01*
X119159047Y-84123333D02*
X119254285Y-84075714D01*
X119444761Y-84075714D01*
X119540000Y-84123333D01*
X119587619Y-84170952D01*
X119635238Y-84266190D01*
X119635238Y-84551904D01*
X119587619Y-84647142D01*
X119540000Y-84694761D01*
X119444761Y-84742380D01*
X119254285Y-84742380D01*
X119159047Y-84694761D01*
X120492380Y-84075714D02*
X120492380Y-84742380D01*
X120063809Y-84075714D02*
X120063809Y-84599523D01*
X120111428Y-84694761D01*
X120206666Y-84742380D01*
X120349523Y-84742380D01*
X120444761Y-84694761D01*
X120492380Y-84647142D01*
X120825714Y-84075714D02*
X121206666Y-84075714D01*
X120968571Y-83742380D02*
X120968571Y-84599523D01*
X121016190Y-84694761D01*
X121111428Y-84742380D01*
X121206666Y-84742380D01*
X122159047Y-83742380D02*
X122492380Y-84742380D01*
X122825714Y-83742380D01*
X123301904Y-84742380D02*
X123206666Y-84694761D01*
X123159047Y-84647142D01*
X123111428Y-84551904D01*
X123111428Y-84266190D01*
X123159047Y-84170952D01*
X123206666Y-84123333D01*
X123301904Y-84075714D01*
X123444761Y-84075714D01*
X123540000Y-84123333D01*
X123587619Y-84170952D01*
X123635238Y-84266190D01*
X123635238Y-84551904D01*
X123587619Y-84647142D01*
X123540000Y-84694761D01*
X123444761Y-84742380D01*
X123301904Y-84742380D01*
X124206666Y-84742380D02*
X124111428Y-84694761D01*
X124063809Y-84599523D01*
X124063809Y-83742380D01*
X124444761Y-84075714D02*
X124825714Y-84075714D01*
X124587619Y-83742380D02*
X124587619Y-84599523D01*
X124635238Y-84694761D01*
X124730476Y-84742380D01*
X124825714Y-84742380D01*
X125587619Y-84742380D02*
X125587619Y-84218571D01*
X125540000Y-84123333D01*
X125444761Y-84075714D01*
X125254285Y-84075714D01*
X125159047Y-84123333D01*
X125587619Y-84694761D02*
X125492380Y-84742380D01*
X125254285Y-84742380D01*
X125159047Y-84694761D01*
X125111428Y-84599523D01*
X125111428Y-84504285D01*
X125159047Y-84409047D01*
X125254285Y-84361428D01*
X125492380Y-84361428D01*
X125587619Y-84313809D01*
X126492380Y-84075714D02*
X126492380Y-84885238D01*
X126444761Y-84980476D01*
X126397142Y-85028095D01*
X126301904Y-85075714D01*
X126159047Y-85075714D01*
X126063809Y-85028095D01*
X126492380Y-84694761D02*
X126397142Y-84742380D01*
X126206666Y-84742380D01*
X126111428Y-84694761D01*
X126063809Y-84647142D01*
X126016190Y-84551904D01*
X126016190Y-84266190D01*
X126063809Y-84170952D01*
X126111428Y-84123333D01*
X126206666Y-84075714D01*
X126397142Y-84075714D01*
X126492380Y-84123333D01*
X127349523Y-84694761D02*
X127254285Y-84742380D01*
X127063809Y-84742380D01*
X126968571Y-84694761D01*
X126920952Y-84599523D01*
X126920952Y-84218571D01*
X126968571Y-84123333D01*
X127063809Y-84075714D01*
X127254285Y-84075714D01*
X127349523Y-84123333D01*
X127397142Y-84218571D01*
X127397142Y-84313809D01*
X126920952Y-84409047D01*
X129159047Y-84742380D02*
X128825714Y-84266190D01*
X128587619Y-84742380D02*
X128587619Y-83742380D01*
X128968571Y-83742380D01*
X129063809Y-83790000D01*
X129111428Y-83837619D01*
X129159047Y-83932857D01*
X129159047Y-84075714D01*
X129111428Y-84170952D01*
X129063809Y-84218571D01*
X128968571Y-84266190D01*
X128587619Y-84266190D01*
X130016190Y-84742380D02*
X130016190Y-84218571D01*
X129968571Y-84123333D01*
X129873333Y-84075714D01*
X129682857Y-84075714D01*
X129587619Y-84123333D01*
X130016190Y-84694761D02*
X129920952Y-84742380D01*
X129682857Y-84742380D01*
X129587619Y-84694761D01*
X129540000Y-84599523D01*
X129540000Y-84504285D01*
X129587619Y-84409047D01*
X129682857Y-84361428D01*
X129920952Y-84361428D01*
X130016190Y-84313809D01*
X130492380Y-84075714D02*
X130492380Y-84742380D01*
X130492380Y-84170952D02*
X130540000Y-84123333D01*
X130635238Y-84075714D01*
X130778095Y-84075714D01*
X130873333Y-84123333D01*
X130920952Y-84218571D01*
X130920952Y-84742380D01*
X131825714Y-84075714D02*
X131825714Y-84885238D01*
X131778095Y-84980476D01*
X131730476Y-85028095D01*
X131635238Y-85075714D01*
X131492380Y-85075714D01*
X131397142Y-85028095D01*
X131825714Y-84694761D02*
X131730476Y-84742380D01*
X131540000Y-84742380D01*
X131444761Y-84694761D01*
X131397142Y-84647142D01*
X131349523Y-84551904D01*
X131349523Y-84266190D01*
X131397142Y-84170952D01*
X131444761Y-84123333D01*
X131540000Y-84075714D01*
X131730476Y-84075714D01*
X131825714Y-84123333D01*
X132682857Y-84694761D02*
X132587619Y-84742380D01*
X132397142Y-84742380D01*
X132301904Y-84694761D01*
X132254285Y-84599523D01*
X132254285Y-84218571D01*
X132301904Y-84123333D01*
X132397142Y-84075714D01*
X132587619Y-84075714D01*
X132682857Y-84123333D01*
X132730476Y-84218571D01*
X132730476Y-84313809D01*
X132254285Y-84409047D01*
X117682857Y-85342380D02*
X118349523Y-85342380D01*
X117920952Y-86342380D01*
X118587619Y-85342380D02*
X118920952Y-86342380D01*
X119254285Y-85342380D01*
X120349523Y-85961428D02*
X121111428Y-85961428D01*
X122254285Y-85342380D02*
X122873333Y-85342380D01*
X122540000Y-85723333D01*
X122682857Y-85723333D01*
X122778095Y-85770952D01*
X122825714Y-85818571D01*
X122873333Y-85913809D01*
X122873333Y-86151904D01*
X122825714Y-86247142D01*
X122778095Y-86294761D01*
X122682857Y-86342380D01*
X122397142Y-86342380D01*
X122301904Y-86294761D01*
X122254285Y-86247142D01*
X123492380Y-85342380D02*
X123587619Y-85342380D01*
X123682857Y-85390000D01*
X123730476Y-85437619D01*
X123778095Y-85532857D01*
X123825714Y-85723333D01*
X123825714Y-85961428D01*
X123778095Y-86151904D01*
X123730476Y-86247142D01*
X123682857Y-86294761D01*
X123587619Y-86342380D01*
X123492380Y-86342380D01*
X123397142Y-86294761D01*
X123349523Y-86247142D01*
X123301904Y-86151904D01*
X123254285Y-85961428D01*
X123254285Y-85723333D01*
X123301904Y-85532857D01*
X123349523Y-85437619D01*
X123397142Y-85390000D01*
X123492380Y-85342380D01*
X124111428Y-85342380D02*
X124444761Y-86342380D01*
X124778095Y-85342380D01*
D12*
%TO.C,C1*%
X126715000Y-102235000D02*
G75*
G03*
X126715000Y-102235000I-2620000J0D01*
G01*
X124095000Y-101195000D02*
X124095000Y-99655000D01*
X124095000Y-104815000D02*
X124095000Y-103275000D01*
X124055000Y-101195000D02*
X124055000Y-99655000D01*
X124055000Y-104815000D02*
X124055000Y-103275000D01*
X124015000Y-104814000D02*
X124015000Y-103275000D01*
X124015000Y-101195000D02*
X124015000Y-99656000D01*
X123975000Y-104813000D02*
X123975000Y-103275000D01*
X123975000Y-101195000D02*
X123975000Y-99657000D01*
X123935000Y-104811000D02*
X123935000Y-103275000D01*
X123935000Y-101195000D02*
X123935000Y-99659000D01*
X123895000Y-104808000D02*
X123895000Y-103275000D01*
X123895000Y-101195000D02*
X123895000Y-99662000D01*
X123855000Y-104804000D02*
X123855000Y-103275000D01*
X123855000Y-101195000D02*
X123855000Y-99666000D01*
X123815000Y-104800000D02*
X123815000Y-103275000D01*
X123815000Y-101195000D02*
X123815000Y-99670000D01*
X123775000Y-104796000D02*
X123775000Y-103275000D01*
X123775000Y-101195000D02*
X123775000Y-99674000D01*
X123735000Y-104791000D02*
X123735000Y-103275000D01*
X123735000Y-101195000D02*
X123735000Y-99679000D01*
X123695000Y-104785000D02*
X123695000Y-103275000D01*
X123695000Y-101195000D02*
X123695000Y-99685000D01*
X123655000Y-104778000D02*
X123655000Y-103275000D01*
X123655000Y-101195000D02*
X123655000Y-99692000D01*
X123615000Y-104771000D02*
X123615000Y-103275000D01*
X123615000Y-101195000D02*
X123615000Y-99699000D01*
X123575000Y-104763000D02*
X123575000Y-103275000D01*
X123575000Y-101195000D02*
X123575000Y-99707000D01*
X123535000Y-104755000D02*
X123535000Y-103275000D01*
X123535000Y-101195000D02*
X123535000Y-99715000D01*
X123495000Y-104746000D02*
X123495000Y-103275000D01*
X123495000Y-101195000D02*
X123495000Y-99724000D01*
X123455000Y-104736000D02*
X123455000Y-103275000D01*
X123455000Y-101195000D02*
X123455000Y-99734000D01*
X123415000Y-104726000D02*
X123415000Y-103275000D01*
X123415000Y-101195000D02*
X123415000Y-99744000D01*
X123374000Y-104715000D02*
X123374000Y-103275000D01*
X123374000Y-101195000D02*
X123374000Y-99755000D01*
X123334000Y-104703000D02*
X123334000Y-103275000D01*
X123334000Y-101195000D02*
X123334000Y-99767000D01*
X123294000Y-104690000D02*
X123294000Y-103275000D01*
X123294000Y-101195000D02*
X123294000Y-99780000D01*
X123254000Y-104677000D02*
X123254000Y-103275000D01*
X123254000Y-101195000D02*
X123254000Y-99793000D01*
X123214000Y-104663000D02*
X123214000Y-103275000D01*
X123214000Y-101195000D02*
X123214000Y-99807000D01*
X123174000Y-104649000D02*
X123174000Y-103275000D01*
X123174000Y-101195000D02*
X123174000Y-99821000D01*
X123134000Y-104633000D02*
X123134000Y-103275000D01*
X123134000Y-101195000D02*
X123134000Y-99837000D01*
X123094000Y-104617000D02*
X123094000Y-103275000D01*
X123094000Y-101195000D02*
X123094000Y-99853000D01*
X123054000Y-104600000D02*
X123054000Y-103275000D01*
X123054000Y-101195000D02*
X123054000Y-99870000D01*
X123014000Y-104583000D02*
X123014000Y-103275000D01*
X123014000Y-101195000D02*
X123014000Y-99887000D01*
X122974000Y-104564000D02*
X122974000Y-103275000D01*
X122974000Y-101195000D02*
X122974000Y-99906000D01*
X122934000Y-104545000D02*
X122934000Y-103275000D01*
X122934000Y-101195000D02*
X122934000Y-99925000D01*
X122894000Y-104525000D02*
X122894000Y-103275000D01*
X122894000Y-101195000D02*
X122894000Y-99945000D01*
X122854000Y-104503000D02*
X122854000Y-103275000D01*
X122854000Y-101195000D02*
X122854000Y-99967000D01*
X122814000Y-104482000D02*
X122814000Y-103275000D01*
X122814000Y-101195000D02*
X122814000Y-99988000D01*
X122774000Y-104459000D02*
X122774000Y-103275000D01*
X122774000Y-101195000D02*
X122774000Y-100011000D01*
X122734000Y-104435000D02*
X122734000Y-103275000D01*
X122734000Y-101195000D02*
X122734000Y-100035000D01*
X122694000Y-104410000D02*
X122694000Y-103275000D01*
X122694000Y-101195000D02*
X122694000Y-100060000D01*
X122654000Y-104384000D02*
X122654000Y-103275000D01*
X122654000Y-101195000D02*
X122654000Y-100086000D01*
X122614000Y-104357000D02*
X122614000Y-103275000D01*
X122614000Y-101195000D02*
X122614000Y-100113000D01*
X122574000Y-104330000D02*
X122574000Y-103275000D01*
X122574000Y-101195000D02*
X122574000Y-100140000D01*
X122534000Y-104300000D02*
X122534000Y-103275000D01*
X122534000Y-101195000D02*
X122534000Y-100170000D01*
X122494000Y-104270000D02*
X122494000Y-103275000D01*
X122494000Y-101195000D02*
X122494000Y-100200000D01*
X122454000Y-104239000D02*
X122454000Y-103275000D01*
X122454000Y-101195000D02*
X122454000Y-100231000D01*
X122414000Y-104206000D02*
X122414000Y-103275000D01*
X122414000Y-101195000D02*
X122414000Y-100264000D01*
X122374000Y-104172000D02*
X122374000Y-103275000D01*
X122374000Y-101195000D02*
X122374000Y-100298000D01*
X122334000Y-104136000D02*
X122334000Y-103275000D01*
X122334000Y-101195000D02*
X122334000Y-100334000D01*
X122294000Y-104099000D02*
X122294000Y-103275000D01*
X122294000Y-101195000D02*
X122294000Y-100371000D01*
X122254000Y-104061000D02*
X122254000Y-103275000D01*
X122254000Y-101195000D02*
X122254000Y-100409000D01*
X122214000Y-104020000D02*
X122214000Y-103275000D01*
X122214000Y-101195000D02*
X122214000Y-100450000D01*
X122174000Y-103978000D02*
X122174000Y-103275000D01*
X122174000Y-101195000D02*
X122174000Y-100492000D01*
X122134000Y-103934000D02*
X122134000Y-103275000D01*
X122134000Y-101195000D02*
X122134000Y-100536000D01*
X122094000Y-103888000D02*
X122094000Y-103275000D01*
X122094000Y-101195000D02*
X122094000Y-100582000D01*
X122054000Y-103840000D02*
X122054000Y-100630000D01*
X122014000Y-103789000D02*
X122014000Y-100681000D01*
X121974000Y-103735000D02*
X121974000Y-100735000D01*
X121934000Y-103678000D02*
X121934000Y-100792000D01*
X121894000Y-103618000D02*
X121894000Y-100852000D01*
X121854000Y-103554000D02*
X121854000Y-100916000D01*
X121814000Y-103486000D02*
X121814000Y-100984000D01*
X121774000Y-103413000D02*
X121774000Y-101057000D01*
X121734000Y-103333000D02*
X121734000Y-101137000D01*
X121694000Y-103246000D02*
X121694000Y-101224000D01*
X121654000Y-103150000D02*
X121654000Y-101320000D01*
X121614000Y-103040000D02*
X121614000Y-101430000D01*
X121574000Y-102912000D02*
X121574000Y-101558000D01*
X121534000Y-102753000D02*
X121534000Y-101717000D01*
X121494000Y-102519000D02*
X121494000Y-101951000D01*
X126899775Y-103710000D02*
X126399775Y-103710000D01*
X126649775Y-103960000D02*
X126649775Y-103460000D01*
%TO.C,C2*%
X123046000Y-105625000D02*
X123046000Y-105310000D01*
X123046000Y-108050000D02*
X123046000Y-107735000D01*
X127986000Y-105625000D02*
X127986000Y-105310000D01*
X127986000Y-108050000D02*
X127986000Y-107735000D01*
X127986000Y-105310000D02*
X123046000Y-105310000D01*
X127986000Y-108050000D02*
X123046000Y-108050000D01*
%TO.C,C3*%
X129694000Y-116810000D02*
X129694000Y-111870000D01*
X132434000Y-116810000D02*
X132434000Y-111870000D01*
X129694000Y-116810000D02*
X130009000Y-116810000D01*
X132119000Y-116810000D02*
X132434000Y-116810000D01*
X129694000Y-111870000D02*
X130009000Y-111870000D01*
X132119000Y-111870000D02*
X132434000Y-111870000D01*
%TO.C,C4*%
X135666775Y-108913000D02*
X135666775Y-108413000D01*
X135916775Y-108663000D02*
X135416775Y-108663000D01*
X130511000Y-107472000D02*
X130511000Y-106904000D01*
X130551000Y-107706000D02*
X130551000Y-106670000D01*
X130591000Y-107865000D02*
X130591000Y-106511000D01*
X130631000Y-107993000D02*
X130631000Y-106383000D01*
X130671000Y-108103000D02*
X130671000Y-106273000D01*
X130711000Y-108199000D02*
X130711000Y-106177000D01*
X130751000Y-108286000D02*
X130751000Y-106090000D01*
X130791000Y-108366000D02*
X130791000Y-106010000D01*
X130831000Y-108439000D02*
X130831000Y-105937000D01*
X130871000Y-108507000D02*
X130871000Y-105869000D01*
X130911000Y-108571000D02*
X130911000Y-105805000D01*
X130951000Y-108631000D02*
X130951000Y-105745000D01*
X130991000Y-108688000D02*
X130991000Y-105688000D01*
X131031000Y-108742000D02*
X131031000Y-105634000D01*
X131071000Y-108793000D02*
X131071000Y-105583000D01*
X131111000Y-106148000D02*
X131111000Y-105535000D01*
X131111000Y-108841000D02*
X131111000Y-108228000D01*
X131151000Y-106148000D02*
X131151000Y-105489000D01*
X131151000Y-108887000D02*
X131151000Y-108228000D01*
X131191000Y-106148000D02*
X131191000Y-105445000D01*
X131191000Y-108931000D02*
X131191000Y-108228000D01*
X131231000Y-106148000D02*
X131231000Y-105403000D01*
X131231000Y-108973000D02*
X131231000Y-108228000D01*
X131271000Y-106148000D02*
X131271000Y-105362000D01*
X131271000Y-109014000D02*
X131271000Y-108228000D01*
X131311000Y-106148000D02*
X131311000Y-105324000D01*
X131311000Y-109052000D02*
X131311000Y-108228000D01*
X131351000Y-106148000D02*
X131351000Y-105287000D01*
X131351000Y-109089000D02*
X131351000Y-108228000D01*
X131391000Y-106148000D02*
X131391000Y-105251000D01*
X131391000Y-109125000D02*
X131391000Y-108228000D01*
X131431000Y-106148000D02*
X131431000Y-105217000D01*
X131431000Y-109159000D02*
X131431000Y-108228000D01*
X131471000Y-106148000D02*
X131471000Y-105184000D01*
X131471000Y-109192000D02*
X131471000Y-108228000D01*
X131511000Y-106148000D02*
X131511000Y-105153000D01*
X131511000Y-109223000D02*
X131511000Y-108228000D01*
X131551000Y-106148000D02*
X131551000Y-105123000D01*
X131551000Y-109253000D02*
X131551000Y-108228000D01*
X131591000Y-106148000D02*
X131591000Y-105093000D01*
X131591000Y-109283000D02*
X131591000Y-108228000D01*
X131631000Y-106148000D02*
X131631000Y-105066000D01*
X131631000Y-109310000D02*
X131631000Y-108228000D01*
X131671000Y-106148000D02*
X131671000Y-105039000D01*
X131671000Y-109337000D02*
X131671000Y-108228000D01*
X131711000Y-106148000D02*
X131711000Y-105013000D01*
X131711000Y-109363000D02*
X131711000Y-108228000D01*
X131751000Y-106148000D02*
X131751000Y-104988000D01*
X131751000Y-109388000D02*
X131751000Y-108228000D01*
X131791000Y-106148000D02*
X131791000Y-104964000D01*
X131791000Y-109412000D02*
X131791000Y-108228000D01*
X131831000Y-106148000D02*
X131831000Y-104941000D01*
X131831000Y-109435000D02*
X131831000Y-108228000D01*
X131871000Y-106148000D02*
X131871000Y-104920000D01*
X131871000Y-109456000D02*
X131871000Y-108228000D01*
X131911000Y-106148000D02*
X131911000Y-104898000D01*
X131911000Y-109478000D02*
X131911000Y-108228000D01*
X131951000Y-106148000D02*
X131951000Y-104878000D01*
X131951000Y-109498000D02*
X131951000Y-108228000D01*
X131991000Y-106148000D02*
X131991000Y-104859000D01*
X131991000Y-109517000D02*
X131991000Y-108228000D01*
X132031000Y-106148000D02*
X132031000Y-104840000D01*
X132031000Y-109536000D02*
X132031000Y-108228000D01*
X132071000Y-106148000D02*
X132071000Y-104823000D01*
X132071000Y-109553000D02*
X132071000Y-108228000D01*
X132111000Y-106148000D02*
X132111000Y-104806000D01*
X132111000Y-109570000D02*
X132111000Y-108228000D01*
X132151000Y-106148000D02*
X132151000Y-104790000D01*
X132151000Y-109586000D02*
X132151000Y-108228000D01*
X132191000Y-106148000D02*
X132191000Y-104774000D01*
X132191000Y-109602000D02*
X132191000Y-108228000D01*
X132231000Y-106148000D02*
X132231000Y-104760000D01*
X132231000Y-109616000D02*
X132231000Y-108228000D01*
X132271000Y-106148000D02*
X132271000Y-104746000D01*
X132271000Y-109630000D02*
X132271000Y-108228000D01*
X132311000Y-106148000D02*
X132311000Y-104733000D01*
X132311000Y-109643000D02*
X132311000Y-108228000D01*
X132351000Y-106148000D02*
X132351000Y-104720000D01*
X132351000Y-109656000D02*
X132351000Y-108228000D01*
X132391000Y-106148000D02*
X132391000Y-104708000D01*
X132391000Y-109668000D02*
X132391000Y-108228000D01*
X132432000Y-106148000D02*
X132432000Y-104697000D01*
X132432000Y-109679000D02*
X132432000Y-108228000D01*
X132472000Y-106148000D02*
X132472000Y-104687000D01*
X132472000Y-109689000D02*
X132472000Y-108228000D01*
X132512000Y-106148000D02*
X132512000Y-104677000D01*
X132512000Y-109699000D02*
X132512000Y-108228000D01*
X132552000Y-106148000D02*
X132552000Y-104668000D01*
X132552000Y-109708000D02*
X132552000Y-108228000D01*
X132592000Y-106148000D02*
X132592000Y-104660000D01*
X132592000Y-109716000D02*
X132592000Y-108228000D01*
X132632000Y-106148000D02*
X132632000Y-104652000D01*
X132632000Y-109724000D02*
X132632000Y-108228000D01*
X132672000Y-106148000D02*
X132672000Y-104645000D01*
X132672000Y-109731000D02*
X132672000Y-108228000D01*
X132712000Y-106148000D02*
X132712000Y-104638000D01*
X132712000Y-109738000D02*
X132712000Y-108228000D01*
X132752000Y-106148000D02*
X132752000Y-104632000D01*
X132752000Y-109744000D02*
X132752000Y-108228000D01*
X132792000Y-106148000D02*
X132792000Y-104627000D01*
X132792000Y-109749000D02*
X132792000Y-108228000D01*
X132832000Y-106148000D02*
X132832000Y-104623000D01*
X132832000Y-109753000D02*
X132832000Y-108228000D01*
X132872000Y-106148000D02*
X132872000Y-104619000D01*
X132872000Y-109757000D02*
X132872000Y-108228000D01*
X132912000Y-106148000D02*
X132912000Y-104615000D01*
X132912000Y-109761000D02*
X132912000Y-108228000D01*
X132952000Y-106148000D02*
X132952000Y-104612000D01*
X132952000Y-109764000D02*
X132952000Y-108228000D01*
X132992000Y-106148000D02*
X132992000Y-104610000D01*
X132992000Y-109766000D02*
X132992000Y-108228000D01*
X133032000Y-106148000D02*
X133032000Y-104609000D01*
X133032000Y-109767000D02*
X133032000Y-108228000D01*
X133072000Y-109768000D02*
X133072000Y-108228000D01*
X133072000Y-106148000D02*
X133072000Y-104608000D01*
X133112000Y-109768000D02*
X133112000Y-108228000D01*
X133112000Y-106148000D02*
X133112000Y-104608000D01*
X135732000Y-107188000D02*
G75*
G03*
X135732000Y-107188000I-2620000J0D01*
G01*
%TO.C,D1*%
X130610000Y-97698000D02*
X133550000Y-97698000D01*
X130610000Y-97458000D02*
X133550000Y-97458000D01*
X130610000Y-97578000D02*
X133550000Y-97578000D01*
X133550000Y-93038000D02*
X133220000Y-93038000D01*
X133550000Y-98478000D02*
X133550000Y-93038000D01*
X133220000Y-98478000D02*
X133550000Y-98478000D01*
X130610000Y-93038000D02*
X130940000Y-93038000D01*
X130610000Y-98478000D02*
X130610000Y-93038000D01*
X130940000Y-98478000D02*
X130610000Y-98478000D01*
%TO.C,D2*%
X167190000Y-98425462D02*
G75*
G02*
X172740000Y-96880170I2990000J462D01*
G01*
X167190000Y-98424538D02*
G75*
G03*
X172740000Y-99969830I2990000J-462D01*
G01*
X172680000Y-98425000D02*
G75*
G03*
X172680000Y-98425000I-2500000J0D01*
G01*
X172740000Y-99970000D02*
X172740000Y-96880000D01*
%TO.C,D3*%
X153650000Y-105135000D02*
X153650000Y-108225000D01*
X158710000Y-106680000D02*
G75*
G03*
X158710000Y-106680000I-2500000J0D01*
G01*
X159200000Y-106680462D02*
G75*
G03*
X153650000Y-105135170I-2990000J462D01*
G01*
X159200000Y-106679538D02*
G75*
G02*
X153650000Y-108224830I-2990000J-462D01*
G01*
%TO.C,J1*%
X129236000Y-98370000D02*
X129236000Y-87520000D01*
X124136000Y-98370000D02*
X129236000Y-98370000D01*
X124436000Y-97870000D02*
X124136000Y-98370000D01*
X119036000Y-97870000D02*
X124436000Y-97870000D01*
X119286000Y-98370000D02*
X119036000Y-97870000D01*
X119236000Y-98370000D02*
X119286000Y-98370000D01*
X117336000Y-98370000D02*
X119236000Y-98370000D01*
X117586000Y-97870000D02*
X117336000Y-98370000D01*
X116636000Y-97870000D02*
X117586000Y-97870000D01*
X116636000Y-87520000D02*
X116636000Y-97870000D01*
X129236000Y-87520000D02*
X116636000Y-87520000D01*
%TO.C,R1*%
X137160000Y-92480000D02*
X137160000Y-93250000D01*
X137160000Y-100560000D02*
X137160000Y-99790000D01*
X135790000Y-93250000D02*
X135790000Y-99790000D01*
X138530000Y-93250000D02*
X135790000Y-93250000D01*
X138530000Y-99790000D02*
X138530000Y-93250000D01*
X135790000Y-99790000D02*
X138530000Y-99790000D01*
%TO.C,SW1*%
X148190000Y-89710000D02*
X148190000Y-91210000D01*
X149440000Y-93710000D02*
X153940000Y-93710000D01*
X155190000Y-91210000D02*
X155190000Y-89710000D01*
X153940000Y-87210000D02*
X149440000Y-87210000D01*
%TO.C,SW2*%
X148190000Y-114530000D02*
X148190000Y-116030000D01*
X149440000Y-118530000D02*
X153940000Y-118530000D01*
X155190000Y-116030000D02*
X155190000Y-114530000D01*
X153940000Y-112030000D02*
X149440000Y-112030000D01*
%TO.C,SW3*%
X176800000Y-87210000D02*
X172300000Y-87210000D01*
X178050000Y-91210000D02*
X178050000Y-89710000D01*
X172300000Y-93710000D02*
X176800000Y-93710000D01*
X171050000Y-89710000D02*
X171050000Y-91210000D01*
%TO.C,SW4*%
X176800000Y-112030000D02*
X172300000Y-112030000D01*
X178050000Y-116030000D02*
X178050000Y-114530000D01*
X172300000Y-118530000D02*
X176800000Y-118530000D01*
X171050000Y-114530000D02*
X171050000Y-116030000D01*
%TO.C,U1*%
X128238000Y-115643000D02*
X126728000Y-115643000D01*
X128238000Y-111942000D02*
X126728000Y-111942000D01*
X126728000Y-108672000D02*
X126728000Y-118912000D01*
X128238000Y-118912000D02*
X123597000Y-118912000D01*
X128238000Y-108672000D02*
X123597000Y-108672000D01*
X123597000Y-108672000D02*
X123597000Y-118912000D01*
X128238000Y-108672000D02*
X128238000Y-118912000D01*
%TO.C,J2*%
X160595000Y-102870000D02*
X160595000Y-101540000D01*
X160595000Y-101540000D02*
X161925000Y-101540000D01*
X163195000Y-101540000D02*
X165795000Y-101540000D01*
X165795000Y-104200000D02*
X165795000Y-101540000D01*
X163195000Y-104200000D02*
X165795000Y-104200000D01*
X163195000Y-104200000D02*
X163195000Y-101540000D01*
%TO.C,R2*%
X155480000Y-97385000D02*
X155480000Y-97055000D01*
X155480000Y-97055000D02*
X162020000Y-97055000D01*
X162020000Y-97055000D02*
X162020000Y-97385000D01*
X155480000Y-99465000D02*
X155480000Y-99795000D01*
X155480000Y-99795000D02*
X162020000Y-99795000D01*
X162020000Y-99795000D02*
X162020000Y-99465000D01*
%TO.C,R3*%
X164370000Y-105310000D02*
X164370000Y-105640000D01*
X170910000Y-105310000D02*
X164370000Y-105310000D01*
X170910000Y-105640000D02*
X170910000Y-105310000D01*
X164370000Y-108050000D02*
X164370000Y-107720000D01*
X170910000Y-108050000D02*
X164370000Y-108050000D01*
X170910000Y-107720000D02*
X170910000Y-108050000D01*
%TO.C,C1*%
D13*
X126833333Y-100052142D02*
X126785714Y-100099761D01*
X126642857Y-100147380D01*
X126547619Y-100147380D01*
X126404761Y-100099761D01*
X126309523Y-100004523D01*
X126261904Y-99909285D01*
X126214285Y-99718809D01*
X126214285Y-99575952D01*
X126261904Y-99385476D01*
X126309523Y-99290238D01*
X126404761Y-99195000D01*
X126547619Y-99147380D01*
X126642857Y-99147380D01*
X126785714Y-99195000D01*
X126833333Y-99242619D01*
X127785714Y-100147380D02*
X127214285Y-100147380D01*
X127500000Y-100147380D02*
X127500000Y-99147380D01*
X127404761Y-99290238D01*
X127309523Y-99385476D01*
X127214285Y-99433095D01*
%TO.C,C2*%
X128103333Y-104497142D02*
X128055714Y-104544761D01*
X127912857Y-104592380D01*
X127817619Y-104592380D01*
X127674761Y-104544761D01*
X127579523Y-104449523D01*
X127531904Y-104354285D01*
X127484285Y-104163809D01*
X127484285Y-104020952D01*
X127531904Y-103830476D01*
X127579523Y-103735238D01*
X127674761Y-103640000D01*
X127817619Y-103592380D01*
X127912857Y-103592380D01*
X128055714Y-103640000D01*
X128103333Y-103687619D01*
X128484285Y-103687619D02*
X128531904Y-103640000D01*
X128627142Y-103592380D01*
X128865238Y-103592380D01*
X128960476Y-103640000D01*
X129008095Y-103687619D01*
X129055714Y-103782857D01*
X129055714Y-103878095D01*
X129008095Y-104020952D01*
X128436666Y-104592380D01*
X129055714Y-104592380D01*
%TO.C,C3*%
X133818333Y-114657142D02*
X133770714Y-114704761D01*
X133627857Y-114752380D01*
X133532619Y-114752380D01*
X133389761Y-114704761D01*
X133294523Y-114609523D01*
X133246904Y-114514285D01*
X133199285Y-114323809D01*
X133199285Y-114180952D01*
X133246904Y-113990476D01*
X133294523Y-113895238D01*
X133389761Y-113800000D01*
X133532619Y-113752380D01*
X133627857Y-113752380D01*
X133770714Y-113800000D01*
X133818333Y-113847619D01*
X134151666Y-113752380D02*
X134770714Y-113752380D01*
X134437380Y-114133333D01*
X134580238Y-114133333D01*
X134675476Y-114180952D01*
X134723095Y-114228571D01*
X134770714Y-114323809D01*
X134770714Y-114561904D01*
X134723095Y-114657142D01*
X134675476Y-114704761D01*
X134580238Y-114752380D01*
X134294523Y-114752380D01*
X134199285Y-114704761D01*
X134151666Y-114657142D01*
%TO.C,C4*%
X135215333Y-104370142D02*
X135167714Y-104417761D01*
X135024857Y-104465380D01*
X134929619Y-104465380D01*
X134786761Y-104417761D01*
X134691523Y-104322523D01*
X134643904Y-104227285D01*
X134596285Y-104036809D01*
X134596285Y-103893952D01*
X134643904Y-103703476D01*
X134691523Y-103608238D01*
X134786761Y-103513000D01*
X134929619Y-103465380D01*
X135024857Y-103465380D01*
X135167714Y-103513000D01*
X135215333Y-103560619D01*
X136072476Y-103798714D02*
X136072476Y-104465380D01*
X135834380Y-103417761D02*
X135596285Y-104132047D01*
X136215333Y-104132047D01*
%TO.C,D1*%
X131341904Y-89987380D02*
X131341904Y-88987380D01*
X131580000Y-88987380D01*
X131722857Y-89035000D01*
X131818095Y-89130238D01*
X131865714Y-89225476D01*
X131913333Y-89415952D01*
X131913333Y-89558809D01*
X131865714Y-89749285D01*
X131818095Y-89844523D01*
X131722857Y-89939761D01*
X131580000Y-89987380D01*
X131341904Y-89987380D01*
X132865714Y-89987380D02*
X132294285Y-89987380D01*
X132580000Y-89987380D02*
X132580000Y-88987380D01*
X132484761Y-89130238D01*
X132389523Y-89225476D01*
X132294285Y-89273095D01*
X133977095Y-98750380D02*
X133977095Y-97750380D01*
X134548523Y-98750380D02*
X134119952Y-98178952D01*
X134548523Y-97750380D02*
X133977095Y-98321809D01*
%TO.C,D2*%
X169441904Y-95067380D02*
X169441904Y-94067380D01*
X169680000Y-94067380D01*
X169822857Y-94115000D01*
X169918095Y-94210238D01*
X169965714Y-94305476D01*
X170013333Y-94495952D01*
X170013333Y-94638809D01*
X169965714Y-94829285D01*
X169918095Y-94924523D01*
X169822857Y-95019761D01*
X169680000Y-95067380D01*
X169441904Y-95067380D01*
X170394285Y-94162619D02*
X170441904Y-94115000D01*
X170537142Y-94067380D01*
X170775238Y-94067380D01*
X170870476Y-94115000D01*
X170918095Y-94162619D01*
X170965714Y-94257857D01*
X170965714Y-94353095D01*
X170918095Y-94495952D01*
X170346666Y-95067380D01*
X170965714Y-95067380D01*
%TO.C,D3*%
X155471904Y-103322380D02*
X155471904Y-102322380D01*
X155710000Y-102322380D01*
X155852857Y-102370000D01*
X155948095Y-102465238D01*
X155995714Y-102560476D01*
X156043333Y-102750952D01*
X156043333Y-102893809D01*
X155995714Y-103084285D01*
X155948095Y-103179523D01*
X155852857Y-103274761D01*
X155710000Y-103322380D01*
X155471904Y-103322380D01*
X156376666Y-102322380D02*
X156995714Y-102322380D01*
X156662380Y-102703333D01*
X156805238Y-102703333D01*
X156900476Y-102750952D01*
X156948095Y-102798571D01*
X156995714Y-102893809D01*
X156995714Y-103131904D01*
X156948095Y-103227142D01*
X156900476Y-103274761D01*
X156805238Y-103322380D01*
X156519523Y-103322380D01*
X156424285Y-103274761D01*
X156376666Y-103227142D01*
%TO.C,J1*%
X127936666Y-85812380D02*
X127936666Y-86526666D01*
X127889047Y-86669523D01*
X127793809Y-86764761D01*
X127650952Y-86812380D01*
X127555714Y-86812380D01*
X128936666Y-86812380D02*
X128365238Y-86812380D01*
X128650952Y-86812380D02*
X128650952Y-85812380D01*
X128555714Y-85955238D01*
X128460476Y-86050476D01*
X128365238Y-86098095D01*
%TO.C,R1*%
X136993333Y-89987380D02*
X136660000Y-89511190D01*
X136421904Y-89987380D02*
X136421904Y-88987380D01*
X136802857Y-88987380D01*
X136898095Y-89035000D01*
X136945714Y-89082619D01*
X136993333Y-89177857D01*
X136993333Y-89320714D01*
X136945714Y-89415952D01*
X136898095Y-89463571D01*
X136802857Y-89511190D01*
X136421904Y-89511190D01*
X137945714Y-89987380D02*
X137374285Y-89987380D01*
X137660000Y-89987380D02*
X137660000Y-88987380D01*
X137564761Y-89130238D01*
X137469523Y-89225476D01*
X137374285Y-89273095D01*
%TO.C,SW1*%
X150356666Y-86129761D02*
X150499523Y-86177380D01*
X150737619Y-86177380D01*
X150832857Y-86129761D01*
X150880476Y-86082142D01*
X150928095Y-85986904D01*
X150928095Y-85891666D01*
X150880476Y-85796428D01*
X150832857Y-85748809D01*
X150737619Y-85701190D01*
X150547142Y-85653571D01*
X150451904Y-85605952D01*
X150404285Y-85558333D01*
X150356666Y-85463095D01*
X150356666Y-85367857D01*
X150404285Y-85272619D01*
X150451904Y-85225000D01*
X150547142Y-85177380D01*
X150785238Y-85177380D01*
X150928095Y-85225000D01*
X151261428Y-85177380D02*
X151499523Y-86177380D01*
X151690000Y-85463095D01*
X151880476Y-86177380D01*
X152118571Y-85177380D01*
X153023333Y-86177380D02*
X152451904Y-86177380D01*
X152737619Y-86177380D02*
X152737619Y-85177380D01*
X152642380Y-85320238D01*
X152547142Y-85415476D01*
X152451904Y-85463095D01*
%TO.C,SW2*%
X150356666Y-110894761D02*
X150499523Y-110942380D01*
X150737619Y-110942380D01*
X150832857Y-110894761D01*
X150880476Y-110847142D01*
X150928095Y-110751904D01*
X150928095Y-110656666D01*
X150880476Y-110561428D01*
X150832857Y-110513809D01*
X150737619Y-110466190D01*
X150547142Y-110418571D01*
X150451904Y-110370952D01*
X150404285Y-110323333D01*
X150356666Y-110228095D01*
X150356666Y-110132857D01*
X150404285Y-110037619D01*
X150451904Y-109990000D01*
X150547142Y-109942380D01*
X150785238Y-109942380D01*
X150928095Y-109990000D01*
X151261428Y-109942380D02*
X151499523Y-110942380D01*
X151690000Y-110228095D01*
X151880476Y-110942380D01*
X152118571Y-109942380D01*
X152451904Y-110037619D02*
X152499523Y-109990000D01*
X152594761Y-109942380D01*
X152832857Y-109942380D01*
X152928095Y-109990000D01*
X152975714Y-110037619D01*
X153023333Y-110132857D01*
X153023333Y-110228095D01*
X152975714Y-110370952D01*
X152404285Y-110942380D01*
X153023333Y-110942380D01*
%TO.C,SW3*%
X173216666Y-86129761D02*
X173359523Y-86177380D01*
X173597619Y-86177380D01*
X173692857Y-86129761D01*
X173740476Y-86082142D01*
X173788095Y-85986904D01*
X173788095Y-85891666D01*
X173740476Y-85796428D01*
X173692857Y-85748809D01*
X173597619Y-85701190D01*
X173407142Y-85653571D01*
X173311904Y-85605952D01*
X173264285Y-85558333D01*
X173216666Y-85463095D01*
X173216666Y-85367857D01*
X173264285Y-85272619D01*
X173311904Y-85225000D01*
X173407142Y-85177380D01*
X173645238Y-85177380D01*
X173788095Y-85225000D01*
X174121428Y-85177380D02*
X174359523Y-86177380D01*
X174550000Y-85463095D01*
X174740476Y-86177380D01*
X174978571Y-85177380D01*
X175264285Y-85177380D02*
X175883333Y-85177380D01*
X175550000Y-85558333D01*
X175692857Y-85558333D01*
X175788095Y-85605952D01*
X175835714Y-85653571D01*
X175883333Y-85748809D01*
X175883333Y-85986904D01*
X175835714Y-86082142D01*
X175788095Y-86129761D01*
X175692857Y-86177380D01*
X175407142Y-86177380D01*
X175311904Y-86129761D01*
X175264285Y-86082142D01*
%TO.C,SW4*%
X173216666Y-110894761D02*
X173359523Y-110942380D01*
X173597619Y-110942380D01*
X173692857Y-110894761D01*
X173740476Y-110847142D01*
X173788095Y-110751904D01*
X173788095Y-110656666D01*
X173740476Y-110561428D01*
X173692857Y-110513809D01*
X173597619Y-110466190D01*
X173407142Y-110418571D01*
X173311904Y-110370952D01*
X173264285Y-110323333D01*
X173216666Y-110228095D01*
X173216666Y-110132857D01*
X173264285Y-110037619D01*
X173311904Y-109990000D01*
X173407142Y-109942380D01*
X173645238Y-109942380D01*
X173788095Y-109990000D01*
X174121428Y-109942380D02*
X174359523Y-110942380D01*
X174550000Y-110228095D01*
X174740476Y-110942380D01*
X174978571Y-109942380D01*
X175788095Y-110275714D02*
X175788095Y-110942380D01*
X175550000Y-109894761D02*
X175311904Y-110609047D01*
X175930952Y-110609047D01*
%TO.C,U1*%
X128778095Y-109180380D02*
X128778095Y-109989904D01*
X128825714Y-110085142D01*
X128873333Y-110132761D01*
X128968571Y-110180380D01*
X129159047Y-110180380D01*
X129254285Y-110132761D01*
X129301904Y-110085142D01*
X129349523Y-109989904D01*
X129349523Y-109180380D01*
X130349523Y-110180380D02*
X129778095Y-110180380D01*
X130063809Y-110180380D02*
X130063809Y-109180380D01*
X129968571Y-109323238D01*
X129873333Y-109418476D01*
X129778095Y-109466095D01*
%TO.C,J2*%
X159051666Y-101052380D02*
X159051666Y-101766666D01*
X159004047Y-101909523D01*
X158908809Y-102004761D01*
X158765952Y-102052380D01*
X158670714Y-102052380D01*
X159480238Y-101147619D02*
X159527857Y-101100000D01*
X159623095Y-101052380D01*
X159861190Y-101052380D01*
X159956428Y-101100000D01*
X160004047Y-101147619D01*
X160051666Y-101242857D01*
X160051666Y-101338095D01*
X160004047Y-101480952D01*
X159432619Y-102052380D01*
X160051666Y-102052380D01*
%TO.C,R2*%
X158583333Y-96507380D02*
X158250000Y-96031190D01*
X158011904Y-96507380D02*
X158011904Y-95507380D01*
X158392857Y-95507380D01*
X158488095Y-95555000D01*
X158535714Y-95602619D01*
X158583333Y-95697857D01*
X158583333Y-95840714D01*
X158535714Y-95935952D01*
X158488095Y-95983571D01*
X158392857Y-96031190D01*
X158011904Y-96031190D01*
X158964285Y-95602619D02*
X159011904Y-95555000D01*
X159107142Y-95507380D01*
X159345238Y-95507380D01*
X159440476Y-95555000D01*
X159488095Y-95602619D01*
X159535714Y-95697857D01*
X159535714Y-95793095D01*
X159488095Y-95935952D01*
X158916666Y-96507380D01*
X159535714Y-96507380D01*
%TO.C,R3*%
X167473333Y-104592380D02*
X167140000Y-104116190D01*
X166901904Y-104592380D02*
X166901904Y-103592380D01*
X167282857Y-103592380D01*
X167378095Y-103640000D01*
X167425714Y-103687619D01*
X167473333Y-103782857D01*
X167473333Y-103925714D01*
X167425714Y-104020952D01*
X167378095Y-104068571D01*
X167282857Y-104116190D01*
X166901904Y-104116190D01*
X167806666Y-103592380D02*
X168425714Y-103592380D01*
X168092380Y-103973333D01*
X168235238Y-103973333D01*
X168330476Y-104020952D01*
X168378095Y-104068571D01*
X168425714Y-104163809D01*
X168425714Y-104401904D01*
X168378095Y-104497142D01*
X168330476Y-104544761D01*
X168235238Y-104592380D01*
X167949523Y-104592380D01*
X167854285Y-104544761D01*
X167806666Y-104497142D01*
%TD*%
M02*
