M48
; DRILL file {KiCad (5.1.12)-1} date 07/23/22 16:16:38
; FORMAT={-:-/ absolute / inch / decimal}
; #@! TF.CreationDate,2022-07-23T16:16:38+09:00
; #@! TF.GenerationSoftware,Kicad,Pcbnew,(5.1.12)-1
; #@! TF.FileFunction,Plated,1,2,PTH
FMAT,2
INCH
T1C0.0315
T2C0.0354
T3C0.0394
T4C0.0433
T5C0.0520
%
G90
G05
T1
X4.67Y-4.46
X4.7487Y-4.46
X4.89Y-4.3331
X4.89Y-4.53
X5.22Y-4.26
X5.22Y-4.4569
X5.38Y-3.47
X5.38Y-3.87
X5.38Y-4.14
X5.38Y-4.2187
X6.1Y-3.875
X6.4Y-3.875
X6.45Y-4.2
X6.75Y-4.2
T2
X4.66Y-3.96
X4.66Y-4.26
X6.1Y-4.2
X6.2Y-4.2
X6.65Y-3.875
X6.75Y-3.875
T3
X6.375Y-4.05
X6.475Y-4.05
T4
X5.09Y-4.26
X5.09Y-4.36
X5.09Y-4.46
X5.8341Y-3.4628
X5.8341Y-3.64
X5.8341Y-4.4528
X5.8341Y-4.63
X6.09Y-3.4628
X6.09Y-3.64
X6.09Y-4.4528
X6.09Y-4.63
X6.7441Y-3.4628
X6.7441Y-3.64
X6.7441Y-4.4528
X6.7441Y-4.63
X7.0Y-3.4628
X7.0Y-3.64
X7.0Y-4.4528
X7.0Y-4.63
T5
X4.75Y-3.55
X4.75Y-3.7469
T0
M30
