%TF.GenerationSoftware,KiCad,Pcbnew,(5.1.12)-1*%
%TF.CreationDate,2022-07-23T17:19:18+09:00*%
%TF.ProjectId,FullBridge_demo_kit,46756c6c-4272-4696-9467-655f64656d6f,rev?*%
%TF.SameCoordinates,Original*%
%TF.FileFunction,Legend,Top*%
%TF.FilePolarity,Positive*%
%FSLAX46Y46*%
G04 Gerber Fmt 4.6, Leading zero omitted, Abs format (unit mm)*
G04 Created by KiCad (PCBNEW (5.1.12)-1) date 2022-07-23 17:19:18*
%MOMM*%
%LPD*%
G01*
G04 APERTURE LIST*
%ADD10C,0.300000*%
%ADD11C,0.100000*%
%ADD12C,0.120000*%
%ADD13C,0.150000*%
G04 APERTURE END LIST*
D10*
X127540000Y-90848571D02*
X127540000Y-89348571D01*
X128111428Y-89348571D01*
X128254285Y-89420000D01*
X128325714Y-89491428D01*
X128397142Y-89634285D01*
X128397142Y-89848571D01*
X128325714Y-89991428D01*
X128254285Y-90062857D01*
X128111428Y-90134285D01*
X127540000Y-90134285D01*
X128897142Y-89348571D02*
X129254285Y-90848571D01*
X129540000Y-89777142D01*
X129825714Y-90848571D01*
X130182857Y-89348571D01*
X131611428Y-90848571D02*
X131111428Y-90134285D01*
X130754285Y-90848571D02*
X130754285Y-89348571D01*
X131325714Y-89348571D01*
X131468571Y-89420000D01*
X131540000Y-89491428D01*
X131611428Y-89634285D01*
X131611428Y-89848571D01*
X131540000Y-89991428D01*
X131468571Y-90062857D01*
X131325714Y-90134285D01*
X130754285Y-90134285D01*
X128397142Y-94500000D02*
X128254285Y-94428571D01*
X128040000Y-94428571D01*
X127825714Y-94500000D01*
X127682857Y-94642857D01*
X127611428Y-94785714D01*
X127540000Y-95071428D01*
X127540000Y-95285714D01*
X127611428Y-95571428D01*
X127682857Y-95714285D01*
X127825714Y-95857142D01*
X128040000Y-95928571D01*
X128182857Y-95928571D01*
X128397142Y-95857142D01*
X128468571Y-95785714D01*
X128468571Y-95285714D01*
X128182857Y-95285714D01*
X129111428Y-95928571D02*
X129111428Y-94428571D01*
X129968571Y-95928571D01*
X129968571Y-94428571D01*
X130682857Y-95928571D02*
X130682857Y-94428571D01*
X131040000Y-94428571D01*
X131254285Y-94500000D01*
X131397142Y-94642857D01*
X131468571Y-94785714D01*
X131540000Y-95071428D01*
X131540000Y-95285714D01*
X131468571Y-95571428D01*
X131397142Y-95714285D01*
X131254285Y-95857142D01*
X131040000Y-95928571D01*
X130682857Y-95928571D01*
X152120000Y-123233571D02*
X152120000Y-121733571D01*
X152691428Y-121733571D01*
X152834285Y-121805000D01*
X152905714Y-121876428D01*
X152977142Y-122019285D01*
X152977142Y-122233571D01*
X152905714Y-122376428D01*
X152834285Y-122447857D01*
X152691428Y-122519285D01*
X152120000Y-122519285D01*
X153620000Y-123233571D02*
X153620000Y-122233571D01*
X153620000Y-122519285D02*
X153691428Y-122376428D01*
X153762857Y-122305000D01*
X153905714Y-122233571D01*
X154048571Y-122233571D01*
X154762857Y-123233571D02*
X154620000Y-123162142D01*
X154548571Y-123090714D01*
X154477142Y-122947857D01*
X154477142Y-122519285D01*
X154548571Y-122376428D01*
X154620000Y-122305000D01*
X154762857Y-122233571D01*
X154977142Y-122233571D01*
X155120000Y-122305000D01*
X155191428Y-122376428D01*
X155262857Y-122519285D01*
X155262857Y-122947857D01*
X155191428Y-123090714D01*
X155120000Y-123162142D01*
X154977142Y-123233571D01*
X154762857Y-123233571D01*
X156548571Y-123233571D02*
X156548571Y-121733571D01*
X156548571Y-123162142D02*
X156405714Y-123233571D01*
X156120000Y-123233571D01*
X155977142Y-123162142D01*
X155905714Y-123090714D01*
X155834285Y-122947857D01*
X155834285Y-122519285D01*
X155905714Y-122376428D01*
X155977142Y-122305000D01*
X156120000Y-122233571D01*
X156405714Y-122233571D01*
X156548571Y-122305000D01*
X157905714Y-122233571D02*
X157905714Y-123233571D01*
X157262857Y-122233571D02*
X157262857Y-123019285D01*
X157334285Y-123162142D01*
X157477142Y-123233571D01*
X157691428Y-123233571D01*
X157834285Y-123162142D01*
X157905714Y-123090714D01*
X159262857Y-123162142D02*
X159120000Y-123233571D01*
X158834285Y-123233571D01*
X158691428Y-123162142D01*
X158620000Y-123090714D01*
X158548571Y-122947857D01*
X158548571Y-122519285D01*
X158620000Y-122376428D01*
X158691428Y-122305000D01*
X158834285Y-122233571D01*
X159120000Y-122233571D01*
X159262857Y-122305000D01*
X159691428Y-122233571D02*
X160262857Y-122233571D01*
X159905714Y-121733571D02*
X159905714Y-123019285D01*
X159977142Y-123162142D01*
X160120000Y-123233571D01*
X160262857Y-123233571D01*
X161905714Y-123233571D02*
X161905714Y-121733571D01*
X161905714Y-122305000D02*
X162048571Y-122233571D01*
X162334285Y-122233571D01*
X162477142Y-122305000D01*
X162548571Y-122376428D01*
X162620000Y-122519285D01*
X162620000Y-122947857D01*
X162548571Y-123090714D01*
X162477142Y-123162142D01*
X162334285Y-123233571D01*
X162048571Y-123233571D01*
X161905714Y-123162142D01*
X163120000Y-122233571D02*
X163477142Y-123233571D01*
X163834285Y-122233571D02*
X163477142Y-123233571D01*
X163334285Y-123590714D01*
X163262857Y-123662142D01*
X163120000Y-123733571D01*
X166477142Y-122519285D02*
X166405714Y-122447857D01*
X166262857Y-122376428D01*
X166120000Y-122376428D01*
X165977142Y-122447857D01*
X165905714Y-122519285D01*
X165834285Y-122662142D01*
X165834285Y-122805000D01*
X165905714Y-122947857D01*
X165977142Y-123019285D01*
X166120000Y-123090714D01*
X166262857Y-123090714D01*
X166405714Y-123019285D01*
X166477142Y-122947857D01*
X166477142Y-122376428D02*
X166477142Y-122947857D01*
X166548571Y-123019285D01*
X166620000Y-123019285D01*
X166762857Y-122947857D01*
X166834285Y-122805000D01*
X166834285Y-122447857D01*
X166691428Y-122233571D01*
X166477142Y-122090714D01*
X166191428Y-122019285D01*
X165905714Y-122090714D01*
X165691428Y-122233571D01*
X165548571Y-122447857D01*
X165477142Y-122733571D01*
X165548571Y-123019285D01*
X165691428Y-123233571D01*
X165905714Y-123376428D01*
X166191428Y-123447857D01*
X166477142Y-123376428D01*
X166691428Y-123233571D01*
X167477142Y-123233571D02*
X167477142Y-121733571D01*
X168334285Y-123233571D01*
X168334285Y-121733571D01*
X169691428Y-123162142D02*
X169548571Y-123233571D01*
X169262857Y-123233571D01*
X169120000Y-123162142D01*
X169048571Y-123090714D01*
X168977142Y-122947857D01*
X168977142Y-122519285D01*
X169048571Y-122376428D01*
X169120000Y-122305000D01*
X169262857Y-122233571D01*
X169548571Y-122233571D01*
X169691428Y-122305000D01*
X170334285Y-123233571D02*
X170334285Y-121733571D01*
X170977142Y-123233571D02*
X170977142Y-122447857D01*
X170905714Y-122305000D01*
X170762857Y-122233571D01*
X170548571Y-122233571D01*
X170405714Y-122305000D01*
X170334285Y-122376428D01*
X171334285Y-123376428D02*
X172477142Y-123376428D01*
X172834285Y-123233571D02*
X172834285Y-121733571D01*
X173334285Y-122805000D01*
X173834285Y-121733571D01*
X173834285Y-123233571D01*
X174834285Y-121733571D02*
X175120000Y-121733571D01*
X175262857Y-121805000D01*
X175405714Y-121947857D01*
X175477142Y-122233571D01*
X175477142Y-122733571D01*
X175405714Y-123019285D01*
X175262857Y-123162142D01*
X175120000Y-123233571D01*
X174834285Y-123233571D01*
X174691428Y-123162142D01*
X174548571Y-123019285D01*
X174477142Y-122733571D01*
X174477142Y-122233571D01*
X174548571Y-121947857D01*
X174691428Y-121805000D01*
X174834285Y-121733571D01*
X176048571Y-123162142D02*
X176262857Y-123233571D01*
X176620000Y-123233571D01*
X176762857Y-123162142D01*
X176834285Y-123090714D01*
X176905714Y-122947857D01*
X176905714Y-122805000D01*
X176834285Y-122662142D01*
X176762857Y-122590714D01*
X176620000Y-122519285D01*
X176334285Y-122447857D01*
X176191428Y-122376428D01*
X176120000Y-122305000D01*
X176048571Y-122162142D01*
X176048571Y-122019285D01*
X176120000Y-121876428D01*
X176191428Y-121805000D01*
X176334285Y-121733571D01*
X176691428Y-121733571D01*
X176905714Y-121805000D01*
X178048571Y-122447857D02*
X177548571Y-122447857D01*
X177548571Y-123233571D02*
X177548571Y-121733571D01*
X178262857Y-121733571D01*
X178834285Y-122447857D02*
X179334285Y-122447857D01*
X179548571Y-123233571D02*
X178834285Y-123233571D01*
X178834285Y-121733571D01*
X179548571Y-121733571D01*
X179977142Y-121733571D02*
X180834285Y-121733571D01*
X180405714Y-123233571D02*
X180405714Y-121733571D01*
X155357142Y-81172857D02*
X154857142Y-81172857D01*
X154857142Y-81958571D02*
X154857142Y-80458571D01*
X155571428Y-80458571D01*
X156785714Y-80958571D02*
X156785714Y-81958571D01*
X156142857Y-80958571D02*
X156142857Y-81744285D01*
X156214285Y-81887142D01*
X156357142Y-81958571D01*
X156571428Y-81958571D01*
X156714285Y-81887142D01*
X156785714Y-81815714D01*
X157714285Y-81958571D02*
X157571428Y-81887142D01*
X157500000Y-81744285D01*
X157500000Y-80458571D01*
X158500000Y-81958571D02*
X158357142Y-81887142D01*
X158285714Y-81744285D01*
X158285714Y-80458571D01*
X160714285Y-81172857D02*
X160928571Y-81244285D01*
X161000000Y-81315714D01*
X161071428Y-81458571D01*
X161071428Y-81672857D01*
X161000000Y-81815714D01*
X160928571Y-81887142D01*
X160785714Y-81958571D01*
X160214285Y-81958571D01*
X160214285Y-80458571D01*
X160714285Y-80458571D01*
X160857142Y-80530000D01*
X160928571Y-80601428D01*
X161000000Y-80744285D01*
X161000000Y-80887142D01*
X160928571Y-81030000D01*
X160857142Y-81101428D01*
X160714285Y-81172857D01*
X160214285Y-81172857D01*
X161714285Y-81958571D02*
X161714285Y-80958571D01*
X161714285Y-81244285D02*
X161785714Y-81101428D01*
X161857142Y-81030000D01*
X162000000Y-80958571D01*
X162142857Y-80958571D01*
X162642857Y-81958571D02*
X162642857Y-80958571D01*
X162642857Y-80458571D02*
X162571428Y-80530000D01*
X162642857Y-80601428D01*
X162714285Y-80530000D01*
X162642857Y-80458571D01*
X162642857Y-80601428D01*
X164000000Y-81958571D02*
X164000000Y-80458571D01*
X164000000Y-81887142D02*
X163857142Y-81958571D01*
X163571428Y-81958571D01*
X163428571Y-81887142D01*
X163357142Y-81815714D01*
X163285714Y-81672857D01*
X163285714Y-81244285D01*
X163357142Y-81101428D01*
X163428571Y-81030000D01*
X163571428Y-80958571D01*
X163857142Y-80958571D01*
X164000000Y-81030000D01*
X165357142Y-80958571D02*
X165357142Y-82172857D01*
X165285714Y-82315714D01*
X165214285Y-82387142D01*
X165071428Y-82458571D01*
X164857142Y-82458571D01*
X164714285Y-82387142D01*
X165357142Y-81887142D02*
X165214285Y-81958571D01*
X164928571Y-81958571D01*
X164785714Y-81887142D01*
X164714285Y-81815714D01*
X164642857Y-81672857D01*
X164642857Y-81244285D01*
X164714285Y-81101428D01*
X164785714Y-81030000D01*
X164928571Y-80958571D01*
X165214285Y-80958571D01*
X165357142Y-81030000D01*
X166642857Y-81887142D02*
X166500000Y-81958571D01*
X166214285Y-81958571D01*
X166071428Y-81887142D01*
X166000000Y-81744285D01*
X166000000Y-81172857D01*
X166071428Y-81030000D01*
X166214285Y-80958571D01*
X166500000Y-80958571D01*
X166642857Y-81030000D01*
X166714285Y-81172857D01*
X166714285Y-81315714D01*
X166000000Y-81458571D01*
X168500000Y-81958571D02*
X168500000Y-80458571D01*
X168857142Y-80458571D01*
X169071428Y-80530000D01*
X169214285Y-80672857D01*
X169285714Y-80815714D01*
X169357142Y-81101428D01*
X169357142Y-81315714D01*
X169285714Y-81601428D01*
X169214285Y-81744285D01*
X169071428Y-81887142D01*
X168857142Y-81958571D01*
X168500000Y-81958571D01*
X170571428Y-81887142D02*
X170428571Y-81958571D01*
X170142857Y-81958571D01*
X170000000Y-81887142D01*
X169928571Y-81744285D01*
X169928571Y-81172857D01*
X170000000Y-81030000D01*
X170142857Y-80958571D01*
X170428571Y-80958571D01*
X170571428Y-81030000D01*
X170642857Y-81172857D01*
X170642857Y-81315714D01*
X169928571Y-81458571D01*
X171285714Y-81958571D02*
X171285714Y-80958571D01*
X171285714Y-81101428D02*
X171357142Y-81030000D01*
X171500000Y-80958571D01*
X171714285Y-80958571D01*
X171857142Y-81030000D01*
X171928571Y-81172857D01*
X171928571Y-81958571D01*
X171928571Y-81172857D02*
X172000000Y-81030000D01*
X172142857Y-80958571D01*
X172357142Y-80958571D01*
X172500000Y-81030000D01*
X172571428Y-81172857D01*
X172571428Y-81958571D01*
X173500000Y-81958571D02*
X173357142Y-81887142D01*
X173285714Y-81815714D01*
X173214285Y-81672857D01*
X173214285Y-81244285D01*
X173285714Y-81101428D01*
X173357142Y-81030000D01*
X173500000Y-80958571D01*
X173714285Y-80958571D01*
X173857142Y-81030000D01*
X173928571Y-81101428D01*
X174000000Y-81244285D01*
X174000000Y-81672857D01*
X173928571Y-81815714D01*
X173857142Y-81887142D01*
X173714285Y-81958571D01*
X173500000Y-81958571D01*
X175785714Y-81958571D02*
X175785714Y-80458571D01*
X176642857Y-81958571D02*
X176000000Y-81101428D01*
X176642857Y-80458571D02*
X175785714Y-81315714D01*
X177285714Y-81958571D02*
X177285714Y-80958571D01*
X177285714Y-80458571D02*
X177214285Y-80530000D01*
X177285714Y-80601428D01*
X177357142Y-80530000D01*
X177285714Y-80458571D01*
X177285714Y-80601428D01*
X177785714Y-80958571D02*
X178357142Y-80958571D01*
X178000000Y-80458571D02*
X178000000Y-81744285D01*
X178071428Y-81887142D01*
X178214285Y-81958571D01*
X178357142Y-81958571D01*
D11*
X117778095Y-84742380D02*
X117778095Y-83742380D01*
X118254285Y-84075714D02*
X118254285Y-84742380D01*
X118254285Y-84170952D02*
X118301904Y-84123333D01*
X118397142Y-84075714D01*
X118540000Y-84075714D01*
X118635238Y-84123333D01*
X118682857Y-84218571D01*
X118682857Y-84742380D01*
X119159047Y-84075714D02*
X119159047Y-85075714D01*
X119159047Y-84123333D02*
X119254285Y-84075714D01*
X119444761Y-84075714D01*
X119540000Y-84123333D01*
X119587619Y-84170952D01*
X119635238Y-84266190D01*
X119635238Y-84551904D01*
X119587619Y-84647142D01*
X119540000Y-84694761D01*
X119444761Y-84742380D01*
X119254285Y-84742380D01*
X119159047Y-84694761D01*
X120492380Y-84075714D02*
X120492380Y-84742380D01*
X120063809Y-84075714D02*
X120063809Y-84599523D01*
X120111428Y-84694761D01*
X120206666Y-84742380D01*
X120349523Y-84742380D01*
X120444761Y-84694761D01*
X120492380Y-84647142D01*
X120825714Y-84075714D02*
X121206666Y-84075714D01*
X120968571Y-83742380D02*
X120968571Y-84599523D01*
X121016190Y-84694761D01*
X121111428Y-84742380D01*
X121206666Y-84742380D01*
X122159047Y-83742380D02*
X122492380Y-84742380D01*
X122825714Y-83742380D01*
X123301904Y-84742380D02*
X123206666Y-84694761D01*
X123159047Y-84647142D01*
X123111428Y-84551904D01*
X123111428Y-84266190D01*
X123159047Y-84170952D01*
X123206666Y-84123333D01*
X123301904Y-84075714D01*
X123444761Y-84075714D01*
X123540000Y-84123333D01*
X123587619Y-84170952D01*
X123635238Y-84266190D01*
X123635238Y-84551904D01*
X123587619Y-84647142D01*
X123540000Y-84694761D01*
X123444761Y-84742380D01*
X123301904Y-84742380D01*
X124206666Y-84742380D02*
X124111428Y-84694761D01*
X124063809Y-84599523D01*
X124063809Y-83742380D01*
X124444761Y-84075714D02*
X124825714Y-84075714D01*
X124587619Y-83742380D02*
X124587619Y-84599523D01*
X124635238Y-84694761D01*
X124730476Y-84742380D01*
X124825714Y-84742380D01*
X125587619Y-84742380D02*
X125587619Y-84218571D01*
X125540000Y-84123333D01*
X125444761Y-84075714D01*
X125254285Y-84075714D01*
X125159047Y-84123333D01*
X125587619Y-84694761D02*
X125492380Y-84742380D01*
X125254285Y-84742380D01*
X125159047Y-84694761D01*
X125111428Y-84599523D01*
X125111428Y-84504285D01*
X125159047Y-84409047D01*
X125254285Y-84361428D01*
X125492380Y-84361428D01*
X125587619Y-84313809D01*
X126492380Y-84075714D02*
X126492380Y-84885238D01*
X126444761Y-84980476D01*
X126397142Y-85028095D01*
X126301904Y-85075714D01*
X126159047Y-85075714D01*
X126063809Y-85028095D01*
X126492380Y-84694761D02*
X126397142Y-84742380D01*
X126206666Y-84742380D01*
X126111428Y-84694761D01*
X126063809Y-84647142D01*
X126016190Y-84551904D01*
X126016190Y-84266190D01*
X126063809Y-84170952D01*
X126111428Y-84123333D01*
X126206666Y-84075714D01*
X126397142Y-84075714D01*
X126492380Y-84123333D01*
X127349523Y-84694761D02*
X127254285Y-84742380D01*
X127063809Y-84742380D01*
X126968571Y-84694761D01*
X126920952Y-84599523D01*
X126920952Y-84218571D01*
X126968571Y-84123333D01*
X127063809Y-84075714D01*
X127254285Y-84075714D01*
X127349523Y-84123333D01*
X127397142Y-84218571D01*
X127397142Y-84313809D01*
X126920952Y-84409047D01*
X129159047Y-84742380D02*
X128825714Y-84266190D01*
X128587619Y-84742380D02*
X128587619Y-83742380D01*
X128968571Y-83742380D01*
X129063809Y-83790000D01*
X129111428Y-83837619D01*
X129159047Y-83932857D01*
X129159047Y-84075714D01*
X129111428Y-84170952D01*
X129063809Y-84218571D01*
X128968571Y-84266190D01*
X128587619Y-84266190D01*
X130016190Y-84742380D02*
X130016190Y-84218571D01*
X129968571Y-84123333D01*
X129873333Y-84075714D01*
X129682857Y-84075714D01*
X129587619Y-84123333D01*
X130016190Y-84694761D02*
X129920952Y-84742380D01*
X129682857Y-84742380D01*
X129587619Y-84694761D01*
X129540000Y-84599523D01*
X129540000Y-84504285D01*
X129587619Y-84409047D01*
X129682857Y-84361428D01*
X129920952Y-84361428D01*
X130016190Y-84313809D01*
X130492380Y-84075714D02*
X130492380Y-84742380D01*
X130492380Y-84170952D02*
X130540000Y-84123333D01*
X130635238Y-84075714D01*
X130778095Y-84075714D01*
X130873333Y-84123333D01*
X130920952Y-84218571D01*
X130920952Y-84742380D01*
X131825714Y-84075714D02*
X131825714Y-84885238D01*
X131778095Y-84980476D01*
X131730476Y-85028095D01*
X131635238Y-85075714D01*
X131492380Y-85075714D01*
X131397142Y-85028095D01*
X131825714Y-84694761D02*
X131730476Y-84742380D01*
X131540000Y-84742380D01*
X131444761Y-84694761D01*
X131397142Y-84647142D01*
X131349523Y-84551904D01*
X131349523Y-84266190D01*
X131397142Y-84170952D01*
X131444761Y-84123333D01*
X131540000Y-84075714D01*
X131730476Y-84075714D01*
X131825714Y-84123333D01*
X132682857Y-84694761D02*
X132587619Y-84742380D01*
X132397142Y-84742380D01*
X132301904Y-84694761D01*
X132254285Y-84599523D01*
X132254285Y-84218571D01*
X132301904Y-84123333D01*
X132397142Y-84075714D01*
X132587619Y-84075714D01*
X132682857Y-84123333D01*
X132730476Y-84218571D01*
X132730476Y-84313809D01*
X132254285Y-84409047D01*
X117682857Y-85342380D02*
X118349523Y-85342380D01*
X117920952Y-86342380D01*
X118587619Y-85342380D02*
X118920952Y-86342380D01*
X119254285Y-85342380D01*
X120349523Y-85961428D02*
X121111428Y-85961428D01*
X122254285Y-85342380D02*
X122873333Y-85342380D01*
X122540000Y-85723333D01*
X122682857Y-85723333D01*
X122778095Y-85770952D01*
X122825714Y-85818571D01*
X122873333Y-85913809D01*
X122873333Y-86151904D01*
X122825714Y-86247142D01*
X122778095Y-86294761D01*
X122682857Y-86342380D01*
X122397142Y-86342380D01*
X122301904Y-86294761D01*
X122254285Y-86247142D01*
X123492380Y-85342380D02*
X123587619Y-85342380D01*
X123682857Y-85390000D01*
X123730476Y-85437619D01*
X123778095Y-85532857D01*
X123825714Y-85723333D01*
X123825714Y-85961428D01*
X123778095Y-86151904D01*
X123730476Y-86247142D01*
X123682857Y-86294761D01*
X123587619Y-86342380D01*
X123492380Y-86342380D01*
X123397142Y-86294761D01*
X123349523Y-86247142D01*
X123301904Y-86151904D01*
X123254285Y-85961428D01*
X123254285Y-85723333D01*
X123301904Y-85532857D01*
X123349523Y-85437619D01*
X123397142Y-85390000D01*
X123492380Y-85342380D01*
X124111428Y-85342380D02*
X124444761Y-86342380D01*
X124778095Y-85342380D01*
D12*
%TO.C,J1*%
X126950000Y-98370000D02*
X126950000Y-87520000D01*
X121850000Y-98370000D02*
X126950000Y-98370000D01*
X122150000Y-97870000D02*
X121850000Y-98370000D01*
X116750000Y-97870000D02*
X122150000Y-97870000D01*
X117000000Y-98370000D02*
X116750000Y-97870000D01*
X116950000Y-98370000D02*
X117000000Y-98370000D01*
X115050000Y-98370000D02*
X116950000Y-98370000D01*
X115300000Y-97870000D02*
X115050000Y-98370000D01*
X114350000Y-97870000D02*
X115300000Y-97870000D01*
X114350000Y-87520000D02*
X114350000Y-97870000D01*
X126950000Y-87520000D02*
X114350000Y-87520000D01*
%TO.C,C1*%
X122320000Y-108400000D02*
G75*
G03*
X122320000Y-108400000I-2620000J0D01*
G01*
X119700000Y-109440000D02*
X119700000Y-110980000D01*
X119700000Y-105820000D02*
X119700000Y-107360000D01*
X119740000Y-109440000D02*
X119740000Y-110980000D01*
X119740000Y-105820000D02*
X119740000Y-107360000D01*
X119780000Y-105821000D02*
X119780000Y-107360000D01*
X119780000Y-109440000D02*
X119780000Y-110979000D01*
X119820000Y-105822000D02*
X119820000Y-107360000D01*
X119820000Y-109440000D02*
X119820000Y-110978000D01*
X119860000Y-105824000D02*
X119860000Y-107360000D01*
X119860000Y-109440000D02*
X119860000Y-110976000D01*
X119900000Y-105827000D02*
X119900000Y-107360000D01*
X119900000Y-109440000D02*
X119900000Y-110973000D01*
X119940000Y-105831000D02*
X119940000Y-107360000D01*
X119940000Y-109440000D02*
X119940000Y-110969000D01*
X119980000Y-105835000D02*
X119980000Y-107360000D01*
X119980000Y-109440000D02*
X119980000Y-110965000D01*
X120020000Y-105839000D02*
X120020000Y-107360000D01*
X120020000Y-109440000D02*
X120020000Y-110961000D01*
X120060000Y-105844000D02*
X120060000Y-107360000D01*
X120060000Y-109440000D02*
X120060000Y-110956000D01*
X120100000Y-105850000D02*
X120100000Y-107360000D01*
X120100000Y-109440000D02*
X120100000Y-110950000D01*
X120140000Y-105857000D02*
X120140000Y-107360000D01*
X120140000Y-109440000D02*
X120140000Y-110943000D01*
X120180000Y-105864000D02*
X120180000Y-107360000D01*
X120180000Y-109440000D02*
X120180000Y-110936000D01*
X120220000Y-105872000D02*
X120220000Y-107360000D01*
X120220000Y-109440000D02*
X120220000Y-110928000D01*
X120260000Y-105880000D02*
X120260000Y-107360000D01*
X120260000Y-109440000D02*
X120260000Y-110920000D01*
X120300000Y-105889000D02*
X120300000Y-107360000D01*
X120300000Y-109440000D02*
X120300000Y-110911000D01*
X120340000Y-105899000D02*
X120340000Y-107360000D01*
X120340000Y-109440000D02*
X120340000Y-110901000D01*
X120380000Y-105909000D02*
X120380000Y-107360000D01*
X120380000Y-109440000D02*
X120380000Y-110891000D01*
X120421000Y-105920000D02*
X120421000Y-107360000D01*
X120421000Y-109440000D02*
X120421000Y-110880000D01*
X120461000Y-105932000D02*
X120461000Y-107360000D01*
X120461000Y-109440000D02*
X120461000Y-110868000D01*
X120501000Y-105945000D02*
X120501000Y-107360000D01*
X120501000Y-109440000D02*
X120501000Y-110855000D01*
X120541000Y-105958000D02*
X120541000Y-107360000D01*
X120541000Y-109440000D02*
X120541000Y-110842000D01*
X120581000Y-105972000D02*
X120581000Y-107360000D01*
X120581000Y-109440000D02*
X120581000Y-110828000D01*
X120621000Y-105986000D02*
X120621000Y-107360000D01*
X120621000Y-109440000D02*
X120621000Y-110814000D01*
X120661000Y-106002000D02*
X120661000Y-107360000D01*
X120661000Y-109440000D02*
X120661000Y-110798000D01*
X120701000Y-106018000D02*
X120701000Y-107360000D01*
X120701000Y-109440000D02*
X120701000Y-110782000D01*
X120741000Y-106035000D02*
X120741000Y-107360000D01*
X120741000Y-109440000D02*
X120741000Y-110765000D01*
X120781000Y-106052000D02*
X120781000Y-107360000D01*
X120781000Y-109440000D02*
X120781000Y-110748000D01*
X120821000Y-106071000D02*
X120821000Y-107360000D01*
X120821000Y-109440000D02*
X120821000Y-110729000D01*
X120861000Y-106090000D02*
X120861000Y-107360000D01*
X120861000Y-109440000D02*
X120861000Y-110710000D01*
X120901000Y-106110000D02*
X120901000Y-107360000D01*
X120901000Y-109440000D02*
X120901000Y-110690000D01*
X120941000Y-106132000D02*
X120941000Y-107360000D01*
X120941000Y-109440000D02*
X120941000Y-110668000D01*
X120981000Y-106153000D02*
X120981000Y-107360000D01*
X120981000Y-109440000D02*
X120981000Y-110647000D01*
X121021000Y-106176000D02*
X121021000Y-107360000D01*
X121021000Y-109440000D02*
X121021000Y-110624000D01*
X121061000Y-106200000D02*
X121061000Y-107360000D01*
X121061000Y-109440000D02*
X121061000Y-110600000D01*
X121101000Y-106225000D02*
X121101000Y-107360000D01*
X121101000Y-109440000D02*
X121101000Y-110575000D01*
X121141000Y-106251000D02*
X121141000Y-107360000D01*
X121141000Y-109440000D02*
X121141000Y-110549000D01*
X121181000Y-106278000D02*
X121181000Y-107360000D01*
X121181000Y-109440000D02*
X121181000Y-110522000D01*
X121221000Y-106305000D02*
X121221000Y-107360000D01*
X121221000Y-109440000D02*
X121221000Y-110495000D01*
X121261000Y-106335000D02*
X121261000Y-107360000D01*
X121261000Y-109440000D02*
X121261000Y-110465000D01*
X121301000Y-106365000D02*
X121301000Y-107360000D01*
X121301000Y-109440000D02*
X121301000Y-110435000D01*
X121341000Y-106396000D02*
X121341000Y-107360000D01*
X121341000Y-109440000D02*
X121341000Y-110404000D01*
X121381000Y-106429000D02*
X121381000Y-107360000D01*
X121381000Y-109440000D02*
X121381000Y-110371000D01*
X121421000Y-106463000D02*
X121421000Y-107360000D01*
X121421000Y-109440000D02*
X121421000Y-110337000D01*
X121461000Y-106499000D02*
X121461000Y-107360000D01*
X121461000Y-109440000D02*
X121461000Y-110301000D01*
X121501000Y-106536000D02*
X121501000Y-107360000D01*
X121501000Y-109440000D02*
X121501000Y-110264000D01*
X121541000Y-106574000D02*
X121541000Y-107360000D01*
X121541000Y-109440000D02*
X121541000Y-110226000D01*
X121581000Y-106615000D02*
X121581000Y-107360000D01*
X121581000Y-109440000D02*
X121581000Y-110185000D01*
X121621000Y-106657000D02*
X121621000Y-107360000D01*
X121621000Y-109440000D02*
X121621000Y-110143000D01*
X121661000Y-106701000D02*
X121661000Y-107360000D01*
X121661000Y-109440000D02*
X121661000Y-110099000D01*
X121701000Y-106747000D02*
X121701000Y-107360000D01*
X121701000Y-109440000D02*
X121701000Y-110053000D01*
X121741000Y-106795000D02*
X121741000Y-110005000D01*
X121781000Y-106846000D02*
X121781000Y-109954000D01*
X121821000Y-106900000D02*
X121821000Y-109900000D01*
X121861000Y-106957000D02*
X121861000Y-109843000D01*
X121901000Y-107017000D02*
X121901000Y-109783000D01*
X121941000Y-107081000D02*
X121941000Y-109719000D01*
X121981000Y-107149000D02*
X121981000Y-109651000D01*
X122021000Y-107222000D02*
X122021000Y-109578000D01*
X122061000Y-107302000D02*
X122061000Y-109498000D01*
X122101000Y-107389000D02*
X122101000Y-109411000D01*
X122141000Y-107485000D02*
X122141000Y-109315000D01*
X122181000Y-107595000D02*
X122181000Y-109205000D01*
X122221000Y-107723000D02*
X122221000Y-109077000D01*
X122261000Y-107882000D02*
X122261000Y-108918000D01*
X122301000Y-108116000D02*
X122301000Y-108684000D01*
X116895225Y-106925000D02*
X117395225Y-106925000D01*
X117145225Y-106675000D02*
X117145225Y-107175000D01*
%TO.C,C2*%
X125261000Y-110092000D02*
X125576000Y-110092000D01*
X122836000Y-110092000D02*
X123151000Y-110092000D01*
X125261000Y-115032000D02*
X125576000Y-115032000D01*
X122836000Y-115032000D02*
X123151000Y-115032000D01*
X125576000Y-115032000D02*
X125576000Y-110092000D01*
X122836000Y-115032000D02*
X122836000Y-110092000D01*
%TO.C,C3*%
X133958000Y-108234000D02*
X133958000Y-113174000D01*
X131218000Y-108234000D02*
X131218000Y-113174000D01*
X133958000Y-108234000D02*
X133643000Y-108234000D01*
X131533000Y-108234000D02*
X131218000Y-108234000D01*
X133958000Y-113174000D02*
X133643000Y-113174000D01*
X131533000Y-113174000D02*
X131218000Y-113174000D01*
%TO.C,C4*%
X138377000Y-103601225D02*
X137877000Y-103601225D01*
X138127000Y-103351225D02*
X138127000Y-103851225D01*
X136936000Y-108757000D02*
X136368000Y-108757000D01*
X137170000Y-108717000D02*
X136134000Y-108717000D01*
X137329000Y-108677000D02*
X135975000Y-108677000D01*
X137457000Y-108637000D02*
X135847000Y-108637000D01*
X137567000Y-108597000D02*
X135737000Y-108597000D01*
X137663000Y-108557000D02*
X135641000Y-108557000D01*
X137750000Y-108517000D02*
X135554000Y-108517000D01*
X137830000Y-108477000D02*
X135474000Y-108477000D01*
X137903000Y-108437000D02*
X135401000Y-108437000D01*
X137971000Y-108397000D02*
X135333000Y-108397000D01*
X138035000Y-108357000D02*
X135269000Y-108357000D01*
X138095000Y-108317000D02*
X135209000Y-108317000D01*
X138152000Y-108277000D02*
X135152000Y-108277000D01*
X138206000Y-108237000D02*
X135098000Y-108237000D01*
X138257000Y-108197000D02*
X135047000Y-108197000D01*
X135612000Y-108157000D02*
X134999000Y-108157000D01*
X138305000Y-108157000D02*
X137692000Y-108157000D01*
X135612000Y-108117000D02*
X134953000Y-108117000D01*
X138351000Y-108117000D02*
X137692000Y-108117000D01*
X135612000Y-108077000D02*
X134909000Y-108077000D01*
X138395000Y-108077000D02*
X137692000Y-108077000D01*
X135612000Y-108037000D02*
X134867000Y-108037000D01*
X138437000Y-108037000D02*
X137692000Y-108037000D01*
X135612000Y-107997000D02*
X134826000Y-107997000D01*
X138478000Y-107997000D02*
X137692000Y-107997000D01*
X135612000Y-107957000D02*
X134788000Y-107957000D01*
X138516000Y-107957000D02*
X137692000Y-107957000D01*
X135612000Y-107917000D02*
X134751000Y-107917000D01*
X138553000Y-107917000D02*
X137692000Y-107917000D01*
X135612000Y-107877000D02*
X134715000Y-107877000D01*
X138589000Y-107877000D02*
X137692000Y-107877000D01*
X135612000Y-107837000D02*
X134681000Y-107837000D01*
X138623000Y-107837000D02*
X137692000Y-107837000D01*
X135612000Y-107797000D02*
X134648000Y-107797000D01*
X138656000Y-107797000D02*
X137692000Y-107797000D01*
X135612000Y-107757000D02*
X134617000Y-107757000D01*
X138687000Y-107757000D02*
X137692000Y-107757000D01*
X135612000Y-107717000D02*
X134587000Y-107717000D01*
X138717000Y-107717000D02*
X137692000Y-107717000D01*
X135612000Y-107677000D02*
X134557000Y-107677000D01*
X138747000Y-107677000D02*
X137692000Y-107677000D01*
X135612000Y-107637000D02*
X134530000Y-107637000D01*
X138774000Y-107637000D02*
X137692000Y-107637000D01*
X135612000Y-107597000D02*
X134503000Y-107597000D01*
X138801000Y-107597000D02*
X137692000Y-107597000D01*
X135612000Y-107557000D02*
X134477000Y-107557000D01*
X138827000Y-107557000D02*
X137692000Y-107557000D01*
X135612000Y-107517000D02*
X134452000Y-107517000D01*
X138852000Y-107517000D02*
X137692000Y-107517000D01*
X135612000Y-107477000D02*
X134428000Y-107477000D01*
X138876000Y-107477000D02*
X137692000Y-107477000D01*
X135612000Y-107437000D02*
X134405000Y-107437000D01*
X138899000Y-107437000D02*
X137692000Y-107437000D01*
X135612000Y-107397000D02*
X134384000Y-107397000D01*
X138920000Y-107397000D02*
X137692000Y-107397000D01*
X135612000Y-107357000D02*
X134362000Y-107357000D01*
X138942000Y-107357000D02*
X137692000Y-107357000D01*
X135612000Y-107317000D02*
X134342000Y-107317000D01*
X138962000Y-107317000D02*
X137692000Y-107317000D01*
X135612000Y-107277000D02*
X134323000Y-107277000D01*
X138981000Y-107277000D02*
X137692000Y-107277000D01*
X135612000Y-107237000D02*
X134304000Y-107237000D01*
X139000000Y-107237000D02*
X137692000Y-107237000D01*
X135612000Y-107197000D02*
X134287000Y-107197000D01*
X139017000Y-107197000D02*
X137692000Y-107197000D01*
X135612000Y-107157000D02*
X134270000Y-107157000D01*
X139034000Y-107157000D02*
X137692000Y-107157000D01*
X135612000Y-107117000D02*
X134254000Y-107117000D01*
X139050000Y-107117000D02*
X137692000Y-107117000D01*
X135612000Y-107077000D02*
X134238000Y-107077000D01*
X139066000Y-107077000D02*
X137692000Y-107077000D01*
X135612000Y-107037000D02*
X134224000Y-107037000D01*
X139080000Y-107037000D02*
X137692000Y-107037000D01*
X135612000Y-106997000D02*
X134210000Y-106997000D01*
X139094000Y-106997000D02*
X137692000Y-106997000D01*
X135612000Y-106957000D02*
X134197000Y-106957000D01*
X139107000Y-106957000D02*
X137692000Y-106957000D01*
X135612000Y-106917000D02*
X134184000Y-106917000D01*
X139120000Y-106917000D02*
X137692000Y-106917000D01*
X135612000Y-106877000D02*
X134172000Y-106877000D01*
X139132000Y-106877000D02*
X137692000Y-106877000D01*
X135612000Y-106836000D02*
X134161000Y-106836000D01*
X139143000Y-106836000D02*
X137692000Y-106836000D01*
X135612000Y-106796000D02*
X134151000Y-106796000D01*
X139153000Y-106796000D02*
X137692000Y-106796000D01*
X135612000Y-106756000D02*
X134141000Y-106756000D01*
X139163000Y-106756000D02*
X137692000Y-106756000D01*
X135612000Y-106716000D02*
X134132000Y-106716000D01*
X139172000Y-106716000D02*
X137692000Y-106716000D01*
X135612000Y-106676000D02*
X134124000Y-106676000D01*
X139180000Y-106676000D02*
X137692000Y-106676000D01*
X135612000Y-106636000D02*
X134116000Y-106636000D01*
X139188000Y-106636000D02*
X137692000Y-106636000D01*
X135612000Y-106596000D02*
X134109000Y-106596000D01*
X139195000Y-106596000D02*
X137692000Y-106596000D01*
X135612000Y-106556000D02*
X134102000Y-106556000D01*
X139202000Y-106556000D02*
X137692000Y-106556000D01*
X135612000Y-106516000D02*
X134096000Y-106516000D01*
X139208000Y-106516000D02*
X137692000Y-106516000D01*
X135612000Y-106476000D02*
X134091000Y-106476000D01*
X139213000Y-106476000D02*
X137692000Y-106476000D01*
X135612000Y-106436000D02*
X134087000Y-106436000D01*
X139217000Y-106436000D02*
X137692000Y-106436000D01*
X135612000Y-106396000D02*
X134083000Y-106396000D01*
X139221000Y-106396000D02*
X137692000Y-106396000D01*
X135612000Y-106356000D02*
X134079000Y-106356000D01*
X139225000Y-106356000D02*
X137692000Y-106356000D01*
X135612000Y-106316000D02*
X134076000Y-106316000D01*
X139228000Y-106316000D02*
X137692000Y-106316000D01*
X135612000Y-106276000D02*
X134074000Y-106276000D01*
X139230000Y-106276000D02*
X137692000Y-106276000D01*
X135612000Y-106236000D02*
X134073000Y-106236000D01*
X139231000Y-106236000D02*
X137692000Y-106236000D01*
X139232000Y-106196000D02*
X137692000Y-106196000D01*
X135612000Y-106196000D02*
X134072000Y-106196000D01*
X139232000Y-106156000D02*
X137692000Y-106156000D01*
X135612000Y-106156000D02*
X134072000Y-106156000D01*
X139272000Y-106156000D02*
G75*
G03*
X139272000Y-106156000I-2620000J0D01*
G01*
%TO.C,D1*%
X120470000Y-100030000D02*
X120470000Y-102970000D01*
X120710000Y-100030000D02*
X120710000Y-102970000D01*
X120590000Y-100030000D02*
X120590000Y-102970000D01*
X125130000Y-102970000D02*
X125130000Y-102640000D01*
X119690000Y-102970000D02*
X125130000Y-102970000D01*
X119690000Y-102640000D02*
X119690000Y-102970000D01*
X125130000Y-100030000D02*
X125130000Y-100360000D01*
X119690000Y-100030000D02*
X125130000Y-100030000D01*
X119690000Y-100360000D02*
X119690000Y-100030000D01*
%TO.C,D2*%
X172680000Y-98425000D02*
G75*
G03*
X172680000Y-98425000I-2500000J0D01*
G01*
X172740000Y-99970000D02*
X172740000Y-96880000D01*
X167190000Y-98425462D02*
G75*
G02*
X172740000Y-96880170I2990000J462D01*
G01*
X167190000Y-98424538D02*
G75*
G03*
X172740000Y-99969830I2990000J-462D01*
G01*
%TO.C,D3*%
X153650000Y-105135000D02*
X153650000Y-108225000D01*
X158710000Y-106680000D02*
G75*
G03*
X158710000Y-106680000I-2500000J0D01*
G01*
X159200000Y-106680462D02*
G75*
G03*
X153650000Y-105135170I-2990000J462D01*
G01*
X159200000Y-106679538D02*
G75*
G02*
X153650000Y-108224830I-2990000J-462D01*
G01*
%TO.C,R1*%
X136652000Y-89178000D02*
X136652000Y-89948000D01*
X136652000Y-97258000D02*
X136652000Y-96488000D01*
X135282000Y-89948000D02*
X135282000Y-96488000D01*
X138022000Y-89948000D02*
X135282000Y-89948000D01*
X138022000Y-96488000D02*
X138022000Y-89948000D01*
X135282000Y-96488000D02*
X138022000Y-96488000D01*
%TO.C,U1*%
X126016000Y-108893000D02*
X127526000Y-108893000D01*
X126016000Y-112594000D02*
X127526000Y-112594000D01*
X127526000Y-115864000D02*
X127526000Y-105624000D01*
X126016000Y-105624000D02*
X130657000Y-105624000D01*
X126016000Y-115864000D02*
X130657000Y-115864000D01*
X130657000Y-115864000D02*
X130657000Y-105624000D01*
X126016000Y-115864000D02*
X126016000Y-105624000D01*
%TO.C,J2*%
X160595000Y-102870000D02*
X160595000Y-101540000D01*
X160595000Y-101540000D02*
X161925000Y-101540000D01*
X163195000Y-101540000D02*
X165795000Y-101540000D01*
X165795000Y-104200000D02*
X165795000Y-101540000D01*
X163195000Y-104200000D02*
X165795000Y-104200000D01*
X163195000Y-104200000D02*
X163195000Y-101540000D01*
%TO.C,R2*%
X155480000Y-97385000D02*
X155480000Y-97055000D01*
X155480000Y-97055000D02*
X162020000Y-97055000D01*
X162020000Y-97055000D02*
X162020000Y-97385000D01*
X155480000Y-99465000D02*
X155480000Y-99795000D01*
X155480000Y-99795000D02*
X162020000Y-99795000D01*
X162020000Y-99795000D02*
X162020000Y-99465000D01*
%TO.C,R3*%
X164370000Y-105310000D02*
X164370000Y-105640000D01*
X170910000Y-105310000D02*
X164370000Y-105310000D01*
X170910000Y-105640000D02*
X170910000Y-105310000D01*
X164370000Y-108050000D02*
X164370000Y-107720000D01*
X170910000Y-108050000D02*
X164370000Y-108050000D01*
X170910000Y-107720000D02*
X170910000Y-108050000D01*
%TO.C,SW1*%
X153686000Y-86956000D02*
X149186000Y-86956000D01*
X154936000Y-90956000D02*
X154936000Y-89456000D01*
X149186000Y-93456000D02*
X153686000Y-93456000D01*
X147936000Y-89456000D02*
X147936000Y-90956000D01*
%TO.C,SW2*%
X153686000Y-112102000D02*
X149186000Y-112102000D01*
X154936000Y-116102000D02*
X154936000Y-114602000D01*
X149186000Y-118602000D02*
X153686000Y-118602000D01*
X147936000Y-114602000D02*
X147936000Y-116102000D01*
%TO.C,SW3*%
X171050000Y-89456000D02*
X171050000Y-90956000D01*
X172300000Y-93456000D02*
X176800000Y-93456000D01*
X178050000Y-90956000D02*
X178050000Y-89456000D01*
X176800000Y-86956000D02*
X172300000Y-86956000D01*
%TO.C,SW4*%
X171050000Y-114602000D02*
X171050000Y-116102000D01*
X172300000Y-118602000D02*
X176800000Y-118602000D01*
X178050000Y-116102000D02*
X178050000Y-114602000D01*
X176800000Y-112102000D02*
X172300000Y-112102000D01*
%TO.C,J1*%
D13*
X125650666Y-85812380D02*
X125650666Y-86526666D01*
X125603047Y-86669523D01*
X125507809Y-86764761D01*
X125364952Y-86812380D01*
X125269714Y-86812380D01*
X126650666Y-86812380D02*
X126079238Y-86812380D01*
X126364952Y-86812380D02*
X126364952Y-85812380D01*
X126269714Y-85955238D01*
X126174476Y-86050476D01*
X126079238Y-86098095D01*
%TO.C,C1*%
X121708333Y-105836142D02*
X121660714Y-105883761D01*
X121517857Y-105931380D01*
X121422619Y-105931380D01*
X121279761Y-105883761D01*
X121184523Y-105788523D01*
X121136904Y-105693285D01*
X121089285Y-105502809D01*
X121089285Y-105359952D01*
X121136904Y-105169476D01*
X121184523Y-105074238D01*
X121279761Y-104979000D01*
X121422619Y-104931380D01*
X121517857Y-104931380D01*
X121660714Y-104979000D01*
X121708333Y-105026619D01*
X122660714Y-105931380D02*
X122089285Y-105931380D01*
X122375000Y-105931380D02*
X122375000Y-104931380D01*
X122279761Y-105074238D01*
X122184523Y-105169476D01*
X122089285Y-105217095D01*
%TO.C,C2*%
X124293333Y-108561142D02*
X124245714Y-108608761D01*
X124102857Y-108656380D01*
X124007619Y-108656380D01*
X123864761Y-108608761D01*
X123769523Y-108513523D01*
X123721904Y-108418285D01*
X123674285Y-108227809D01*
X123674285Y-108084952D01*
X123721904Y-107894476D01*
X123769523Y-107799238D01*
X123864761Y-107704000D01*
X124007619Y-107656380D01*
X124102857Y-107656380D01*
X124245714Y-107704000D01*
X124293333Y-107751619D01*
X124674285Y-107751619D02*
X124721904Y-107704000D01*
X124817142Y-107656380D01*
X125055238Y-107656380D01*
X125150476Y-107704000D01*
X125198095Y-107751619D01*
X125245714Y-107846857D01*
X125245714Y-107942095D01*
X125198095Y-108084952D01*
X124626666Y-108656380D01*
X125245714Y-108656380D01*
%TO.C,C3*%
X132421333Y-106529142D02*
X132373714Y-106576761D01*
X132230857Y-106624380D01*
X132135619Y-106624380D01*
X131992761Y-106576761D01*
X131897523Y-106481523D01*
X131849904Y-106386285D01*
X131802285Y-106195809D01*
X131802285Y-106052952D01*
X131849904Y-105862476D01*
X131897523Y-105767238D01*
X131992761Y-105672000D01*
X132135619Y-105624380D01*
X132230857Y-105624380D01*
X132373714Y-105672000D01*
X132421333Y-105719619D01*
X132754666Y-105624380D02*
X133373714Y-105624380D01*
X133040380Y-106005333D01*
X133183238Y-106005333D01*
X133278476Y-106052952D01*
X133326095Y-106100571D01*
X133373714Y-106195809D01*
X133373714Y-106433904D01*
X133326095Y-106529142D01*
X133278476Y-106576761D01*
X133183238Y-106624380D01*
X132897523Y-106624380D01*
X132802285Y-106576761D01*
X132754666Y-106529142D01*
%TO.C,C4*%
X139279333Y-103989142D02*
X139231714Y-104036761D01*
X139088857Y-104084380D01*
X138993619Y-104084380D01*
X138850761Y-104036761D01*
X138755523Y-103941523D01*
X138707904Y-103846285D01*
X138660285Y-103655809D01*
X138660285Y-103512952D01*
X138707904Y-103322476D01*
X138755523Y-103227238D01*
X138850761Y-103132000D01*
X138993619Y-103084380D01*
X139088857Y-103084380D01*
X139231714Y-103132000D01*
X139279333Y-103179619D01*
X140136476Y-103417714D02*
X140136476Y-104084380D01*
X139898380Y-103036761D02*
X139660285Y-103751047D01*
X140279333Y-103751047D01*
%TO.C,D1*%
X127661904Y-100652380D02*
X127661904Y-99652380D01*
X127900000Y-99652380D01*
X128042857Y-99700000D01*
X128138095Y-99795238D01*
X128185714Y-99890476D01*
X128233333Y-100080952D01*
X128233333Y-100223809D01*
X128185714Y-100414285D01*
X128138095Y-100509523D01*
X128042857Y-100604761D01*
X127900000Y-100652380D01*
X127661904Y-100652380D01*
X129185714Y-100652380D02*
X128614285Y-100652380D01*
X128900000Y-100652380D02*
X128900000Y-99652380D01*
X128804761Y-99795238D01*
X128709523Y-99890476D01*
X128614285Y-99938095D01*
X119608095Y-104111380D02*
X119608095Y-103111380D01*
X120179523Y-104111380D02*
X119750952Y-103539952D01*
X120179523Y-103111380D02*
X119608095Y-103682809D01*
%TO.C,D2*%
X169441904Y-95067380D02*
X169441904Y-94067380D01*
X169680000Y-94067380D01*
X169822857Y-94115000D01*
X169918095Y-94210238D01*
X169965714Y-94305476D01*
X170013333Y-94495952D01*
X170013333Y-94638809D01*
X169965714Y-94829285D01*
X169918095Y-94924523D01*
X169822857Y-95019761D01*
X169680000Y-95067380D01*
X169441904Y-95067380D01*
X170394285Y-94162619D02*
X170441904Y-94115000D01*
X170537142Y-94067380D01*
X170775238Y-94067380D01*
X170870476Y-94115000D01*
X170918095Y-94162619D01*
X170965714Y-94257857D01*
X170965714Y-94353095D01*
X170918095Y-94495952D01*
X170346666Y-95067380D01*
X170965714Y-95067380D01*
%TO.C,D3*%
X155471904Y-103322380D02*
X155471904Y-102322380D01*
X155710000Y-102322380D01*
X155852857Y-102370000D01*
X155948095Y-102465238D01*
X155995714Y-102560476D01*
X156043333Y-102750952D01*
X156043333Y-102893809D01*
X155995714Y-103084285D01*
X155948095Y-103179523D01*
X155852857Y-103274761D01*
X155710000Y-103322380D01*
X155471904Y-103322380D01*
X156376666Y-102322380D02*
X156995714Y-102322380D01*
X156662380Y-102703333D01*
X156805238Y-102703333D01*
X156900476Y-102750952D01*
X156948095Y-102798571D01*
X156995714Y-102893809D01*
X156995714Y-103131904D01*
X156948095Y-103227142D01*
X156900476Y-103274761D01*
X156805238Y-103322380D01*
X156519523Y-103322380D01*
X156424285Y-103274761D01*
X156376666Y-103227142D01*
%TO.C,R1*%
X136485333Y-86685380D02*
X136152000Y-86209190D01*
X135913904Y-86685380D02*
X135913904Y-85685380D01*
X136294857Y-85685380D01*
X136390095Y-85733000D01*
X136437714Y-85780619D01*
X136485333Y-85875857D01*
X136485333Y-86018714D01*
X136437714Y-86113952D01*
X136390095Y-86161571D01*
X136294857Y-86209190D01*
X135913904Y-86209190D01*
X137437714Y-86685380D02*
X136866285Y-86685380D01*
X137152000Y-86685380D02*
X137152000Y-85685380D01*
X137056761Y-85828238D01*
X136961523Y-85923476D01*
X136866285Y-85971095D01*
%TO.C,U1*%
X129032095Y-104100380D02*
X129032095Y-104909904D01*
X129079714Y-105005142D01*
X129127333Y-105052761D01*
X129222571Y-105100380D01*
X129413047Y-105100380D01*
X129508285Y-105052761D01*
X129555904Y-105005142D01*
X129603523Y-104909904D01*
X129603523Y-104100380D01*
X130603523Y-105100380D02*
X130032095Y-105100380D01*
X130317809Y-105100380D02*
X130317809Y-104100380D01*
X130222571Y-104243238D01*
X130127333Y-104338476D01*
X130032095Y-104386095D01*
%TO.C,J2*%
X159051666Y-101052380D02*
X159051666Y-101766666D01*
X159004047Y-101909523D01*
X158908809Y-102004761D01*
X158765952Y-102052380D01*
X158670714Y-102052380D01*
X159480238Y-101147619D02*
X159527857Y-101100000D01*
X159623095Y-101052380D01*
X159861190Y-101052380D01*
X159956428Y-101100000D01*
X160004047Y-101147619D01*
X160051666Y-101242857D01*
X160051666Y-101338095D01*
X160004047Y-101480952D01*
X159432619Y-102052380D01*
X160051666Y-102052380D01*
%TO.C,R2*%
X158583333Y-96507380D02*
X158250000Y-96031190D01*
X158011904Y-96507380D02*
X158011904Y-95507380D01*
X158392857Y-95507380D01*
X158488095Y-95555000D01*
X158535714Y-95602619D01*
X158583333Y-95697857D01*
X158583333Y-95840714D01*
X158535714Y-95935952D01*
X158488095Y-95983571D01*
X158392857Y-96031190D01*
X158011904Y-96031190D01*
X158964285Y-95602619D02*
X159011904Y-95555000D01*
X159107142Y-95507380D01*
X159345238Y-95507380D01*
X159440476Y-95555000D01*
X159488095Y-95602619D01*
X159535714Y-95697857D01*
X159535714Y-95793095D01*
X159488095Y-95935952D01*
X158916666Y-96507380D01*
X159535714Y-96507380D01*
%TO.C,R3*%
X167473333Y-104592380D02*
X167140000Y-104116190D01*
X166901904Y-104592380D02*
X166901904Y-103592380D01*
X167282857Y-103592380D01*
X167378095Y-103640000D01*
X167425714Y-103687619D01*
X167473333Y-103782857D01*
X167473333Y-103925714D01*
X167425714Y-104020952D01*
X167378095Y-104068571D01*
X167282857Y-104116190D01*
X166901904Y-104116190D01*
X167806666Y-103592380D02*
X168425714Y-103592380D01*
X168092380Y-103973333D01*
X168235238Y-103973333D01*
X168330476Y-104020952D01*
X168378095Y-104068571D01*
X168425714Y-104163809D01*
X168425714Y-104401904D01*
X168378095Y-104497142D01*
X168330476Y-104544761D01*
X168235238Y-104592380D01*
X167949523Y-104592380D01*
X167854285Y-104544761D01*
X167806666Y-104497142D01*
%TO.C,SW1*%
X150102666Y-94860761D02*
X150245523Y-94908380D01*
X150483619Y-94908380D01*
X150578857Y-94860761D01*
X150626476Y-94813142D01*
X150674095Y-94717904D01*
X150674095Y-94622666D01*
X150626476Y-94527428D01*
X150578857Y-94479809D01*
X150483619Y-94432190D01*
X150293142Y-94384571D01*
X150197904Y-94336952D01*
X150150285Y-94289333D01*
X150102666Y-94194095D01*
X150102666Y-94098857D01*
X150150285Y-94003619D01*
X150197904Y-93956000D01*
X150293142Y-93908380D01*
X150531238Y-93908380D01*
X150674095Y-93956000D01*
X151007428Y-93908380D02*
X151245523Y-94908380D01*
X151436000Y-94194095D01*
X151626476Y-94908380D01*
X151864571Y-93908380D01*
X152769333Y-94908380D02*
X152197904Y-94908380D01*
X152483619Y-94908380D02*
X152483619Y-93908380D01*
X152388380Y-94051238D01*
X152293142Y-94146476D01*
X152197904Y-94194095D01*
%TO.C,SW2*%
X150102666Y-120006761D02*
X150245523Y-120054380D01*
X150483619Y-120054380D01*
X150578857Y-120006761D01*
X150626476Y-119959142D01*
X150674095Y-119863904D01*
X150674095Y-119768666D01*
X150626476Y-119673428D01*
X150578857Y-119625809D01*
X150483619Y-119578190D01*
X150293142Y-119530571D01*
X150197904Y-119482952D01*
X150150285Y-119435333D01*
X150102666Y-119340095D01*
X150102666Y-119244857D01*
X150150285Y-119149619D01*
X150197904Y-119102000D01*
X150293142Y-119054380D01*
X150531238Y-119054380D01*
X150674095Y-119102000D01*
X151007428Y-119054380D02*
X151245523Y-120054380D01*
X151436000Y-119340095D01*
X151626476Y-120054380D01*
X151864571Y-119054380D01*
X152197904Y-119149619D02*
X152245523Y-119102000D01*
X152340761Y-119054380D01*
X152578857Y-119054380D01*
X152674095Y-119102000D01*
X152721714Y-119149619D01*
X152769333Y-119244857D01*
X152769333Y-119340095D01*
X152721714Y-119482952D01*
X152150285Y-120054380D01*
X152769333Y-120054380D01*
%TO.C,SW3*%
X173216666Y-94860761D02*
X173359523Y-94908380D01*
X173597619Y-94908380D01*
X173692857Y-94860761D01*
X173740476Y-94813142D01*
X173788095Y-94717904D01*
X173788095Y-94622666D01*
X173740476Y-94527428D01*
X173692857Y-94479809D01*
X173597619Y-94432190D01*
X173407142Y-94384571D01*
X173311904Y-94336952D01*
X173264285Y-94289333D01*
X173216666Y-94194095D01*
X173216666Y-94098857D01*
X173264285Y-94003619D01*
X173311904Y-93956000D01*
X173407142Y-93908380D01*
X173645238Y-93908380D01*
X173788095Y-93956000D01*
X174121428Y-93908380D02*
X174359523Y-94908380D01*
X174550000Y-94194095D01*
X174740476Y-94908380D01*
X174978571Y-93908380D01*
X175264285Y-93908380D02*
X175883333Y-93908380D01*
X175550000Y-94289333D01*
X175692857Y-94289333D01*
X175788095Y-94336952D01*
X175835714Y-94384571D01*
X175883333Y-94479809D01*
X175883333Y-94717904D01*
X175835714Y-94813142D01*
X175788095Y-94860761D01*
X175692857Y-94908380D01*
X175407142Y-94908380D01*
X175311904Y-94860761D01*
X175264285Y-94813142D01*
%TO.C,SW4*%
X173216666Y-120006761D02*
X173359523Y-120054380D01*
X173597619Y-120054380D01*
X173692857Y-120006761D01*
X173740476Y-119959142D01*
X173788095Y-119863904D01*
X173788095Y-119768666D01*
X173740476Y-119673428D01*
X173692857Y-119625809D01*
X173597619Y-119578190D01*
X173407142Y-119530571D01*
X173311904Y-119482952D01*
X173264285Y-119435333D01*
X173216666Y-119340095D01*
X173216666Y-119244857D01*
X173264285Y-119149619D01*
X173311904Y-119102000D01*
X173407142Y-119054380D01*
X173645238Y-119054380D01*
X173788095Y-119102000D01*
X174121428Y-119054380D02*
X174359523Y-120054380D01*
X174550000Y-119340095D01*
X174740476Y-120054380D01*
X174978571Y-119054380D01*
X175788095Y-119387714D02*
X175788095Y-120054380D01*
X175550000Y-119006761D02*
X175311904Y-119721047D01*
X175930952Y-119721047D01*
%TD*%
M02*
